<?xml version="1.0" encoding="utf-8"?>
<!-- Generator: Adobe Illustrator 16.0.0, SVG Export Plug-In . SVG Version: 6.00 Build 0)  -->
<!DOCTYPE svg PUBLIC "-//W3C//DTD SVG 1.1//EN" "http://www.w3.org/Graphics/SVG/1.1/DTD/svg11.dtd">
<svg version="1.1" id="Layer_1" xmlns="http://www.w3.org/2000/svg" xmlns:xlink="http://www.w3.org/1999/xlink" x="0px" y="0px"
	 width="700px" height="490px" viewBox="0 0 700 490" enable-background="new 0 0 700 490" xml:space="preserve">
<g>
	<g>
		<g>
			<path fill="#333333" d="M362.4,454.9c0.3,0,0.7,0.3,0.7,0.3l-5.7,11.8c-0.6,0-2.1,0.1-2.5,0.1c-0.3,0-0.7-0.3-0.7-0.3l-1.9-11.8
				c1.2,0,2.7-0.1,3.1-0.1c0.3,0,0.7,0.3,0.7,0.3l0.6,5.8c0.1,0.5,0.1,1.2,0,1.9c0.2-0.8,0.4-1.5,0.6-2.1l2.4-5.8
				C360.7,455,362,454.9,362.4,454.9L362.4,454.9z"/>
		</g>
		<g>
			<path fill="#333333" d="M368.3,460.7c0,1.3-0.7,2.1-2.6,2.5l-1.9,0.4c0.2,0.8,0.7,1.2,1.5,1.2c1.1,0,1.8-0.8,1.8-0.8
				s0.5,0.3,0.5,0.9c0,1.1-1.7,2.2-3.7,2.2c-2,0-3.3-1.2-3.3-3.3c0-2.4,1.7-5.6,4.8-5.6C367.2,458.2,368.3,459.2,368.3,460.7
				L368.3,460.7z M365,461.9c0.4-0.1,0.5-0.5,0.5-0.8c0-0.4-0.1-0.9-0.5-0.9c-0.8,0-1.1,1.2-1.2,2.1L365,461.9z"/>
		</g>
		<g>
			<path fill="#333333" d="M373.5,458.2c1.6,0,2.7,0.8,2.7,1.9c0,1.3-1.6,1.8-1.6,1.8s-0.5-1.4-1.6-1.4c-0.7,0-1.2,0.7-1.2,2.3
				c0,1.4,0.4,2.1,1.3,2.1c1,0,1.6-0.6,1.6-0.6s0.5,0.3,0.5,0.9c0,1-1.6,2.1-3.5,2.1c-2,0-3.3-1.2-3.3-3.3
				C368.5,461.5,370.3,458.2,373.5,458.2L373.5,458.2z"/>
		</g>
		<g>
			<path fill="#333333" d="M381,456.3c0.4,0,0.6,0.3,0.6,0.3l-0.3,1.8h2l-0.4,1.4c-0.1,0.4-0.4,0.7-0.8,0.7h-1l-0.6,3.5
				c-0.1,0.6,0,0.8,0.4,0.8c0.4,0,0.7-0.2,0.7-0.2s0.5,0.3,0.5,0.9c0,0.9-1.3,1.7-2.9,1.7c-1.7,0-2.4-1-2.1-2.8l0.6-3.9h-1.1
				l0.5-1.4c0.1-0.4,0.4-0.6,0.8-0.6h0.5l0.6-1.7C379.9,456.6,380.6,456.3,381,456.3L381,456.3z"/>
		</g>
		<g>
			<path fill="#333333" d="M390.5,460.7c0,1.3-0.7,2.1-2.6,2.5l-1.9,0.4c0.2,0.8,0.7,1.2,1.5,1.2c1.1,0,1.8-0.8,1.8-0.8
				s0.5,0.3,0.5,0.9c0,1.1-1.7,2.2-3.7,2.2c-2,0-3.3-1.2-3.3-3.3c0-2.4,1.7-5.6,4.8-5.6C389.5,458.2,390.5,459.2,390.5,460.7
				L390.5,460.7z M387.3,461.9c0.4-0.1,0.5-0.5,0.5-0.8c0-0.4-0.1-0.9-0.5-0.9c-0.8,0-1.1,1.2-1.2,2.1L387.3,461.9z"/>
		</g>
		<g>
			<path fill="#333333" d="M398.4,460.7c0,1.3-0.7,2.1-2.6,2.5l-1.9,0.4c0.1,0.8,0.7,1.2,1.5,1.2c1.1,0,1.8-0.8,1.8-0.8
				s0.5,0.3,0.5,0.9c0,1.1-1.7,2.2-3.7,2.2c-2,0-3.3-1.2-3.3-3.3c0-2.4,1.7-5.6,4.8-5.6C397.3,458.2,398.4,459.2,398.4,460.7
				L398.4,460.7z M395.1,461.9c0.4-0.1,0.5-0.5,0.5-0.8c0-0.4-0.1-0.9-0.5-0.9c-0.8,0-1.1,1.2-1.2,2.1L395.1,461.9z"/>
		</g>
		<g>
			<path fill="#333333" d="M404.8,463.9c0,0,0.7,0.6,0.7,1.6c0,1.3-1.1,1.7-2.1,1.7c-1.3,0-2.2-0.6-3.1-0.9
				c-0.3,0.3-0.5,0.6-0.8,0.9c0,0-1.4,0-1.4-1c0-1.1,2-3.1,4.1-5.3c-0.2,0-0.5-0.1-0.7-0.1c-1.2,0-1.7,0.6-1.7,0.6s-0.6-0.7-0.6-1.6
				c0.1-1.2,1.3-1.6,2.2-1.6c1,0,1.8,0.4,2.5,0.7l0.6-0.7c0,0,1.4,0,1.4,1c0,1.1-1.9,3-3.9,5.2c0.4,0.1,0.8,0.2,1.2,0.2
				C404.3,464.6,404.8,463.9,404.8,463.9L404.8,463.9z"/>
		</g>
		<g>
			<path fill="#333333" d="M414,466.4c-0.5,3-2.6,4.5-5.3,4.5c-1.7,0-3-0.9-3-1.9c0-0.7,0.6-1,0.6-1s0.6,0.5,1.7,0.5
				c1.1,0,2.5-0.4,2.8-2l0.2-1.2c-0.7,1-1.7,1.8-2.9,1.8c-1.4,0-2-1.1-1.6-3.3l0.4-2.4c0.2-1.5,0.3-2.6,0.3-2.6
				c1-0.2,2.2-0.6,2.7-0.6c0.3,0,0.7,0.3,0.7,0.3l-0.5,3l-0.4,2.8c0,0.3,0,0.4,0.2,0.4c1.1,0,1.8-3.1,1.8-3.1
				c0.2-1.5,0.3-2.6,0.3-2.6c1-0.2,2.2-0.6,2.7-0.6c0.3,0,0.7,0.3,0.7,0.3l-0.5,3L414,466.4z"/>
		</g>
	</g>
	<g>
		<path fill="#333333" d="M283.2,458.7h3c0.7,0,1.2,0.1,1.6,0.2c0.5,0.1,0.9,0.4,1.2,0.7c0.3,0.4,0.6,0.8,0.8,1.3
			c0.2,0.5,0.3,1.1,0.3,1.9c0,0.7-0.1,1.2-0.3,1.7c-0.2,0.6-0.5,1.1-0.9,1.4c-0.3,0.3-0.7,0.5-1.2,0.6c-0.4,0.1-0.9,0.2-1.5,0.2
			h-3.1V458.7z M284.9,460.1v5.3h1.2c0.5,0,0.8,0,1-0.1c0.3-0.1,0.5-0.2,0.7-0.3c0.2-0.2,0.3-0.4,0.4-0.8c0.1-0.4,0.2-0.8,0.2-1.5
			s-0.1-1.1-0.2-1.4c-0.1-0.3-0.3-0.6-0.5-0.8c-0.2-0.2-0.5-0.3-0.8-0.4c-0.2-0.1-0.7-0.1-1.4-0.1H284.9z"/>
		<path fill="#333333" d="M294.7,464.9l1.6,0.3c-0.2,0.6-0.5,1-1,1.3c-0.4,0.3-1,0.4-1.6,0.4c-1,0-1.8-0.3-2.3-1
			c-0.4-0.5-0.6-1.2-0.6-2c0-1,0.3-1.7,0.8-2.3s1.2-0.8,2-0.8c0.9,0,1.6,0.3,2.1,0.9c0.5,0.6,0.8,1.4,0.7,2.6h-4
			c0,0.5,0.1,0.8,0.4,1.1c0.2,0.3,0.5,0.4,0.9,0.4c0.2,0,0.5-0.1,0.6-0.2C294.5,465.4,294.7,465.2,294.7,464.9z M294.8,463.3
			c0-0.4-0.1-0.8-0.4-1s-0.5-0.3-0.8-0.3c-0.3,0-0.6,0.1-0.9,0.4s-0.3,0.6-0.3,1H294.8z"/>
		<path fill="#333333" d="M296.9,465.1l1.6-0.2c0.1,0.3,0.2,0.5,0.4,0.7c0.2,0.2,0.5,0.2,0.9,0.2c0.4,0,0.7-0.1,0.9-0.2
			c0.1-0.1,0.2-0.2,0.2-0.4c0-0.1,0-0.2-0.1-0.3c-0.1-0.1-0.3-0.1-0.5-0.2c-1.3-0.3-2.1-0.5-2.4-0.7c-0.5-0.3-0.7-0.7-0.7-1.3
			c0-0.5,0.2-0.9,0.6-1.3c0.4-0.3,1-0.5,1.9-0.5c0.8,0,1.4,0.1,1.8,0.4c0.4,0.3,0.7,0.6,0.8,1.1l-1.5,0.3c-0.1-0.2-0.2-0.4-0.4-0.5
			c-0.2-0.1-0.4-0.2-0.8-0.2c-0.4,0-0.7,0.1-0.9,0.2c-0.1,0.1-0.2,0.2-0.2,0.3c0,0.1,0.1,0.2,0.2,0.3c0.1,0.1,0.6,0.2,1.5,0.4
			c0.8,0.2,1.4,0.4,1.8,0.7c0.3,0.3,0.5,0.7,0.5,1.1c0,0.5-0.2,1-0.7,1.4c-0.5,0.4-1.1,0.6-2,0.6c-0.8,0-1.5-0.2-1.9-0.5
			C297.4,466,297.1,465.6,296.9,465.1z"/>
		<path fill="#333333" d="M303.6,460.1v-1.4h1.6v1.4H303.6z M303.6,466.7v-5.8h1.6v5.8H303.6z"/>
		<path fill="#333333" d="M306.4,467.1l1.8,0.2c0,0.2,0.1,0.3,0.2,0.4c0.2,0.1,0.4,0.2,0.7,0.2c0.4,0,0.7-0.1,0.9-0.2
			c0.1-0.1,0.2-0.2,0.3-0.4c0-0.1,0.1-0.4,0.1-0.7v-0.8c-0.5,0.6-1.1,0.9-1.8,0.9c-0.8,0-1.4-0.3-1.9-1c-0.4-0.5-0.5-1.2-0.5-1.9
			c0-1,0.2-1.7,0.7-2.2c0.5-0.5,1.1-0.8,1.8-0.8c0.7,0,1.3,0.3,1.8,0.9v-0.8h1.5v5.2c0,0.7-0.1,1.2-0.2,1.5
			c-0.1,0.3-0.3,0.6-0.5,0.8c-0.2,0.2-0.5,0.3-0.8,0.5s-0.8,0.2-1.3,0.2c-1,0-1.7-0.2-2.2-0.5c-0.4-0.3-0.6-0.8-0.6-1.3
			C306.4,467.2,306.4,467.2,306.4,467.1z M307.9,463.7c0,0.6,0.1,1.1,0.4,1.4c0.2,0.3,0.5,0.4,0.9,0.4c0.4,0,0.7-0.1,1-0.4
			c0.3-0.3,0.4-0.7,0.4-1.3c0-0.6-0.1-1-0.4-1.3c-0.3-0.3-0.6-0.4-1-0.4c-0.4,0-0.7,0.1-0.9,0.4C308,462.7,307.9,463.1,307.9,463.7z
			"/>
		<path fill="#333333" d="M318.8,466.7h-1.6v-3c0-0.6,0-1-0.1-1.2c-0.1-0.2-0.2-0.3-0.3-0.4c-0.1-0.1-0.3-0.2-0.5-0.2
			c-0.3,0-0.5,0.1-0.7,0.2c-0.2,0.1-0.4,0.3-0.4,0.6c-0.1,0.2-0.1,0.7-0.1,1.3v2.6h-1.6v-5.8h1.5v0.9c0.5-0.7,1.2-1,2-1
			c0.3,0,0.7,0.1,1,0.2c0.3,0.1,0.5,0.3,0.7,0.5c0.1,0.2,0.3,0.4,0.3,0.6c0.1,0.2,0.1,0.6,0.1,1V466.7z"/>
		<path fill="#333333" d="M323.6,464.9l1.6,0.3c-0.2,0.6-0.5,1-1,1.3c-0.4,0.3-1,0.4-1.6,0.4c-1,0-1.8-0.3-2.3-1
			c-0.4-0.5-0.6-1.2-0.6-2c0-1,0.3-1.7,0.8-2.3c0.5-0.5,1.2-0.8,2-0.8c0.9,0,1.6,0.3,2.1,0.9c0.5,0.6,0.8,1.4,0.7,2.6h-4
			c0,0.5,0.1,0.8,0.4,1.1c0.2,0.3,0.5,0.4,0.9,0.4c0.2,0,0.5-0.1,0.6-0.2S323.5,465.2,323.6,464.9z M323.7,463.3
			c0-0.4-0.1-0.8-0.4-1c-0.2-0.2-0.5-0.3-0.8-0.3c-0.3,0-0.6,0.1-0.9,0.4s-0.3,0.6-0.3,1H323.7z"/>
		<path fill="#333333" d="M331.8,466.7h-1.5v-0.9c-0.2,0.3-0.5,0.6-0.9,0.7c-0.3,0.2-0.7,0.2-1,0.2c-0.7,0-1.3-0.3-1.8-0.8
			c-0.5-0.5-0.7-1.3-0.7-2.2c0-1,0.2-1.7,0.7-2.2c0.5-0.5,1.1-0.8,1.8-0.8c0.7,0,1.2,0.3,1.7,0.8v-2.9h1.6V466.7z M327.6,463.7
			c0,0.6,0.1,1.1,0.3,1.3c0.3,0.4,0.6,0.6,1.1,0.6c0.4,0,0.7-0.2,0.9-0.4c0.3-0.3,0.4-0.7,0.4-1.3c0-0.7-0.1-1.1-0.4-1.4
			c-0.2-0.3-0.6-0.4-0.9-0.4c-0.4,0-0.7,0.1-0.9,0.4C327.7,462.7,327.6,463.1,327.6,463.7z"/>
		<path fill="#333333" d="M336,466.7v-8h1.6v2.9c0.5-0.5,1.1-0.8,1.7-0.8c0.7,0,1.3,0.3,1.8,0.8c0.5,0.5,0.7,1.2,0.7,2.2
			c0,1-0.2,1.8-0.7,2.3c-0.5,0.5-1.1,0.8-1.8,0.8c-0.3,0-0.7-0.1-1-0.2c-0.3-0.2-0.6-0.4-0.9-0.7v0.9H336z M337.6,463.7
			c0,0.6,0.1,1,0.3,1.3c0.3,0.4,0.6,0.6,1.1,0.6c0.3,0,0.6-0.1,0.9-0.4s0.4-0.7,0.4-1.4c0-0.7-0.1-1.1-0.4-1.4
			c-0.2-0.3-0.6-0.4-0.9-0.4c-0.4,0-0.7,0.1-0.9,0.4S337.6,463.1,337.6,463.7z"/>
		<path fill="#333333" d="M348,460.4c-0.4,0-0.7,0.2-0.9,0.5h-0.5l-1.4,4.1l-1.4-4.1h-1.7l2.3,5.8c-0.1,0.3-0.2,0.6-0.4,0.8
			c-0.2,0.2-0.4,0.3-0.8,0.3c-0.2,0-0.4,0-0.7-0.1l0.1,1.2c0.3,0.1,0.6,0.1,0.9,0.1c0.3,0,0.6,0,0.8-0.1c0.2-0.1,0.4-0.1,0.6-0.3
			s0.3-0.3,0.4-0.4c0.1-0.2,0.3-0.4,0.4-0.8l0.4-1l1.5-4c0.1,0,0.2,0.1,0.3,0.1C349.4,462.6,349.4,460.4,348,460.4z"/>
	</g>
</g>
<g>
	<path fill="#D1B5B5" d="M247.6,263.7c-1.6-12.6-3.5-26.2,0.1-38.7c0.1-0.4-0.1-0.9-0.5-1.1c-12.2-8-10.7,21.9-10.5,26.8
		c0.2,6.3,0.7,12.6,1.1,18.9c0.5,9.1,0.9,19.2-5.6,26.4c-3.1,3.5-7.1,6-10,9.4c0-0.1-0.1-0.3-0.3-0.4c-10.6-9.6-26.4-13.1-40.2-14.8
		c-13.7-1.7-30.2-1.7-42.5,5.5c0.7-6.2,0.5-12.3-0.3-17.7c-0.1-6.3-1-12.5-0.7-18.8c0-1-1.4-1.4-1.9-0.5c-1.9,3.6-3.4,7.4-5.1,11.1
		c-1.6,3.6-3.5,9.4-7.1,11.6c-0.1,0.1-0.2,0.1-0.2,0.2c-8.9-8.8-23.5-8-34.7-4.6c-2.9-7.8-6-15.5-10.2-22.8
		c-0.4-0.7-1.7-0.6-1.8,0.2c-0.9,5.1-0.5,10.3-0.3,15.5c0.1,3,0.6,7.4,0.1,11.1c-0.1,0.1-0.2,0.3-0.3,0.5c-0.3,1.1-0.5,2.1-0.8,3.2
		c-0.2,0.4-0.4,0.7-0.6,1.1c-0.3,0.5-0.2,0.9,0.2,1.2c-1.8,9.4-1.5,19.2,2.9,27.9c5.5,11,18.1,16.1,29.9,16.4c2.1,0.1,4.1-0.1,6-0.4
		c18.8,6.2,16.1,34.2,15.5,50.1c-3,0.6-7.3,3.3-4.4,6.8c3,3.7,9.5,4.2,13.2,1.4c0.9-0.7,1.4-1.7,1.7-2.7c2.6,4.2,7.3,3.9,9.8-0.7
		c4.8-8.9,1.8-20.8,2.5-30.8c0.5-1.5,0.9-3.5,0.3-4.9c15.5,7.2,35.2,9.5,51.5,3.3c0.6,10.6-0.9,21.2-1.5,31.8
		c-3.2-0.6-8.5-0.5-8.2,3.5c0.3,4,8.3,6.5,11.4,4.6c1.4-0.8,2.5-1.9,3.3-3.2c5.6,6.6,11-3.1,13-8.9c1.8-5.4,1.9-11.7,2.3-17.3
		c0.3-5.6,0.4-11.2-0.3-16.8c0.8-1.8,2.4-4.8,2.8-5.7c1.4-3.1,2.9-6.2,4.1-9.5c1.9-4.9,1.1-10.3,2.6-15.3
		c1.9-6.3,8.1-11.5,11.1-17.4C250.3,288.2,249.1,275.4,247.6,263.7z"/>
	<path fill="#333333" d="M94.4,291.8c-1.8,2.6-4.8,2.3-6.5-0.2c-0.7-1.1-2.4-0.1-1.7,1c2.6,3.9,7.3,4.1,10,0.2
		C96.9,291.7,95.1,290.7,94.4,291.8z"/>
	<path fill="#333333" d="M122.4,292.8c-1.8,2.6-4.8,2.3-6.5-0.2c-0.7-1.1-2.4-0.1-1.7,1c2.6,3.9,7.3,4.1,10,0.2
		C124.8,292.8,123.1,291.8,122.4,292.8z"/>
	<path fill="#333333" d="M108.6,313.3c-0.7,2.2-3.9,1.2-4.5-0.6c0.8-2,0.6-4.4,0.5-6.6c0,0,0.1,0,0.1-0.1c1.1-1.2,2.1-2.6,2.9-4
		c0.3-0.5,0-1.4-0.6-1.5c-2.2-0.3-4.3-0.9-6.5-0.5c-0.5,0.1-0.9,0.7-0.7,1.2c0.6,1.6,1.5,3,2.4,4.5c0.1,0.2,0.3,0.3,0.4,0.4
		c0.1,1.6,0.2,3.3-0.1,4.9c0,0.1,0,0.2-0.1,0.3c-0.2,0.2-0.4,0.4-0.4,0.8c0,0,0,0.1,0,0.1c-0.9,1.6-2.9,3.2-3.5,0.8
		c-0.3-1.2-2.2-0.7-1.9,0.5c0.8,3.3,3.9,3.2,6.1,1.1c0,0,0.1-0.1,0.1-0.1c1.9,2.5,6.5,2.8,7.7-0.8
		C110.9,312.7,109,312.1,108.6,313.3z"/>
	<path fill="#333333" d="M120.8,308.4c-0.4-0.3-5.3-2.4-5.3-1.9c0-1-1.5-1.3-1.9-0.5c-0.5,0.1-1,0.6-0.8,1.2c0,0.1,0.1,0.3,0.1,0.4
		c0.1,0.5,0.5,0.7,1,0.7c0.3,0,0.6-0.1,0.8-0.2c0.5,0.2,1.2,0.3,1.7,0.4c2.6,0.5,5.4,2.4,5.9,5.2c0.2,1.3,2.2,0.7,1.9-0.5
		C123.9,311.2,122.4,309.7,120.8,308.4z"/>
	<path fill="#333333" d="M119,313.5c-0.9-0.9-2.4-1.8-3.7-2.1c-0.3-0.4-0.7-0.6-1.3-0.3c-0.2,0.1-0.3,0.2-0.4,0.3
		c-0.1,0-0.1,0.1-0.2,0.2c0,0,0,0,0,0c0,0.1-0.1,0.1-0.1,0.2c0,0.1-0.1,0.3-0.1,0.5c0,0.4,0.2,0.7,0.5,0.9c0.3,0.2,0.6,0.2,1,0.3
		c0.2,0,0.3,0,0.4-0.1c0.8,0.3,1.6,0.8,2.1,1.3c1.1,0.9,1.8,2.1,1.7,3.6c-0.1,1.3,1.9,1.3,2,0C121.1,316.4,120.3,314.8,119,313.5z"
		/>
	<path fill="#333333" d="M94.3,305.9c0-0.1,0-0.1,0-0.2c0.1-0.8-0.6-1.6-1.4-1.1c-0.1,0.1-0.1,0.1-0.2,0.2c-0.1,0-0.2,0.1-0.3,0.2
		c-5.1-0.3-12.1-0.5-14.4,5c-0.5,1.2,1.4,1.7,1.9,0.5c1.8-4.3,8.5-3.8,12.6-3.6c0,0,0,0,0,0c0.5,0.5,1.2,0.8,1.8,0.2
		C94.5,306.9,94.4,306.4,94.3,305.9z"/>
	<path fill="#333333" d="M92.5,309h-0.8c-0.2,0-0.5,0.1-0.6,0.2c-3.2,0-6.2,0.2-8,3.3c-0.7,1.1,1.1,2.1,1.7,1c1.5-2.6,4.3-2.3,7-2.3
		c0.4,0.3,1.1,0.3,1.4-0.3c0.1-0.2,0.2-0.4,0.2-0.7C93.7,309.7,93.2,309,92.5,309z"/>
	<path fill="#333333" d="M142.2,350c-0.2-1.3-2.2-0.7-1.9,0.5c1.9,10.2,1.5,20.6,1.5,31c0,1.3,2,1.3,2,0
		C143.8,371,144.2,360.4,142.2,350z"/>
	<path fill="#333333" d="M212.7,368c-0.3-1.2-2.3-0.7-1.9,0.5c1.5,5.8,1.8,13.9-1.9,19c-0.8,1,1,2,1.7,1
		C214.7,383.1,214.4,374.3,212.7,368z"/>
</g>
<g>
	<path fill="#E08F13" d="M405.9,197.8c-9.4-9.1-9.2-24.4-11.7-36.4c10.1-13.2,6.8-35.4,0.1-49.2c-0.4-0.8-1.6-0.5-1.8,0.2
		c-1.4,5.1-3.1,10.1-5.5,14.8c-5.3-7-19.6-6.2-26.9-2.5c-1.8-5.2-4.9-10.1-7.8-14.5c-0.4-0.6-1.4-0.7-1.7,0
		c-4.8,9.3-5.8,20.5-4.4,31c-4-4.3-8.9-7.8-14-10.8c-11.3-6.8-24.3-10.4-29.5-23.8c-4.6-12-11.5-24.1-9.5-37.3
		c0.6-4.4,3.5-14.5-1.2-17.6c-4.7-3-8.2,5.7-8.5,8.7c-1,8.2,0.9,16.7,2.9,24.6c2.7,10.8,6.4,21.4,9.5,32.1
		c2.2,7.6,1.5,14.7-0.5,22.3c-1,3.7,1.3,44.5,17.7,41.7c0.4-0.1,0.8-0.6,0.7-1c-0.3-5.7-3-10.8-5.4-15.8c-1.2-2.5-1.9-5.1-2.6-7.6
		c3.3,6.9,7.6,13.4,13,18.6c6.6,6.4,17,13.1,26.6,10.4c0,7,1.5,14.1,3.5,20.7c1.6,5.3,4.3,12.4,10.1,14.3c4.8,1.6,4.7-6.9,4.6-9.4
		c-0.5-7.1-7-13.9-7.5-20.9c7,8.8,27.7,7.9,33-2.1c2,3.9,3.1,8.3,5.5,12.1c2.5,4,5.7,7.7,9.4,10.6c2.5,2,12.4,5.9,12.5-0.4
		C416.8,205.8,409.1,200.8,405.9,197.8z"/>
	<path fill="#333333" d="M366,137.7c-1.3,2.5-4.8,2.1-5.9-0.3c-0.5-1.2-2.3-0.2-1.7,1c1.7,3.8,7.5,4.1,9.4,0.3
		C368.3,137.5,366.6,136.5,366,137.7z"/>
	<path fill="#333333" d="M390.1,137.7c-1.3,2.5-4.8,2.1-5.9-0.3c-0.5-1.2-2.3-0.2-1.7,1c1.7,3.8,7.5,4.1,9.4,0.3
		C392.4,137.5,390.7,136.5,390.1,137.7z"/>
	<path fill="#333333" d="M366.9,122.7c-0.1,0-0.3,0-0.5,0c-0.7,0.1-1.4,0.2-2.1,0.6c0,0,0,0,0,0c-1.6-0.1-0.8,2-0.5,2.7
		c0.5,1.3,1.2,2.5,1.9,3.7c0.5,0.9,1.8,0.4,1.9-0.5c0.2-1.8,0.3-3.7,0.5-5.5C368.1,123,367.5,122.7,366.9,122.7z"/>
	<path fill="#333333" d="M375.1,122.4c0,0-0.1,0-0.1,0c-0.1-0.3-0.4-0.5-0.9-0.5h-1.2c-0.3,0-0.5,0.1-0.7,0.3
		c-0.6-0.3-1.7,0.2-1.5,1.2c0.4,1.9,1,3.8,1.5,5.7c0.2,0.8,1.4,1,1.8,0.2c1-1.7,1.5-3.7,1.9-5.6C376.1,123,375.7,122.3,375.1,122.4z
		"/>
	<path fill="#333333" d="M382,123.9c-0.3-0.9-1.3-1.2-2.3-1.2c-0.5,0-0.9,0.4-1,0.9c-0.1,0.2-0.2,0.4-0.1,0.7
		c0.2,1.4,0.8,2.8,0.8,4.2c0,1.1,1.3,1.3,1.9,0.5c0.9-1.2,1.1-2.8,1.1-4.3C382.4,124.3,382.2,124.1,382,123.9z"/>
	<path fill="#333333" d="M353.3,154c-2.8-3.3-3.8-7.5-5.2-11.6c-0.4-1.2-2.4-0.7-1.9,0.5c1.6,4.4,2.7,8.8,5.8,12.4
		C352.7,156.4,354.1,155,353.3,154z"/>
	<path fill="#333333" d="M361.9,214c-1.9-0.8-3.7-0.4-5.7-0.3c-1.3,0-1.3,2,0,2c0.1,0,0.2,0,0.3,0c-0.1,0.3-0.2,0.6-0.1,0.8
		c-0.2,0.6,0.2,1.4,0.9,1.4c0.4,0,0.8-0.1,1.2-0.1c0.1,0,0.2,0,0.2,0c0.2,0.3,0.6,0.4,1,0.3c0.6-0.2,1.2-0.2,1.7-0.6
		c0.6-0.4,0.6-1.2,0.2-1.6C362.4,215.4,362.8,214.4,361.9,214z"/>
	<path fill="#333333" d="M414.8,209.7c0.1-0.4,0-0.8-0.3-1.1c0-0.6-0.5-1.3-1.2-1.1c-0.1,0-0.2,0.1-0.2,0.1c0,0,0,0,0,0
		c-0.1,0-0.1,0.1-0.2,0.1c-0.8,0.3-1.5,0.8-2.1,1.3c-0.3,0-0.5,0.2-0.7,0.5c-0.1,0.1-0.2,0.3-0.2,0.5c-0.2,0.2-0.3,0.3-0.5,0.5
		c-0.6,0.8,0.2,1.5,1,1.4c0.1,0,0.2,0,0.3,0c0.3,0.2,0.7,0.3,1.1,0.1c0,0,0.1,0,0.1-0.1c0.2,0.6,0.8,1,1.4,0.6c0.6-0.4,1-1,1.5-1.5
		C415.1,210.7,415.1,210.1,414.8,209.7z"/>
	<path fill="#333333" d="M311.2,176.8c0.9-0.4,0.9-2.1-0.3-1.9c-0.1,0-0.2,0-0.3,0c0,0,0,0,0,0c0,0,0,0,0,0c-1.5,0.2-2.9,0.7-4.3,1
		c-1,0.2-0.8,1.6,0,1.9c0.2,0.5,0.7,0.8,1.2,0.7c0.2,0,0.3-0.1,0.5-0.1c0.1,0.1,0.3,0.2,0.5,0.3c0,0,0,0,0,0
		c0.2,0.1,0.3,0.2,0.6,0.2c0.7,0,1.4,0,2.1-0.2C312.2,178.4,312,177.1,311.2,176.8z"/>
	<path fill="#333333" d="M379.6,151.6c-0.4,1.1-2.5,0.1-3-0.4c-0.4-0.4-0.6-0.9-0.7-1.4c0.2-0.1,0.4-0.2,0.5-0.4
		c0.5-0.9,1-1.9,1.4-2.9c0.3-0.7-0.4-1.2-1-1.3c-1.4-0.2-2.7-0.1-4,0.5c-0.4,0.2-0.6,0.8-0.5,1.1c0.4,0.9,0.8,1.8,1.3,2.6
		c0,0.1,0,0.2,0,0.3c0.1,1.1-0.4,2.1-1.1,2.9c-0.7,0.9-1.5,1-2-0.1c-0.5-1.2-2.4-0.7-1.9,0.5c0.8,1.9,2.4,3,4.4,1.8
		c0.8-0.5,1.5-1.3,2-2.3c0.4,0.4,0.9,0.8,1.4,1c1.8,0.9,4.3,0.8,5-1.4C381.9,150.9,380,150.4,379.6,151.6z"/>
	<path fill="#333333" d="M394.2,149.3c-3-1.3-5.5-1.2-8.6-0.4c-1.2,0.3-0.7,2.3,0.5,1.9c2.5-0.7,4.6-0.8,7.1,0.2
		C394.4,151.5,395.4,149.8,394.2,149.3z"/>
	<path fill="#333333" d="M394.8,156.3c-1.1-1.2-2.2-2.5-3.6-3.4c-1.5-1-3.3-1.2-5-1.2c-1.3,0-1.3,2,0,2c3.3,0.1,5,1.7,7.1,4
		C394.2,158.7,395.6,157.3,394.8,156.3z"/>
	<path fill="#333333" d="M364.7,148.7c-3.3,1.5-5.9,3.1-7.5,6.5c-0.5,1.2,1.2,2.2,1.7,1c1.5-3.1,3.8-4.4,6.8-5.8
		C366.9,149.9,365.9,148.1,364.7,148.7z"/>
	<path fill="#333333" d="M363.9,152.5c-2.5,1.4-4.4,4.1-4.3,7c0,1.3,2,1.3,2,0c-0.1-2.3,1.4-4.2,3.3-5.3
		C366,153.6,365,151.8,363.9,152.5z"/>
	<path fill="#333333" d="M370,178.8c-0.6-2.5-1.5-4.8-2.3-7.2c0.1-0.1,0.1-0.3,0.1-0.5c0-0.5-0.2-0.8-0.5-1.2
		c-0.1-0.1-0.2-0.2-0.3-0.2c-0.5-1-2.2-0.5-1.8,0.7c0.9,3,2.1,5.9,2.8,9C368.4,180.5,370.3,180,370,178.8z"/>
	<path fill="#333333" d="M378,177.9c-0.9-2.8-1.9-5.6-1.8-8.6c0-1.3-2-1.3-2,0c-0.1,3.2,0.9,6.1,1.9,9.1
		C376.5,179.7,378.4,179.2,378,177.9z"/>
	<path fill="#333333" d="M383.4,168.9c-0.5,3.3-0.5,6.6-0.9,9.9c-0.1,1.3,1.9,1.3,2,0c0.3-3.1,0.3-6.3,0.8-9.4
		C385.5,168.2,383.6,167.6,383.4,168.9z"/>
	<path fill="#333333" d="M292.8,59c0.2-0.2,0.4-0.4,0.4-0.7c0.6-0.1,1.2-0.9,0.8-1.7c0-0.3,0-0.5-0.2-0.8c-0.5-0.7-1.1-1.3-1.7-2
		c-0.4-0.5-1.1-0.3-1.4,0.1c-0.2-0.1-0.4-0.3-0.6-0.4c-0.8-0.6-1.7,0-1.7,0.8c-0.6,0-1.2,0.7-0.9,1.5c0,0.1,0.1,0.1,0.1,0.2
		c-0.1,0.1-0.1,0.3-0.1,0.4c-0.2,0.1-0.4,0.2-0.5,0.4c-0.6-0.1-1.1,0.5-1.1,1.1c-0.6,0.2-1,0.8-0.6,1.4c0,0,0,0,0,0
		c-0.2,0.3-0.4,0.7-0.2,1.1c0.2,0.5,0.4,0.9,0.7,1.3c0.5,2.3,4.4,4.2,6.1,4.8c1.2,0.5,1.7-1.5,0.5-1.9c-0.2-0.1-0.3-0.2-0.5-0.2
		c0.3-0.3,0.4-0.7,0.3-1.2c0.1-0.2,0.2-0.4,0.1-0.6c0.4-0.2,0.6-0.6,0.5-1.1c-0.2-0.5-0.3-1-0.5-1.5C292.6,59.7,292.9,59.4,292.8,59
		z"/>
</g>
<g>
	<path fill="#C4C5C7" d="M195,144.2c-10.1-12.3-30.8-16.7-44.3-7.8c-0.2-6.4-1.1-12.8-2.5-19.4c-0.2-0.8-1.1-1.3-1.8-0.6
		c-3.1,3.5-5.7,7.4-7.5,11.7c-3.5-4.3-11.3-5.8-16-6.5c-4.2-0.6-12.7-1.1-15.4,3.3c-2.4-4.3-4.8-8.5-7.6-12.4
		c-0.6-0.9-1.8-0.3-1.8,0.7c0,15.8-4.3,32.8,5.7,46.7c0.5,0.7,1,1.3,1.6,1.9c-5.1,5.2-10.8,9.8-15.5,15.4
		c-3.4,4.1-8.9,11.5-5.4,17.1c3.9,6.2,9.1,2.4,12.1-2.5c2.2-3.7,3.9-7.6,6.9-10.8c3.4-3.6,7.4-6.8,8.4-11.9c0-0.2,0-0.4,0-0.5
		c0.3-0.5,0.6-1.1,0.9-1.7c4.7,2.2,10.2,2.9,15.6,2.8c0.1,0,0.2,0,0.3,0.1c-5.8,2.9-14.9,4.4-17.8,10.4c-2.1,4.3-0.2,7.9,4.4,8.8
		c5.5,1,12.2-2.8,16.6-5.7c4.5-3,8.8-7.4,9.9-12.9c3.5,3,8.6,4,12.9,5c8,1.9,16.3,2.9,24.6,3.1c6.1,0.2,12.4,0.2,17.2-4.2
		c3.7-3.4,4.7-8.7,4.8-13.6c0-3-0.5-5.9-1.4-8.6c7.8-1.4,16.7,1,19.6,9.1c1.8,4.9,0.7,9-3.9,11.5c-2.5,1.3-5.2,1.8-7.5,3.5
		c-3.2,2.4-0.8,5.8,2.3,6.6c5.3,1.4,11.3-2.2,14.8-6C242,158.8,213.9,135.5,195,144.2z"/>
	<path fill="#333333" d="M115,138.9c-0.6,2.9-5.6,2.5-5.7-0.5c-0.1-1.3-2.1-1.4-2-0.1c0.2,5.1,8.5,6.4,9.6,1.2
		C117.1,138.2,115.2,137.6,115,138.9z"/>
	<path fill="#333333" d="M136.4,140c-0.6,2.9-5.5,2.5-5.7-0.4c-0.1-1.3-2.1-1.3-2-0.1c0.3,5.1,8.6,6.3,9.6,1
		C138.5,139.3,136.6,138.7,136.4,140z"/>
	<path fill="#333333" d="M104.9,124c-1.4-1.3-1.8-3.2-3.3-4.6c-0.2-0.2-0.4-0.2-0.6-0.2c-0.6-0.3-1.3-0.1-1.3,0.7
		c-0.2,2.5-0.9,4.9-0.7,7.4c0.1,0.9,1.2,1.2,1.8,0.6c1-1.1,2.5-1.5,3.9-2.1C105.4,125.4,105.5,124.5,104.9,124z"/>
	<path fill="#333333" d="M146.1,122.3c-1.6,1.3-2.7,3-3.8,4.8c-0.6,0.2-1,1.1-0.3,1.7c1.4,1.2,2.8,2.4,4.2,3.6
		c0.7,0.6,1.7,0,1.6-0.9c-0.2-2.8-0.3-5.5-0.1-8.3C147.7,122.5,146.8,121.7,146.1,122.3z"/>
	<path fill="#333333" d="M124.1,147.4c-1.3-1.3-3.3-1.4-4.9-0.8c-0.5,0.2-0.8,0.8-0.6,1.3c0.4,0.8,0.9,1.6,1,2.5
		c0,0.1,0.1,0.2,0.1,0.3c-0.2,0.3-0.2,0.5-0.1,0.8c-0.2,0.6-0.3,1.1-0.6,1.6c-0.1,0.2-0.2,0.4-0.3,0.7c-0.1,0.1-0.3,0.3-0.1,0.2
		c-0.6,0.3-0.8,0.2-0.8-0.5c0-1.3-2-1.1-2,0.2c0,2,2.1,3.1,3.7,2.1c0.2,0.6,0.5,1.1,1.1,1.4c1,0.4,2-0.1,2.8-0.6
		c1.1-0.7-0.1-2.3-1.2-1.6c-0.3,0.2-0.5,0.3-0.8,0.4c0,0,0,0,0,0c-0.1-0.1-0.1-0.6-0.1-0.8c0-0.9,0.2-2,0.5-2.8
		c0.1-0.2,0.1-0.3,0.1-0.5c0.7-0.8,1.5-1.5,2.2-2.4C124.6,148.3,124.5,147.8,124.1,147.4z"/>
	<path fill="#333333" d="M111.5,152.9c-1.4-0.7-2.9-1.5-4.1-2.7c-1-0.9-2.2,0.7-1.3,1.5c0.7,0.6,1.5,1.2,2.3,1.7
		c-1.7,0.7-3.1,1.7-4.7,2.6c-1.1,0.7,0.1,2.3,1.2,1.6c2-1.2,3.9-2.6,6.3-2.9C112.2,154.6,112.4,153.3,111.5,152.9z"/>
	<path fill="#333333" d="M132.9,152.8c-1.4,0.1-2.8,0.5-4.2,0.9c-0.4,0.1-0.6,0.5-0.6,0.8c-0.6,0.3-1,1.1-0.3,1.6
		c1.3,0.9,2.4,2,3.2,3.4c0.6,1.1,2.3-0.1,1.6-1.2c-0.7-1.1-1.5-2.1-2.5-2.9c1-0.3,2-0.5,3-0.6C134.4,154.7,134.2,152.7,132.9,152.8z
		"/>
	<path fill="#333333" d="M200.9,143.8c-0.6,0.7,0,1.5,0.6,1.6c0.1,0.2,0.2,0.4,0.3,0.6c0.2,0.6,0.4,1.1,0.5,1.7
		c0.3,1,0.6,2.1,0.6,3.1c0,1.3,2,1.1,2-0.2C204.9,149.4,203.2,141.1,200.9,143.8z"/>
	<path fill="#333333" d="M212.5,144.2c-0.7-1.1-2.3,0.1-1.6,1.2c1.3,2,1.9,4.5,0.4,6.6c-0.7,1,0.8,2.3,1.5,1.3
		C214.9,150.4,214.4,147.1,212.5,144.2z"/>
	<path fill="#333333" d="M221.5,152.8c0.1,1.7-2,3.5-3.6,3.4c-1.3-0.1-1.6,1.9-0.4,2c3,0.3,6.1-2.5,6-5.5
		C223.4,151.3,221.4,151.5,221.5,152.8z"/>
	<path fill="#333333" d="M228.1,162.1c-1.2,2.7-4.9,2.2-7.2,1.9c-1.3-0.2-1.6,1.8-0.4,2c3.3,0.5,7.8,0.6,9.4-3
		C230.5,161.7,228.7,160.9,228.1,162.1z"/>
	<path fill="#333333" d="M222.8,174.3c-1.9,0.3-3.8-0.1-5.1-1.5c-0.9-0.9-2.5,0.2-1.6,1.2c1.9,2,4.2,2.8,6.9,2.4
		C224.2,176.1,224,174.1,222.8,174.3z"/>
	<path fill="#333333" d="M215.7,180c-1.8-0.2-3.7-1.4-4.1-3.3c-0.2-1.3-2.2-1.1-2,0.2c0.5,2.7,2.9,4.9,5.7,5.1
		C216.6,182.1,217,180.1,215.7,180z"/>
	<path fill="#333333" d="M157.4,135.2c-0.5-1.2-2.3-0.5-1.9,0.7c4.1,10.9,6.9,24,0,34.3c-0.7,1.1,0.8,2.4,1.5,1.3
		C164.4,160.5,161.8,146.9,157.4,135.2z"/>
	<path fill="#333333" d="M170.5,144.3c-0.9-3.5-2.7-6.7-3.6-10.2c-0.3-1.2-2.2-0.5-1.9,0.7c1.4,5.8,4,10.6,4.5,16.7
		c0.6,6.5-0.5,13.4-3.7,19.1c-0.6,1.1,1.2,2,1.8,0.9c2.9-5.2,3.9-11,4-16.9C171.7,151.1,171.3,147.5,170.5,144.3z"/>
	<path fill="#333333" d="M175.5,135.5c-0.6-1.1-2.5-0.4-1.9,0.7c3.2,6.2,5.9,12.2,6.4,19.2c0.4,6,1.1,13.3-3.6,17.9
		c-0.9,0.9,0.6,2.2,1.5,1.3c4.3-4.1,4.5-10.3,4.3-15.9C181.9,150,179.5,143.1,175.5,135.5z"/>
	<path fill="#333333" d="M187,141.7c-0.8-1-2.4,0.2-1.6,1.2c6.8,8.4,7.1,20,1.8,29.3c-0.6,1.1,1.2,2,1.8,0.8
		C194.7,163.1,194.2,150.6,187,141.7z"/>
	<path fill="#333333" d="M92.5,191c-0.9-2.2-3-3.9-5.3-4.4c-1.3-0.3-1.6,1.7-0.4,2c1.6,0.3,3.1,1.6,3.8,3.1
		C91.1,192.9,93,192.2,92.5,191z"/>
	<path fill="#333333" d="M97.7,185.5c-1.1-3.3-3.9-5.4-6.9-6.8c-1.2-0.5-2,1.3-0.8,1.8c2.6,1.2,5,2.9,5.9,5.7
		C96.3,187.4,98.1,186.7,97.7,185.5z"/>
	<path fill="#333333" d="M104.2,177.9c-1.2-2.6-3.5-4.6-6.2-5.5c-1.2-0.4-1.6,1.6-0.4,2c2,0.6,3.9,2.3,4.7,4.2
		C102.9,179.8,104.7,179.1,104.2,177.9z"/>
	<path fill="#333333" d="M116.4,178.4c-1.1-0.7-1.9,1.2-0.9,1.8c2,1.2,2.7,3.7,3.2,5.8c0.3,1.2,2.2,0.5,1.9-0.7
		C120,182.6,118.8,179.8,116.4,178.4z"/>
	<path fill="#333333" d="M124.9,174.4c-1-0.8-2.3,0.7-1.3,1.5c1.9,1.5,3.5,3.4,3.9,5.8c0.2,1.3,2.2,1.1,2-0.2
		C129,178.6,127.2,176.2,124.9,174.4z"/>
	<path fill="#333333" d="M135.6,173.9c-1.2-1.3-2.9-2-4.5-2.7c-1.2-0.5-2,1.3-0.9,1.8c1.2,0.5,2.4,1.1,3.5,1.9
		c1.2,0.9,1.6,2.4,1.7,3.8c0.1,1.3,2.1,1.1,2-0.2C137.3,176.8,136.8,175.1,135.6,173.9z"/>
	<path fill="#333333" d="M148.3,144.9c-0.2-1.3-2.2-1.1-2,0.2c1.2,6.6-1,13.1-6.1,17.4c-1,0.8,0.2,2.5,1.2,1.6
		C147,159.3,149.7,152.2,148.3,144.9z"/>
</g>
<g>
	<path fill="#EDDCD2" d="M588.8,101.3c-6-7.6-19-11.1-18.8-22.4c0-2.3,0.3-4.7-1.7-6.3c-1.9-1.5-6.2,0.6-7.5,2.1
		c-5.5,6.7-0.3,15.5,5.1,20.3c4.1,3.8,9,6.4,12.9,10.5c5,5.2,6.1,11.6,5.8,18.3c-5.8-9.2-18.8-10.4-29.1-7
		c-2.4,0.8-16.3,7.2-20.4,11.7c-0.4-3-1.1-6-2.2-8.9c-0.3-0.8-1.3-0.8-1.8-0.4c-3.6,2.8-7.4,5.3-10.9,8.3c-3-3.8-7.1-5.3-12-5.9
		c-2.8-0.3-5.7-0.2-8.6-0.3c-1.2,0-3,0.5-3.3-1.1c-0.5-2.6-0.9-5.2-1.1-7.8c-0.1-1.1-1.6-1.2-2.1-0.4c-9.5,12-9.2,36.9,2.3,47.3
		c0,6.5-1.1,12.8-2.5,19.1c-1,4.6-1.5,9.5-3.1,13.9c-1.7,4.7-6.6,0.3-8.3,3.9c-1.2,2.5-1,4.3,1.2,5.9c4,3.1,12.2,1,14.3-3.5
		c5-10.8,4.8-23.4,7.7-34.8c2.2,0.3,4.6,0.3,7.2-0.1c1.1-0.1,2.2-0.3,3.4-0.7c1.1-0.4,2.1-0.8,3-1.3c-1,6-0.5,12.5-1.2,18.5
		c-0.5,4.2-1,13.3-6.1,14.9c-1.6,0.5-3.5,2.5-4.1,4c-1.5,4.1,2.6,5.4,6,5.2c6.9-0.5,8.4-5.7,10.2-11.5c2.8-8.8,1.5-18.6,6.4-26.7
		c4.4-7.3,13.8-10.2,21.7-11.2c4.6-0.6,12.7-0.8,18.3,1.5c0,0.1-0.1,0.2,0,0.3c0.2,5.4-1.9,11-3.4,16.2c-0.6,2.2-1.2,4.3-1.7,6.5
		c-0.6,2.5-2.8,4.8-3.8,7.2c-2.9,6.7,5.9,5.5,10.2,4.3c-0.1,0.1-0.2,0.1-0.2,0.2c-0.7,0.6-1.8,1.7-2.6,1.8c-0.5,0.1-0.9,0.6-1,1.1
		c-0.5,6.7,7,6.3,11.1,3.1c2.8-2.1,3.1-4.4,3.5-7.7c0.7-7.2,2.6-14.3,4.4-21.2c1.6-6.2,3.1-12.1,3.4-18.5c0.4-7.5,0.2-14.4,2.6-21.7
		C595,118.6,595.3,109.5,588.8,101.3z"/>
	<path fill="#333333" d="M494.5,120.3c-0.6-1.2-0.8-2.5-1.2-3.8c-0.3-0.8-1.4-1.1-1.8-0.2c-0.7,1.2-0.9,2.6-1.4,3.9
		c-0.4,0.9,0.7,1.4,1.4,1.1c0.7,0.1,1.3,0.3,1.9,0.5C494.3,122.1,494.9,121.1,494.5,120.3z"/>
	<path fill="#333333" d="M530.2,123c-2.4,0.9-4.6,2.2-6.7,3.6c-0.3,0.2-0.4,0.4-0.5,0.7c-0.8,0.3-1,1.6,0,1.9
		c1.6,0.5,2.9,1.3,4.3,2.2c0.4,0.3,1.2,0.1,1.4-0.4c1-2.3,1.9-4.6,2.8-6.9C531.7,123.6,530.9,122.8,530.2,123z"/>
	<path fill="#333333" d="M499.1,134c-1,1.6-3.4-0.1-3.8-1.4c-0.4-1.2-2.3-0.7-1.9,0.5c1,3.1,5.5,5.1,7.5,1.9
		C501.5,133.9,499.8,132.9,499.1,134z"/>
	<path fill="#333333" d="M518.4,137.9c-0.3,1.3-3.1,0.4-3-0.9c0.1-1.3-1.9-1.3-2,0c-0.3,3.5,6.2,5.1,7,1.4
		C520.5,137.2,518.6,136.6,518.4,137.9z"/>
	<path fill="#333333" d="M505.6,145.4C505.6,145.4,505.7,145.4,505.6,145.4c0.8-0.5,1.4-1.2,2.1-1.8c0.4-0.4,0.4-1.1,0-1.4
		c-1.3-1.1-2.8-1.4-4.5-1.1c-0.6,0.1-1,1-0.6,1.5c0.1,0.1,0.2,0.2,0.2,0.3c0,0,0,0.1,0,0.1c0.1,0.7,0.2,1.2,0.5,1.6
		c-0.2,1-0.4,1.9-0.8,2.8c-0.3,0.6-1.2,1.6-1.7,1.2c1.2-0.4,0.7-2.3-0.5-1.9c-0.3,0.1-0.7,0.2-1,0.3c-0.4,0.1-0.8,0.5-0.7,1
		c0.3,2.7,2.5,3.4,4.6,1.8c0.5,1.4,2.1,1.8,3.5,1.5c1.3-0.3,0.7-2.2-0.5-1.9c-1,0.2-1.2-0.2-1.2-1.2
		C505,147.3,505.3,146.3,505.6,145.4C505.6,145.4,505.6,145.4,505.6,145.4z"/>
	<path fill="#333333" d="M495.5,146.8c-1.4-0.8-2.4-2-3.5-3.2c-0.9-1-2.3,0.4-1.4,1.4c0.8,0.9,1.5,1.7,2.4,2.4
		c-0.4,0.1-0.8,0.3-1.3,0.4c-1.2,0.4-0.7,2.3,0.5,1.9c1.1-0.4,2.2-0.7,3.2-1.3C496.2,148.2,496.1,147.2,495.5,146.8z"/>
	<path fill="#333333" d="M513.7,149.3c0.5-0.2,1-0.4,1.5-0.5c0.5-0.1,0.8-0.7,0.7-1.2c-0.2-0.6-0.7-0.8-1.2-0.7
		c-1,0.2-1.9,0.7-2.8,1c-0.3,0.1-0.4,0.3-0.5,0.4c-0.6,0.4-0.8,1.3,0,1.7c1.1,0.6,2,1.4,2.6,2.5c0.7,1.1,2.4,0.1,1.7-1
		C515.2,150.6,514.5,149.9,513.7,149.3z"/>
	<path fill="#333333" d="M573.4,168.2c-1,6.7,0,14.4-3.7,20.3c-0.7,1.1,1,2.1,1.7,1c3.9-6.1,2.9-13.9,3.9-20.7
		C575.5,167.5,573.6,167,573.4,168.2z"/>
	<path fill="#333333" d="M505.6,122c-0.8,1.2-1.6,2.5-1.6,4c0,1.3,2,1.3,2,0c0-1.1,0.8-2.1,1.4-3C508.1,121.9,506.3,120.9,505.6,122
		z"/>
	<path fill="#333333" d="M510.3,122.3c-1.6,1-1.9,2.8-2.2,4.5c-0.1,0.5,0.5,1,1,1c0.6,0,0.9-0.5,1-1c0.1-0.9,0.3-2.3,1.2-2.8
		C512.4,123.3,511.4,121.6,510.3,122.3z"/>
	<path fill="#333333" d="M547,128c-0.9-1-2.3,0.5-1.4,1.4c1.7,1.9,1.2,5.1,0.6,7.4c-0.3,1.2,1.6,1.8,1.9,0.5
		C548.9,134.2,549.3,130.5,547,128z"/>
	<path fill="#333333" d="M555.9,120.3c-0.7-1.1-2.5-0.1-1.7,1c2,2.9,3.5,6.3,2.2,9.7c-0.4,1.2,1.5,1.7,1.9,0.5
		C559.8,127.7,558.1,123.6,555.9,120.3z"/>
	<path fill="#333333" d="M570.2,119.6c-0.8-1-2.2,0.4-1.4,1.4c2.3,2.8,3.5,6.9,1.8,10.3c-0.6,1.1,1.1,2.2,1.7,1
		C574.5,128.1,573.1,123.1,570.2,119.6z"/>
</g>
<g>
	<path fill="#D9BA64" d="M600.5,375.8c-1.9-4.1-4.8-8.9-8.7-11.3c-6.5-4.1-14-4.8-21.4-6.3c2.7-8.4,3.8-17.3,2.4-25.4
		c-1.3-7.1-4.2-14.2-6.8-20.9c-1.4-3.7-3.3-7.9-6.8-10c7.5-10.6,2-27.5,2.1-39.9c0-1.1-1.6-1.7-2.2-0.6c-1.8,3.7-2.6,7.8-5.3,11.1
		c0,0,0,0,0,0c-6.4-7.3-21.1-8.7-29.2-3.6c-1.8-2.9-3.7-5.8-5.6-8.7c-0.5-0.8-1.9-0.8-2.1,0.3c-2.7,11.8-5.2,22.3-1.8,34.3
		c0.4,1.4,0.9,2.8,1.5,4.1c-0.4,0.3-0.6,0.9-0.4,1.5c0.8,1.7,1.7,3.2,2.9,4.5c-5,11.6-7.7,23.8-8.1,36.5c-0.4,12.3,5,22.6,9,33.9
		c0,0,0,0,0,0c-1.5,2-3,4.5-1.9,7c0.9,2,3.1,2.8,5.1,3.1c4.4,0.6,8.9-2.3,8.3-6.7c4.7,2.5,15.3,4,20.4,1c0,0.9,0.3,1.7,0.9,2.4
		c1.2,1.4,3.1,1.7,4.8,1.6c1.9-0.2,3.8-1,5-2.6c1.4-1.9,1.1-4.3,0-6.3c1.8-2.9,3.5-6,4.9-9.2c2.6,0.9,6,1,8.1,1.6
		c2.9,0.8,22.6,9.1,15,13.6c-2,1.2-4.8,2.3-5,5c-0.2,3.2,1.7,6.2,5.2,6.2C600.1,392.1,604.2,384,600.5,375.8z"/>
	<path fill="#333333" d="M523.1,268.5c-1.2-1.6-2.6-3-3.6-4.7c-0.6-1-2.2-0.6-2.2,0.6c0.1,1.7-0.5,3.4-0.7,5.1
		c-0.1,0.6,0.3,1,0.8,1.1c0.3,0.7,1.2,1.1,1.8,0.3c0.8-0.9,2.2-0.5,3.3-0.7C523.1,270.1,523.5,269,523.1,268.5z"/>
	<path fill="#333333" d="M560,268c0.1-1.4-1.8-1.4-2.3-0.3c-0.6,1.4-1.3,2.8-2.1,4.1c-0.4,0.6-0.1,1.3,0.4,1.6
		c0,0.1,0.1,0.2,0.2,0.3c0.8,0.9,1.9,1.3,3.2,1.4c0.6,0,1.2-0.6,1.2-1.2C560.4,271.9,559.9,270,560,268z"/>
	<path fill="#333333" d="M531.1,279.7c-0.3,2.1-3.9,2.3-4.9,0.6c-0.7-1.3-2.7-0.1-2,1.2c1.8,3.4,8.5,2.9,9.1-1.2
		C533.6,278.8,531.4,278.2,531.1,279.7z"/>
	<path fill="#333333" d="M551,279.1c-0.3,2.1-3.9,2.3-4.9,0.6c-0.7-1.3-2.7-0.1-2,1.2c1.8,3.4,8.5,2.9,9.1-1.2
		C553.5,278.3,551.2,277.6,551,279.1z"/>
	<path fill="#333333" d="M542.3,292.9c-1.5,1-2.6-1.9-3-3.5c0.1-0.1,0.2-0.2,0.3-0.3c0.3-0.5,0.8-0.7,1.3-0.9c1-0.4,1.2-2,0-2.2
		c-1.6-0.3-3.1-0.7-4.7-0.9c-1-0.1-1.3,1.1-1,1.8c0.4,0.9,0.9,1.8,1.6,2.4c0,0.1,0,0.1,0,0.2c0,0.1,0,0.2,0.1,0.3c0,0.7,0.1,1.3,0,2
		c-0.1,0.6-1.3,2.5-1.7,1.2c-0.5-1.4-2.7-0.8-2.3,0.6c0.7,2.2,2.9,2.7,4.7,1.4c0.5-0.3,0.8-0.7,1-1.2c1.2,1.6,2.8,2.6,4.7,1.3
		C544.8,294,543.6,292,542.3,292.9z"/>
	<path fill="#333333" d="M559.2,288.8c-2.6-3-6.6-1-9.7-0.2c-1.4,0.4-0.8,2.7,0.6,2.3c2.2-0.6,5.6-2.5,7.5-0.4
		C558.6,291.6,560.2,289.9,559.2,288.8z"/>
	<path fill="#333333" d="M554.9,295.9c-0.4-1.1-1-1.9-1.9-2.6c-0.8-0.5-1.7-0.8-2.5-1.3c-1.3-0.8-2.5,1.3-1.2,2
		c1.2,0.7,2.9,1,3.4,2.5C553.1,297.9,555.3,297.3,554.9,295.9z"/>
	<path fill="#333333" d="M528,289.7c-1.9-2.3-5.1-3-7.8-1.6c-1.4,0.7-0.2,2.7,1.2,2c1.8-0.9,3.8-0.2,5,1.3
		C527.3,292.5,528.9,290.8,528,289.7z"/>
	<path fill="#333333" d="M527,292.5c-2.4-1-4.5,0.7-5.8,2.6c-0.9,1.2,1.1,2.4,2,1.2c0.8-1.1,1.8-2.1,3.2-1.5
		C527.8,295.3,528.4,293,527,292.5z"/>
	<path fill="#333333" d="M532.9,268.3c0.5-0.3,0.6-1.1,0.3-1.5c-0.3-0.6-1-0.7-1.6-0.4c-1.7,0.8-1.2,3.9-0.8,5.3
		c0.4,1.5,2.6,0.8,2.3-0.6c-0.1-0.5-0.2-1.1-0.2-1.7c0-0.2,0-0.5,0-0.7C532.9,268.4,532.9,268.3,532.9,268.3z"/>
	<path fill="#333333" d="M541.6,267.2c0-1.5-2.4-1.5-2.3,0c0,1.2,0.4,2.3,0.4,3.5c0,1.5,2.4,1.5,2.3,0
		C542,269.5,541.6,268.3,541.6,267.2z"/>
	<path fill="#333333" d="M580.2,362.4c-0.7-0.2-1.2,0.2-1.4,0.8c-0.3,0.7-0.9,1.7-1.8,1.5c-0.6-0.1-1.3,0.2-1.4,0.8
		c-0.2,0.6,0.2,1.3,0.8,1.4c2.3,0.4,3.8-1.2,4.6-3.2C581.2,363.2,580.7,362.5,580.2,362.4z"/>
	<path fill="#333333" d="M589.8,365.8c-0.1,1.9-1.5,3.2-2.9,4.2c-1.2,0.8-0.1,2.9,1.2,2c2.2-1.5,4-3.5,4.1-6.3
		C592.2,364.3,589.8,364.3,589.8,365.8z"/>
	<path fill="#333333" d="M597.7,373.2c-1.2,1.4-2.9,2.2-4.4,3.3c-1.2,0.9,0,2.9,1.2,2c1.7-1.2,3.6-2.1,4.9-3.7
		C600.3,373.7,598.7,372,597.7,373.2z"/>
	<path fill="#333333" d="M597.6,386.6c-2.8,0.6-4.9-1.5-7-3.1c-1.2-0.9-2.4,1.1-1.2,2c2.7,2,5.2,4.1,8.8,3.3
		C599.7,388.5,599.1,386.3,597.6,386.6z"/>
	<path fill="#333333" d="M549.5,316.7c-3.1-4.8-9.2-6.3-14.1-3.3c-1.7,1.1-2.9,2.8-3.6,4.7c-0.7-0.2-1.5,0.2-1.6,1.1
		c-1,13.4-4.1,29.2,2.6,41.6c2.4,4.4,7.8,7.9,12.9,7.2c6.2-0.9,8.1-6.8,8.8-12.2C556.3,343.8,556.2,327,549.5,316.7z"/>
</g>
<g>
	<path fill="#676767" d="M465.6,351.2c0.3-13.3-8-24.1-19.7-27.5c-0.7-4.2-3.9-6.9-6.9-9.6c-2.3-2.1-4.5-4.1-5.8-7.1
		c-1.3-3.2-1.1-7.3-1.1-10.6c-0.1-4.3-2.3-21-10.4-15.6c-6.6,4.4,1,17.3,2.6,22.6c1.6,5.2,1.7,14.2-6.5,11.9
		c-4.9-1.3-7.2-8.7-8.6-12.9c-1.9-5.8-3.3-11.7-5.6-17.4c-1.4-3.4-4-10.7-8.8-10c-6.1,0.9-2.2,11-1.2,13.9
		c3.3,10.2,7,20.4,10.6,30.5c-13.4-7.6-29.3,2.9-43.6-0.6c-11.4-2.8-10.5-19.4-12.9-28.3c-1.1-4.1-3-8.3-6.7-10.5
		c-2.6-1.5-5.3-0.7-6.6,1.8c-1.8,3.2,1,7.3,2.5,9.9c3.6,6.2,6.7,14.3,7.7,21.4c0.3,2.4,0.2,4.9-0.3,7.2c-0.7,3.4-5.4,2.3-6.3-0.5
		c-0.4-1.2-0.6-2.4-0.9-3.6c-1.5-6.2-1.1-13.4-3.7-19.2c-2.1-4.8-6.5-12.9-12.2-14.1c-6.9-1.5-3.9,11.9-2.7,14.5
		c1.8,3.8,4,7.5,5.9,11.2c2.9,5.6,4.5,11.9,5.1,18.2c0.4,4.5,0.2,9.3-1.6,13.5c-2.1,4.8-7,8.5-11.1,11.5c-4.1,2.9-8.7,5.1-13.3,7.1
		c-4.3,1.9-9.9,3-13.5,6.1c-3.9,3.3-3.3,7.5,1.9,8.7c7.9,1.8,17.9-3.8,24.1-8c4.2-2.9,8.1-6.2,12.4-8.8c4.8-2.9,10.1-4.6,15.5-5.9
		c11.8-2.8,24.5-4.5,36.6-4c6.9,0.2,13.4,1.2,19.9,3.4c3.9,1.4,8.1,4.5,12.4,4.3c1.2,8.1,9.3,14.3,15.8,18.2
		c0.7,0.4,1.5-0.1,1.5-0.9c0-3.6,0.3-7.1,0.4-10.6c7.6,3.8,20.2,3.4,23.7-5.4c2.8,1.8,6,3.2,7.9,6c0.6,0.8,1.8,0.5,1.9-0.5
		c0.1-3.2,1-6.2,2-9.2C466.2,351.8,466,351.4,465.6,351.2z"/>
	<path fill="#333333" d="M436.1,348.8c-1.5-1-3.3-1-4.9-0.3c-1.3,0.5-2,2.3-0.4,3c0.9,0.4,1.7-0.6,1.5-1.3c0.1-0.1,0.3-0.1,0.4-0.1
		c0.9-0.2,1.7-0.1,2.5,0.4C436.2,351.3,437.2,349.5,436.1,348.8z"/>
	<path fill="#333333" d="M454.1,345.9c-1.4-1.8-3.4-2.5-5.7-2.2c-1.6,0.2-3.7,1.5-3.5,3.3c0.1,1.3,2.1,1.3,2,0
		c-0.1-0.8,1.2-1.2,1.8-1.3c1.3-0.4,2.8,0.1,3.7,1.2C453.2,347.9,454.9,346.9,454.1,345.9z"/>
	<path fill="#333333" d="M441.4,341.5c-0.6-0.8-1.2-1.6-1.9-2.3c0.1-0.4,0-0.8-0.5-1c-0.2-0.1-0.3-0.2-0.4-0.5
		c-0.1-0.2-0.2-0.5-0.3-0.9c-0.1-0.6-0.1-1.4,0.1-2c0.1-0.4,0.1-0.5,0.3-0.7c0,0,0.1,0.1,0.1,0.1c0.3,0.4,0.6,1,0.8,1.5
		c0.2,0.5,0.7,0.9,1.2,0.7c0.5-0.1,0.9-0.7,0.7-1.2c-0.5-1.2-1.1-2.7-2.4-3.1c-1.2-0.3-2,0.7-2.4,1.7c-0.1,0.3-0.2,0.6-0.3,1
		c-0.3-0.2-0.7-0.4-1.1-0.5c-2.3-0.8-4.3,0.8-4.7,3c-0.2,1.3,1.7,1.8,1.9,0.5c0.2-1.3,0.9-2,2.3-1.6c0.7,0.2,1.3,0.8,1.7,1.5
		c0,0.1,0,0.2,0,0.2c-0.1,0.1-0.2,0.2-0.2,0.4c-0.4,1.4-0.4,2.9-0.4,4.3c0,0.3,0.2,0.6,0.4,0.8c0.1,0.6,0.5,1.1,1.2,0.8
		c0.9-0.3,1.7-0.8,2.5-1.1c0,0,0,0,0,0c0,0,0,0,0,0C440.9,343.4,442.1,342.4,441.4,341.5z"/>
	<path fill="#333333" d="M452.5,337.4c-1.4-0.6-2.9-0.9-4.5-1.2c1-1.1,2.2-2.1,3.4-3c1-0.8,0-2.5-1-1.7c-1.5,1.1-3,2.3-4.2,3.8
		c-0.3,0.4-0.3,0.8-0.1,1.2c-0.4,0.5-0.3,1.3,0.5,1.5c1.8,0.3,3.6,0.7,5.3,1.3C453.2,339.8,453.7,337.9,452.5,337.4z"/>
	<path fill="#333333" d="M426.7,340.1c-0.1-0.1-0.3-0.3-0.5-0.3c-0.8-0.2-1.6-0.4-2.4-0.7c-0.4-0.1-0.8-0.3-1.2-0.4
		c-0.1,0-0.3-0.1-0.4-0.2c-0.1,0-0.1-0.1-0.2-0.1c-0.6-0.7-2.1-0.2-1.7,0.9c0.3,0.9,1.4,1.1,2.1,1.4c0.9,0.3,1.8,0.6,2.8,0.8
		c-1.5,1.9-2.7,4-4.1,6c-0.7,1.1,1,2.1,1.7,1c1.6-2.3,2.9-4.8,4.8-6.8C428.4,341,427.5,339.9,426.7,340.1z"/>
	<path fill="#333333" d="M432.6,322.7c-5.4,1.8-10.9,3.6-15.4,7.1c-5,3.9-6.1,9.9-5.3,15.8c0.2,1.3,2.2,1.3,2,0
		c-0.8-5.7,0.3-10.6,4.7-14.4c4-3.5,9.6-5,14.6-6.6C434.4,324.3,433.9,322.3,432.6,322.7z"/>
	<path fill="#333333" d="M425.1,360.4c-1.1-1.3-2.8-1.8-4.3-2.6c-0.4-0.2-0.7-0.1-1,0c-0.8-0.6-1.8,0.4-1.4,1.3
		c0.1,0.2,0.2,0.3,0.2,0.5c-0.1,0.3-0.1,0.6,0.1,0.9c1.3,2,3,3.7,4.8,5.2c0.8,0.7,1.9-0.2,1.7-0.9
		C425.9,363.4,426.2,361.7,425.1,360.4z"/>
	<path fill="#333333" d="M460.6,352.6C460.6,352.6,460.6,352.6,460.6,352.6c-0.9,0.9-1.8,1.6-2.7,2.4c-0.2,0.2-0.3,0.5-0.3,0.8
		c-0.1,0.3-0.1,0.6,0.3,0.9c0.7,0.6,1.9,0.7,2.5,1.5c0.5,0.6,1.6,0.7,1.8-0.2c0.4-1.7,0.4-3.5,0.4-5.3
		C462.6,351.4,460.8,351.4,460.6,352.6z"/>
	<path fill="#333333" d="M330.1,293.5c-2.5,1.5-5.2,2.5-8.2,2.5c-1.3,0-1.3,2,0,2c3.3-0.1,6.4-1.1,9.2-2.8
		C332.2,294.6,331.2,292.8,330.1,293.5z"/>
	<path fill="#333333" d="M330.1,303.8c-1.2,0.6-2.5,0.9-3.8,1.2c-1.3,0.3-0.7,2.2,0.5,1.9c1.5-0.4,2.9-0.8,4.2-1.4
		C332.2,305,331.2,303.3,330.1,303.8z"/>
	<path fill="#333333" d="M344.3,290.1c-1.5,0.4-2.9,1-4.3,1.3c-1.2,0.3-0.7,2.3,0.5,1.9c1.5-0.4,2.9-1,4.3-1.3
		C346.1,291.7,345.6,289.7,344.3,290.1z"/>
	<path fill="#333333" d="M347.3,299.7c-1.2,0.3-2.4,0.7-3.7,1c-1.2,0.3-0.7,2.2,0.5,1.9c1.2-0.3,2.4-0.7,3.7-1
		C349.1,301.4,348.6,299.4,347.3,299.7z"/>
	<path fill="#333333" d="M400.4,284.5c-0.9,0.4-2.6,1-3.6,0.6c-1.2-0.5-1.7,1.5-0.5,1.9c1.5,0.6,3.7-0.1,5.1-0.8
		C402.6,285.7,401.6,284,400.4,284.5z"/>
	<path fill="#333333" d="M404.3,294.7c-1.7,0.3-3.3,0.7-5,1c-1.3,0.3-0.7,2.2,0.5,1.9c1.7-0.3,3.3-0.7,5-1
		C406.1,296.4,405.6,294.5,404.3,294.7z"/>
	<path fill="#333333" d="M426.6,286.4h-4c-1.3,0-1.3,2,0,2h4C427.9,288.4,427.9,286.4,426.6,286.4z"/>
	<path fill="#333333" d="M427.6,295.7h-2.3c-1.3,0-1.3,2,0,2h2.3C428.9,297.7,428.9,295.7,427.6,295.7z"/>
	<path fill="#333333" d="M346.2,327c0-1.3-2-1.3-2,0c-0.1,4.5-1.6,8.8-0.3,13.3c0.4,1.2,2.3,0.7,1.9-0.5
		C344.7,335.6,346.1,331.3,346.2,327z"/>
	<path fill="#333333" d="M361.5,341.4c-1.2-4.7-1.3-9.4-0.3-14.1c0.2-1.3-1.7-1.8-1.9-0.5c-1,5.1-1,10.2,0.3,15.2
		C359.9,343.2,361.9,342.7,361.5,341.4z"/>
	<path fill="#333333" d="M372.6,324.8c-2,5.5-1.1,11.3,0,16.9c0.2,1.3,2.2,0.7,1.9-0.5c-1-5.2-1.8-10.7,0-15.8
		C375,324.1,373,323.6,372.6,324.8z"/>
	<path fill="#333333" d="M390,322.9c-3,4.9-3.2,11.8-1.1,17.1c0.5,1.2,2.4,0.7,1.9-0.5c-1.9-4.8-1.8-11,0.9-15.6
		C392.4,322.8,390.7,321.8,390,322.9z"/>
	<path fill="#333333" d="M405.2,342.8c-1.9-6.1-1.9-12.2-1-18.5c0.2-1.3-1.7-1.8-1.9-0.5c-1,6.6-1,13.1,1,19.5
		C403.7,344.5,405.6,344,405.2,342.8z"/>
	<path fill="#333333" d="M299.4,367.9c-1-1.3-2.3-2.4-3.7-3.4c-1.1-0.7-2.1,1-1,1.7c1.1,0.7,2.2,1.6,3,2.6c0.3,0.4,0.9,0.7,1.4,0.4
		C299.5,369,299.8,368.3,299.4,367.9z"/>
	<path fill="#333333" d="M310.8,365.2c-1.4-2.1-2.8-4.1-4.5-5.9c-0.9-0.9-2.3,0.5-1.4,1.4c1.6,1.7,2.9,3.5,4.2,5.5
		C309.8,367.3,311.5,366.3,310.8,365.2z"/>
	<path fill="#333333" d="M314.4,356.2c-1.1-0.7-2.1,1-1,1.7c0.6,0.4,1.5,1,1.5,1.8c0.1,1.3,2.1,1.3,2,0
		C316.8,358.1,315.6,357,314.4,356.2z"/>
	<path fill="#333333" d="M327.9,354.4c-0.7-1.8-1.7-3.6-3.3-4.8c-1-0.8-2.4,0.6-1.4,1.4c1.3,1,2.1,2.4,2.7,3.9
		C326.4,356.1,328.4,355.6,327.9,354.4z"/>
	<path fill="#333333" d="M334.1,349.9c-1-2.3-2.7-4.1-4.5-5.9c-0.9-0.9-2.3,0.5-1.4,1.4c1.7,1.7,3.2,3.3,4.2,5.5
		C332.9,352,334.6,351,334.1,349.9z"/>
</g>
<g>
	<path fill="#333333" d="M132,69.7V71c0,1.3,2,1.3,2,0v-1.3C134,68.4,132,68.4,132,69.7z"/>
	<path fill="#333333" d="M188.3,76.7c-1.3,0-1.3,2,0,2S189.6,76.7,188.3,76.7z"/>
	<path fill="#333333" d="M238.3,106.7c-1.3,0-1.3,2,0,2S239.6,106.7,238.3,106.7z"/>
	<path fill="#333333" d="M272,164.3c0-0.5-0.5-1-1-1c-0.4,0-0.7,0.1-1,0.3c-0.1,0.1-0.3,0.2-0.4,0.4c0,0,0,0,0,0
		c-0.5,0.1-0.9,0.4-0.9,1c0,0.5,0.5,1,1,1c0.4,0,0.7-0.1,1-0.3c0.1-0.1,0.3-0.2,0.4-0.3c0,0,0,0,0,0
		C271.6,165.2,272,164.9,272,164.3z"/>
	<path fill="#333333" d="M186.3,214.7h-0.7c-1.3,0-1.3,2,0,2h0.7C187.6,216.7,187.6,214.7,186.3,214.7z"/>
	<path fill="#333333" d="M46,148.8v0.9c0,1.3,2,1.3,2,0v-0.9C48,147.5,46,147.5,46,148.8z"/>
	<path fill="#333333" d="M39,230c-1.3,0-1.3,2,0,2S40.3,230,39,230z"/>
	<path fill="#333333" d="M199.7,257.6c-0.8-0.8-2,0.2-1.6,1.1c-0.1,0.6,0.2,1.3,0.9,1.3c0.6,0,1.3-0.1,1.5-0.8
		C200.6,258.5,200.1,258.1,199.7,257.6z"/>
	<path fill="#333333" d="M61.3,403v0.7c0,1.3,2,1.3,2,0V403C63.3,401.7,61.3,401.7,61.3,403z"/>
	<path fill="#333333" d="M173.3,446.3v0.7c0,1.3,2,1.3,2,0v-0.7C175.3,445,173.3,445,173.3,446.3z"/>
	<path fill="#333333" d="M250.3,407.3c-1.3,0-1.3,2,0,2c0.6,0,1.6,0.2,1.7,1c0,1.3,2,1.3,2,0C253.9,408.4,252.1,407.4,250.3,407.3z"
		/>
	<path fill="#333333" d="M153.7,406.7c-0.5,0-0.9,0-1.3-0.4c-0.9-0.9-2.4,0.5-1.4,1.4c0.8,0.7,1.7,1,2.7,1
		C155,408.7,155,406.7,153.7,406.7z"/>
	<path fill="#333333" d="M277,319.3c-0.5,0-0.8,0.3-0.9,0.7c-1,0.3-0.9,2,0.3,1.9c1,0,1.6-0.7,1.7-1.7
		C278,319.8,277.5,319.3,277,319.3z"/>
	<path fill="#333333" d="M298.3,240h-0.7c-1.3,0-1.3,2,0,2h0.7C299.6,242,299.6,240,298.3,240z"/>
	<path fill="#333333" d="M367.4,252.8c-0.6,0.2-1.1,1-0.4,1.6c0.5,0.5,1.4,0.9,1.9,0.2c0.4-0.5,0.4-1,0.4-1.6
		C369.3,251.8,367.6,251.7,367.4,252.8z"/>
	<path fill="#333333" d="M355.7,62.7h-1.3c-1.3,0-1.3,2,0,2h1.3C357,64.7,357,62.7,355.7,62.7z"/>
	<path fill="#333333" d="M433.3,71.7c0,0.5,0,0.9-0.4,1.3c-0.9,0.9,0.5,2.4,1.4,1.4c0.7-0.8,1-1.7,1-2.7
		C435.3,70.4,433.3,70.4,433.3,71.7z"/>
	<path fill="#333333" d="M442.4,145.6c-0.2-0.2-0.4-0.4-0.7-0.7c-0.9-0.9-2.3,0.5-1.4,1.4c0.2,0.2,0.4,0.4,0.7,0.7
		C441.9,148,443.3,146.5,442.4,145.6z"/>
	<path fill="#333333" d="M458.3,238c-0.1,0-0.3,0-0.4,0c-0.1-0.4-0.5-0.7-0.9-0.7c-0.5,0-1,0.5-1,1c0.1,1.3,1.2,1.7,2.3,1.7
		C459.6,240,459.6,238,458.3,238z"/>
	<path fill="#333333" d="M561.7,217c-0.6-0.6-1.4-0.2-1.6,0.4c-1,0.3-1,2,0.2,1.9c0.6,0,1.2,0,1.6-0.4
		C562.6,218.3,562.2,217.5,561.7,217z"/>
	<path fill="#333333" d="M528.3,88c-1.3,0-1.3,2,0,2S529.6,88,528.3,88z"/>
	<path fill="#333333" d="M622.3,68c-0.5,0-0.9,0-1.3-0.4c-0.9-0.9-2.4,0.5-1.4,1.4c0.8,0.7,1.7,1,2.7,1C623.6,70,623.6,68,622.3,68z
		"/>
	<path fill="#333333" d="M646.4,112.3c-0.9-1-2.3,0.5-1.4,1.4c0.5,0.6,0.4,1.9,0.4,2.6c0,1.3,2,1.3,2,0
		C647.3,114.9,647.4,113.4,646.4,112.3z"/>
	<path fill="#333333" d="M647,168h-0.7c-1.3,0-1.3,2,0,2h0.7C648.3,170,648.3,168,647,168z"/>
	<path fill="#333333" d="M612.3,185.3c-1.3,0-1.3,2,0,2S613.6,185.3,612.3,185.3z"/>
	<path fill="#333333" d="M643,258c-1.3,0-1.3,2,0,2S644.3,258,643,258z"/>
	<path fill="#333333" d="M614.7,291.7v0.7c0,1.3,2,1.3,2,0v-0.7C616.7,290.4,614.7,290.4,614.7,291.7z"/>
	<path fill="#333333" d="M602.7,325.7v1.3c0,1.3,2,1.3,2,0v-1.3C604.7,324.4,602.7,324.4,602.7,325.7z"/>
	<path fill="#333333" d="M658.7,361c0,0,0,0.4,0,0.2c0,0,0,0.1,0,0.2c0,0,0,0,0,0.1c0,0,0,0,0,0c-0.4,0.3-0.9,0.5-1.4,0.7
		c-1.2,0.6-0.1,2.3,1,1.7c0.6-0.3,1.2-0.5,1.7-0.9c0.6-0.5,0.7-1.2,0.8-1.9C660.7,359.7,658.7,359.7,658.7,361z"/>
	<path fill="#333333" d="M565,420.3l-0.7,0.7c-0.9,0.9,0.5,2.3,1.4,1.4l0.7-0.7C567.3,420.8,565.9,419.4,565,420.3z"/>
	<path fill="#333333" d="M473.7,421c-0.3-0.3-0.7-0.4-1-0.2c-0.9-0.3-1.9,0.9-1,1.6c0.5,0.4,1.2,1,1.9,0.7
		C474.6,422.7,474.3,421.6,473.7,421z"/>
	<path fill="#333333" d="M435.4,402h-1.7c-1.3,0-1.3,2,0,2h1.7C436.7,404,436.7,402,435.4,402z"/>
	<path fill="#333333" d="M361.6,409.5c-0.1-0.1-0.2-0.2-0.2-0.4c0,0,0-0.1-0.1-0.1c0-0.1,0-0.2,0,0c-0.1-1.3-2.1-1.3-2,0
		c0,0.1,0,0.3,0.1,0.4c-0.1,0.3-0.1,0.7,0.2,1c0.2,0.2,0.5,0.6,0.8,0.7c0.6,0.3,1.3,0.1,1.5-0.6C362,410.1,361.8,409.8,361.6,409.5z
		"/>
	<path fill="#333333" d="M323.7,388.3c-0.8-0.8-2,0.2-1.6,1.1c-0.1,0.6,0.2,1.3,0.9,1.3c0.6,0,1.3-0.1,1.5-0.8
		C324.6,389.2,324.1,388.7,323.7,388.3z"/>
	<path fill="#333333" d="M477.3,287.7c0-0.5-0.5-1-1-1c-0.5,0-0.9,0.4-1,0.9c-0.1,0.1-0.2,0.2-0.2,0.2c-0.3,0.4-0.4,0.7-0.5,1.2
		c0,0.5,0.5,1,1,1c0.5,0,0.9-0.4,1-0.9c0.1-0.1,0.2-0.2,0.2-0.2C477.2,288.5,477.3,288.1,477.3,287.7z"/>
	<path fill="#333333" d="M487,333.3c-1.3,0-1.3,2,0,2S488.3,333.3,487,333.3z"/>
	<path fill="#333333" d="M111.7,223.3c-1.3,0-1.3,2,0,2S113,223.3,111.7,223.3z"/>
	<path fill="#333333" d="M49.3,337v0.7c0,1.3,2,1.3,2,0V337C51.3,335.7,49.3,335.7,49.3,337z"/>
	<path fill="#333333" d="M602.3,234.7c-1.3,0-1.3,2,0,2S603.6,234.7,602.3,234.7z"/>
	<path fill="#333333" d="M483.7,382c-1.3,0-1.3,2,0,2S485,382,483.7,382z"/>
	<path fill="#333333" d="M380.3,372.7H379c-1.3,0-1.3,2,0,2h1.3C381.6,374.7,381.6,372.7,380.3,372.7z"/>
</g>
<g>
	<path fill="#333333" d="M439.9,104.3c-0.6-2.1-1.5-4.1-2.7-5.8c-0.5-0.7-1.6-0.6-1.8,0.2c-0.3,1-0.7,2-1,3
		c-0.6-1.2-1.1-2.5-1.4-3.9c-0.2-0.8-1.5-1-1.8-0.2c-0.6,1.3-0.8,2.7-1.1,4c-0.2,0.9-1,2.9-0.4,3.7c0.3,0.4,0.6,0.5,1.1,0.5
		c0.4-0.1,0.6-0.4,0.8-0.7c0.2-0.4,0.1-0.7,0-1c0-0.1,0-0.2,0-0.3c0.1-0.7,0.3-1.3,0.4-2c0-0.1,0-0.1,0-0.2c0.4,1.1,1,2.1,1.7,3
		c0.5,0.7,1.6,0.7,1.8-0.2c0.3-1,0.7-2,1-3c0.6,1.1,1,2.2,1.4,3.4C438.3,106,440.3,105.5,439.9,104.3z"/>
	<path fill="#333333" d="M67.4,101.9c-1.6-2.3-2.5-5.3-3.9-7.8c-0.4-0.8-1.6-0.6-1.8,0.2c-0.7,2.4-1.2,4.7-2.7,6.7
		c-1-2.1-1.4-4.3-1.8-6.7c-0.2-1.1-1.6-0.9-1.9,0c-0.4,1.1-0.9,2.2-1.4,3.2c-0.6-1.1-1.1-2.3-1.4-3.7c-0.3-1.1-1.6-0.8-1.9,0
		c-0.9,2.4-1.8,4.8-2.9,7.1c-0.5,1.2,1.2,2.2,1.7,1c0.8-1.6,1.4-3.3,2.1-4.9c0.5,1.1,1.1,2.2,1.8,3.2c0.5,0.7,1.5,0.6,1.8-0.2
		c0.2-0.7,0.5-1.4,0.8-2.1c0.4,1.8,1.1,3.6,2.1,5.3c0.3,0.6,1.1,0.7,1.6,0.2c1.8-1.8,2.7-3.9,3.4-6.2c0.9,1.9,1.6,3.9,2.8,5.6
		C66.4,103.9,68.1,102.9,67.4,101.9z"/>
	<path fill="#333333" d="M86.6,436.2c-1.5-1.6-2.8-3.2-4.3-4.7c-0.5-0.5-1.6-0.3-1.7,0.4c-0.3,2.3-0.5,4.5-1.2,6.7
		c-1.7-1.8-2.9-3.8-3.9-6.1c-0.4-0.9-1.9-0.4-1.9,0.5c0,1.9,0.2,3.7,0.3,5.6c-1.2-1.5-2-3.1-2.7-5c-0.3-1.1-1.9-0.9-2,0.3
		c0,1.6-0.1,3.3-0.4,4.9c0,0,0,0,0,0c-0.1,0.4-0.1,0.9,0.4,1.1c0,0,0,0,0,0c0.5,0.3,1.4,0.1,1.5-0.6c0.1-0.5,0.1-0.9,0.2-1.4
		c0.9,1.5,2,2.8,3.3,4c0.6,0.5,1.7,0.2,1.7-0.7c0-1.3-0.1-2.6-0.2-3.9c0.9,1.4,2,2.6,3.2,3.7c0.4,0.4,1.3,0.4,1.6-0.2
		c0.9-2.1,1.2-4.3,1.6-6.5c1,1.1,1.9,2.2,2.9,3.2C86.1,438.5,87.5,437.1,86.6,436.2z"/>
	<path fill="#333333" d="M288.2,272.2c0-1-1.4-1.4-1.9-0.5c-0.4,0.7-0.8,1.4-1.3,2c-1.5,1.8-2.9-0.3-2.8-1.9c0-0.9-1.1-1.3-1.7-0.7
		c-1.5,1.4-2.6,3.3-4.1,4.7c-0.6-1.4-0.8-2.8-0.7-4.4c0.1-0.8-0.9-1.2-1.5-0.9c-2.6,1.4-4.1,3.9-6.2,5.8c-1,0.8,0.4,2.3,1.4,1.4
		c1.6-1.4,2.8-3.1,4.3-4.4c0.2,1.6,0.7,3.1,1.4,4.6c0.2,0.5,1,0.7,1.4,0.4c1.6-1.2,2.7-2.7,3.9-4.2c0.8,3.2,3.7,3.1,6,0.8
		c0.2,1.4,0.4,2.7,0.7,4.1c0.2,1.3,2.2,0.7,1.9-0.5C288.6,276.3,288.3,274.3,288.2,272.2z"/>
	<path fill="#333333" d="M477.3,256.6c-0.8-1.3-1.7-2.5-2.7-3.7c-0.5-0.6-1.4-0.2-1.7,0.4c-0.5,1.4-1.2,2.7-1.7,4.1
		c-1.3-0.6-2.4-1.3-3.3-2.6c-0.5-0.7-2-0.6-1.9,0.5c0.2,1.3-0.1,2.6-0.3,3.8c-1.9-0.8-3.2-2.2-4.3-3.9c-0.5-0.7-1.6-0.6-1.8,0.2
		c-0.5,2-0.8,3.9-0.9,5.9c-0.1,1.3,1.9,1.3,2,0c0-1.1,0.2-2.2,0.4-3.2c1.4,1.6,3.1,2.8,5.2,3.3c0.7,0.2,1.2-0.3,1.3-1
		c0.1-1,0.3-1.8,0.4-2.8c1,0.7,2,1.3,3.3,1.9c0.6,0.3,1.3,0.1,1.5-0.6c0.4-1.2,1-2.4,1.5-3.5c0.5,0.6,1,1.3,1.4,2
		C476.2,258.7,478,257.7,477.3,256.6z"/>
	<path fill="#333333" d="M651.5,300.8c-0.6-1.6-1.2-3.1-1.7-4.7c-0.3-1-1.6-0.9-1.9,0c-0.6,1.5-1.6,2.2-2.8,2.8
		c-0.4-1.1-0.7-2.2-0.8-3.4c-0.1-1.1-1.7-1.4-2-0.3c-0.3,1-0.7,2-1.1,2.9c-0.2-1.1-0.3-2.3-0.3-3.5c0-0.8-1.1-1.4-1.7-0.7
		c-1.4,1.8-2.9,3.4-4.3,5.2c-0.8,1,0.6,2.4,1.4,1.4c0.9-1.2,1.9-2.2,2.8-3.4c0.2,1.4,0.4,2.8,0.7,4.2c0.2,0.8,1.4,1,1.8,0.2
		c0.5-0.9,1-1.8,1.5-2.8c0.2,0.5,0.4,1.1,0.6,1.7c0.2,0.6,0.9,0.9,1.5,0.6c1.5-0.7,2.7-1.4,3.6-2.4c0.3,0.9,0.7,1.8,1,2.7
		C650.1,302.5,652,302,651.5,300.8z"/>
	<path fill="#333333" d="M370,430.3c-0.2-0.3-0.3-0.7-0.3-1.1c-0.1-0.3-0.2-0.5-0.4-0.6c-0.8-1.6-1.7-3.2-2.7-4.8
		c-0.4-0.6-1.4-0.7-1.7,0c-1,1.9-1.6,4.1-2.4,6.1c-1-1.1-1.8-2.2-2.2-3.7c-0.3-0.9-1.7-1-1.9,0c-0.3,1.4-0.4,2.8-0.6,4.1
		c-1-1.7-1.8-3.5-2.8-5.2c-0.4-0.7-1.3-0.6-1.7,0c-0.6,0.8-0.8,1.6-1.1,2.6c-0.3,1-0.9,2.6,0.2,2.5c-1.3,0.1-1.3,2.1,0,2
		c0,0,0.1,0,0.1,0c0.3,0,0.7-0.2,0.9-0.5c0.5-1.2,0.5-2.6,0.8-3.8c1,2,2,4,3.5,5.8c0.5,0.5,1.5,0.3,1.7-0.4c0.2-1.1,0.3-2.3,0.4-3.4
		c0.6,0.9,1.4,1.7,2.2,2.6c0.4,0.4,1.3,0.4,1.6-0.2c1-1.8,1.5-3.8,2.3-5.7c0.9,1.6,1.8,3.1,2.5,4.8
		C368.8,432.5,370.5,431.5,370,430.3z"/>
	<path fill="#333333" d="M217.4,51.9c-0.6-2.2-1.9-4.3-2.1-6.6c-0.1-1.1-1.6-1.4-2-0.3c-0.5,1.7-1.5,3-2.4,4.4
		c-0.6-0.9-1.3-1.7-1.8-2.6c-0.5-0.8-1.5-0.5-1.8,0.2c-0.4,1.2-1,2.5-1.4,3.7c-0.8-1.9-1.6-3.7-2-5.7c-0.3-1.1-2-0.8-2,0.3v5.3
		c0,1.2,1.6,1.3,1.9,0.3c0.5,1.1,1,2.2,1.4,3.3c0.4,1,1.9,0.9,2-0.3c0.1-1.6,0.7-3,1.2-4.5c0.5,0.8,1.1,1.5,1.6,2.3
		c0.4,0.6,1.4,0.7,1.7,0c0.7-1.2,1.5-2.3,2.2-3.5c0.4,1.2,1,2.4,1.3,3.7c0,0.1,0,0.3,0.1,0.5c0,0.1,0.1,0.1,0.1,0.2
		C216.2,53.6,217.7,53.1,217.4,51.9z"/>
	<path fill="#333333" d="M593.3,49.7c-0.8-1.9-1.7-4.1-1.3-6.1c0.2-1.3-1.4-1.7-1.9-0.5c-0.6,3-2.7,4-6.2,2.9
		c-0.6-1.1-1-2.3-1.2-3.5c-0.2-1.1-1.6-0.8-1.9,0c-0.9,2.4-3,4.1-4.5,6.1c-2.1-2.1-3.4-4.4-4.2-7.4c-0.2-0.8-1.5-1-1.8-0.2
		c-1,2.2-2.7,3.9-4,6c-0.7,1.1,1,2.1,1.7,1c0.9-1.4,2-2.7,2.9-4c1,2.7,2.6,5,4.9,6.9c0.5,0.4,1.2,0.4,1.6-0.2c1.2-2,2.9-3.5,4.2-5.4
		c2,4.7,5.9,5.1,8.8,1.5c0.3,1.2,0.7,2.4,1.2,3.6C591.9,51.4,593.8,50.9,593.3,49.7z"/>
	<path fill="#333333" d="M603.5,446.8c-1.2-3-1.9-5.9-3.6-8.7c-0.5-0.9-1.8-0.5-1.9,0.5c-0.1,1.2-0.4,2.3-0.7,3.4
		c-0.9-1.5-1.9-3-2.7-4.5c-0.5-0.8-2-0.5-1.9,0.5c0.2,2.4-0.5,4.3-1.2,6.3c-1.2-1.9-2.6-3.8-3.5-5.9c-0.4-1-2-0.9-2,0.3v2.7
		c-0.7-0.8-1.4-1.6-2.1-2.6c-0.5-0.7-1.5-0.6-1.8,0.2c-0.9,2.5-1.8,4.9-2,7.6c-0.1,1.3,1.9,1.3,2,0c0.1-1.9,0.7-3.6,1.3-5.4
		c1,1.2,2.1,2.4,2.8,3.9c0.4,0.9,1.9,0.4,1.9-0.5v-2.1c0.9,1.5,2,3,2.8,4.6c0.4,0.8,1.6,0.6,1.8-0.2c0.6-2,1.4-3.7,1.8-5.6
		c0.8,1.3,1.6,2.5,2.3,3.9c0.5,1,1.7,0.4,1.9-0.5c0.1-1,0.4-2,0.7-3c0.4,1,0.8,1.9,1.1,2.9c-0.4,0.3-0.7,1-0.2,1.5
		c0.5,0.6,0.9,1.3,1.5,1.8C602.5,448.4,603.9,447.9,603.5,446.8z"/>
</g>
</svg>
