<?xml version="1.0" encoding="utf-8"?>
<!-- Generator: Adobe Illustrator 16.0.0, SVG Export Plug-In . SVG Version: 6.00 Build 0)  -->
<!DOCTYPE svg PUBLIC "-//W3C//DTD SVG 1.1//EN" "http://www.w3.org/Graphics/SVG/1.1/DTD/svg11.dtd">
<svg version="1.1" id="Layer_1" xmlns="http://www.w3.org/2000/svg" xmlns:xlink="http://www.w3.org/1999/xlink" x="0px" y="0px"
	 width="700px" height="490px" viewBox="0 0 700 490" enable-background="new 0 0 700 490" xml:space="preserve">
<g>
	<circle fill="#333333" cx="453" cy="232.8" r="2.7"/>
	<circle fill="#333333" cx="449.3" cy="384.3" r="2.7"/>
	<circle fill="#333333" cx="285.7" cy="270.6" r="2.7"/>
	<circle fill="#333333" cx="253.3" cy="185.6" r="2.7"/>
	<circle fill="#333333" cx="408.2" cy="75.1" r="2.7"/>
	<circle fill="#333333" cx="460.8" cy="221.7" r="3.6"/>
	<circle fill="#333333" cx="182.3" cy="244.8" r="2.7"/>
	<circle fill="#333333" cx="190.2" cy="233.7" r="3.6"/>
	<circle fill="#333333" cx="80.2" cy="75.1" r="3.6"/>
	<circle fill="#333333" cx="135.4" cy="415" r="3.6"/>
	<circle fill="#333333" cx="605.1" cy="431.9" r="3.6"/>
	<circle fill="#333333" cx="626.7" cy="102.2" r="3.6"/>
</g>
<g>
	<g>
		<g>
			<path fill="#383836" d="M362.4,454.9c0.3,0,0.7,0.3,0.7,0.3l-5.7,11.8c-0.6,0-2.1,0.1-2.5,0.1c-0.3,0-0.7-0.3-0.7-0.3l-1.9-11.8
				c1.2,0,2.7-0.1,3.1-0.1c0.3,0,0.7,0.3,0.7,0.3l0.6,5.8c0.1,0.5,0.1,1.2,0,1.9c0.2-0.8,0.4-1.5,0.6-2.1l2.4-5.8
				C360.7,455,362,454.9,362.4,454.9L362.4,454.9z"/>
		</g>
		<g>
			<path fill="#383836" d="M368.3,460.7c0,1.3-0.7,2.1-2.6,2.5l-1.9,0.4c0.2,0.8,0.7,1.2,1.5,1.2c1.1,0,1.8-0.8,1.8-0.8
				s0.5,0.3,0.5,0.9c0,1.1-1.7,2.2-3.7,2.2c-2,0-3.3-1.2-3.3-3.3c0-2.4,1.7-5.6,4.8-5.6C367.2,458.2,368.3,459.2,368.3,460.7
				L368.3,460.7z M365,461.9c0.4-0.1,0.5-0.5,0.5-0.8c0-0.4-0.1-0.9-0.5-0.9c-0.8,0-1.1,1.2-1.2,2.1L365,461.9z"/>
		</g>
		<g>
			<path fill="#383836" d="M373.5,458.2c1.6,0,2.7,0.8,2.7,1.9c0,1.3-1.6,1.8-1.6,1.8s-0.5-1.4-1.6-1.4c-0.7,0-1.2,0.7-1.2,2.3
				c0,1.4,0.4,2.1,1.3,2.1c1,0,1.6-0.6,1.6-0.6s0.5,0.3,0.5,0.9c0,1-1.6,2.1-3.5,2.1c-2,0-3.3-1.2-3.3-3.3
				C368.5,461.5,370.3,458.2,373.5,458.2L373.5,458.2z"/>
		</g>
		<g>
			<path fill="#383836" d="M381,456.3c0.4,0,0.6,0.3,0.6,0.3l-0.3,1.8h2l-0.4,1.4c-0.1,0.4-0.4,0.7-0.8,0.7h-1l-0.6,3.5
				c-0.1,0.6,0,0.8,0.4,0.8c0.4,0,0.7-0.2,0.7-0.2s0.5,0.3,0.5,0.9c0,0.9-1.3,1.7-2.9,1.7c-1.7,0-2.4-1-2.1-2.8l0.6-3.9h-1.1
				l0.5-1.4c0.1-0.4,0.4-0.6,0.8-0.6h0.5l0.6-1.7C379.9,456.6,380.6,456.3,381,456.3L381,456.3z"/>
		</g>
		<g>
			<path fill="#383836" d="M390.5,460.7c0,1.3-0.7,2.1-2.6,2.5l-1.9,0.4c0.2,0.8,0.7,1.2,1.5,1.2c1.1,0,1.8-0.8,1.8-0.8
				s0.5,0.3,0.5,0.9c0,1.1-1.7,2.2-3.7,2.2c-2,0-3.3-1.2-3.3-3.3c0-2.4,1.7-5.6,4.8-5.6C389.5,458.2,390.5,459.2,390.5,460.7
				L390.5,460.7z M387.3,461.9c0.4-0.1,0.5-0.5,0.5-0.8c0-0.4-0.1-0.9-0.5-0.9c-0.8,0-1.1,1.2-1.2,2.1L387.3,461.9z"/>
		</g>
		<g>
			<path fill="#383836" d="M398.4,460.7c0,1.3-0.7,2.1-2.6,2.5l-1.9,0.4c0.1,0.8,0.7,1.2,1.5,1.2c1.1,0,1.8-0.8,1.8-0.8
				s0.5,0.3,0.5,0.9c0,1.1-1.7,2.2-3.7,2.2c-2,0-3.3-1.2-3.3-3.3c0-2.4,1.7-5.6,4.8-5.6C397.3,458.2,398.4,459.2,398.4,460.7
				L398.4,460.7z M395.1,461.9c0.4-0.1,0.5-0.5,0.5-0.8c0-0.4-0.1-0.9-0.5-0.9c-0.8,0-1.1,1.2-1.2,2.1L395.1,461.9z"/>
		</g>
		<g>
			<path fill="#383836" d="M404.8,463.9c0,0,0.7,0.6,0.7,1.6c0,1.3-1.1,1.7-2.1,1.7c-1.3,0-2.2-0.6-3.1-0.9
				c-0.3,0.3-0.5,0.6-0.8,0.9c0,0-1.4,0-1.4-1c0-1.1,2-3.1,4.1-5.3c-0.2,0-0.5-0.1-0.7-0.1c-1.2,0-1.7,0.6-1.7,0.6s-0.6-0.7-0.6-1.6
				c0.1-1.2,1.3-1.6,2.2-1.6c1,0,1.8,0.4,2.5,0.7l0.6-0.7c0,0,1.4,0,1.4,1c0,1.1-1.9,3-3.9,5.2c0.4,0.1,0.8,0.2,1.2,0.2
				C404.3,464.6,404.8,463.9,404.8,463.9L404.8,463.9z"/>
		</g>
		<g>
			<path fill="#383836" d="M414,466.4c-0.5,3-2.6,4.5-5.3,4.5c-1.7,0-3-0.9-3-1.9c0-0.7,0.6-1,0.6-1s0.6,0.5,1.7,0.5
				c1.1,0,2.5-0.4,2.8-2l0.2-1.2c-0.7,1-1.7,1.8-2.9,1.8c-1.4,0-2-1.1-1.6-3.3l0.4-2.4c0.2-1.5,0.3-2.6,0.3-2.6
				c1-0.2,2.2-0.6,2.7-0.6c0.3,0,0.7,0.3,0.7,0.3l-0.5,3l-0.4,2.8c0,0.3,0,0.4,0.2,0.4c1.1,0,1.8-3.1,1.8-3.1
				c0.2-1.5,0.3-2.6,0.3-2.6c1-0.2,2.2-0.6,2.7-0.6c0.3,0,0.7,0.3,0.7,0.3l-0.5,3L414,466.4z"/>
		</g>
	</g>
	<g>
		<path fill="#383836" d="M283.2,458.7h3c0.7,0,1.2,0.1,1.6,0.2c0.5,0.1,0.9,0.4,1.2,0.7c0.3,0.4,0.6,0.8,0.8,1.3
			c0.2,0.5,0.3,1.1,0.3,1.9c0,0.7-0.1,1.2-0.3,1.7c-0.2,0.6-0.5,1.1-0.9,1.4c-0.3,0.3-0.7,0.5-1.2,0.6c-0.4,0.1-0.9,0.2-1.5,0.2
			h-3.1V458.7z M284.9,460.1v5.3h1.2c0.5,0,0.8,0,1-0.1c0.3-0.1,0.5-0.2,0.7-0.3c0.2-0.2,0.3-0.4,0.4-0.8c0.1-0.4,0.2-0.8,0.2-1.5
			s-0.1-1.1-0.2-1.4c-0.1-0.3-0.3-0.6-0.5-0.8c-0.2-0.2-0.5-0.3-0.8-0.4c-0.2-0.1-0.7-0.1-1.4-0.1H284.9z"/>
		<path fill="#383836" d="M294.7,464.9l1.6,0.3c-0.2,0.6-0.5,1-1,1.3c-0.4,0.3-1,0.4-1.6,0.4c-1,0-1.8-0.3-2.3-1
			c-0.4-0.5-0.6-1.2-0.6-2c0-1,0.3-1.7,0.8-2.3s1.2-0.8,2-0.8c0.9,0,1.6,0.3,2.1,0.9c0.5,0.6,0.8,1.4,0.7,2.6h-4
			c0,0.5,0.1,0.8,0.4,1.1c0.2,0.3,0.5,0.4,0.9,0.4c0.2,0,0.5-0.1,0.6-0.2C294.5,465.4,294.7,465.2,294.7,464.9z M294.8,463.3
			c0-0.4-0.1-0.8-0.4-1s-0.5-0.3-0.8-0.3c-0.3,0-0.6,0.1-0.9,0.4s-0.3,0.6-0.3,1H294.8z"/>
		<path fill="#383836" d="M296.9,465.1l1.6-0.2c0.1,0.3,0.2,0.5,0.4,0.7c0.2,0.2,0.5,0.2,0.9,0.2c0.4,0,0.7-0.1,0.9-0.2
			c0.1-0.1,0.2-0.2,0.2-0.4c0-0.1,0-0.2-0.1-0.3c-0.1-0.1-0.3-0.1-0.5-0.2c-1.3-0.3-2.1-0.5-2.4-0.7c-0.5-0.3-0.7-0.7-0.7-1.3
			c0-0.5,0.2-0.9,0.6-1.3c0.4-0.3,1-0.5,1.9-0.5c0.8,0,1.4,0.1,1.8,0.4c0.4,0.3,0.7,0.6,0.8,1.1l-1.5,0.3c-0.1-0.2-0.2-0.4-0.4-0.5
			c-0.2-0.1-0.4-0.2-0.8-0.2c-0.4,0-0.7,0.1-0.9,0.2c-0.1,0.1-0.2,0.2-0.2,0.3c0,0.1,0.1,0.2,0.2,0.3c0.1,0.1,0.6,0.2,1.5,0.4
			c0.8,0.2,1.4,0.4,1.8,0.7c0.3,0.3,0.5,0.7,0.5,1.1c0,0.5-0.2,1-0.7,1.4c-0.5,0.4-1.1,0.6-2,0.6c-0.8,0-1.5-0.2-1.9-0.5
			C297.4,466,297.1,465.6,296.9,465.1z"/>
		<path fill="#383836" d="M303.6,460.1v-1.4h1.6v1.4H303.6z M303.6,466.7v-5.8h1.6v5.8H303.6z"/>
		<path fill="#383836" d="M306.4,467.1l1.8,0.2c0,0.2,0.1,0.3,0.2,0.4c0.2,0.1,0.4,0.2,0.7,0.2c0.4,0,0.7-0.1,0.9-0.2
			c0.1-0.1,0.2-0.2,0.3-0.4c0-0.1,0.1-0.4,0.1-0.7v-0.8c-0.5,0.6-1.1,0.9-1.8,0.9c-0.8,0-1.4-0.3-1.9-1c-0.4-0.5-0.5-1.2-0.5-1.9
			c0-1,0.2-1.7,0.7-2.2c0.5-0.5,1.1-0.8,1.8-0.8c0.7,0,1.3,0.3,1.8,0.9v-0.8h1.5v5.2c0,0.7-0.1,1.2-0.2,1.5
			c-0.1,0.3-0.3,0.6-0.5,0.8c-0.2,0.2-0.5,0.3-0.8,0.5s-0.8,0.2-1.3,0.2c-1,0-1.7-0.2-2.2-0.5c-0.4-0.3-0.6-0.8-0.6-1.3
			C306.4,467.2,306.4,467.2,306.4,467.1z M307.9,463.7c0,0.6,0.1,1.1,0.4,1.4c0.2,0.3,0.5,0.4,0.9,0.4c0.4,0,0.7-0.1,1-0.4
			c0.3-0.3,0.4-0.7,0.4-1.3c0-0.6-0.1-1-0.4-1.3c-0.3-0.3-0.6-0.4-1-0.4c-0.4,0-0.7,0.1-0.9,0.4C308,462.7,307.9,463.1,307.9,463.7z
			"/>
		<path fill="#383836" d="M318.8,466.7h-1.6v-3c0-0.6,0-1-0.1-1.2c-0.1-0.2-0.2-0.3-0.3-0.4c-0.1-0.1-0.3-0.2-0.5-0.2
			c-0.3,0-0.5,0.1-0.7,0.2c-0.2,0.1-0.4,0.3-0.4,0.6c-0.1,0.2-0.1,0.7-0.1,1.3v2.6h-1.6v-5.8h1.5v0.9c0.5-0.7,1.2-1,2-1
			c0.3,0,0.7,0.1,1,0.2c0.3,0.1,0.5,0.3,0.7,0.5c0.1,0.2,0.3,0.4,0.3,0.6c0.1,0.2,0.1,0.6,0.1,1V466.7z"/>
		<path fill="#383836" d="M323.6,464.9l1.6,0.3c-0.2,0.6-0.5,1-1,1.3c-0.4,0.3-1,0.4-1.6,0.4c-1,0-1.8-0.3-2.3-1
			c-0.4-0.5-0.6-1.2-0.6-2c0-1,0.3-1.7,0.8-2.3c0.5-0.5,1.2-0.8,2-0.8c0.9,0,1.6,0.3,2.1,0.9c0.5,0.6,0.8,1.4,0.7,2.6h-4
			c0,0.5,0.1,0.8,0.4,1.1c0.2,0.3,0.5,0.4,0.9,0.4c0.2,0,0.5-0.1,0.6-0.2S323.5,465.2,323.6,464.9z M323.7,463.3
			c0-0.4-0.1-0.8-0.4-1c-0.2-0.2-0.5-0.3-0.8-0.3c-0.3,0-0.6,0.1-0.9,0.4s-0.3,0.6-0.3,1H323.7z"/>
		<path fill="#383836" d="M331.8,466.7h-1.5v-0.9c-0.2,0.3-0.5,0.6-0.9,0.7c-0.3,0.2-0.7,0.2-1,0.2c-0.7,0-1.3-0.3-1.8-0.8
			c-0.5-0.5-0.7-1.3-0.7-2.2c0-1,0.2-1.7,0.7-2.2c0.5-0.5,1.1-0.8,1.8-0.8c0.7,0,1.2,0.3,1.7,0.8v-2.9h1.6V466.7z M327.6,463.7
			c0,0.6,0.1,1.1,0.3,1.3c0.3,0.4,0.6,0.6,1.1,0.6c0.4,0,0.7-0.2,0.9-0.4c0.3-0.3,0.4-0.7,0.4-1.3c0-0.7-0.1-1.1-0.4-1.4
			c-0.2-0.3-0.6-0.4-0.9-0.4c-0.4,0-0.7,0.1-0.9,0.4C327.7,462.7,327.6,463.1,327.6,463.7z"/>
		<path fill="#383836" d="M336,466.7v-8h1.6v2.9c0.5-0.5,1.1-0.8,1.7-0.8c0.7,0,1.3,0.3,1.8,0.8c0.5,0.5,0.7,1.2,0.7,2.2
			c0,1-0.2,1.8-0.7,2.3c-0.5,0.5-1.1,0.8-1.8,0.8c-0.3,0-0.7-0.1-1-0.2c-0.3-0.2-0.6-0.4-0.9-0.7v0.9H336z M337.6,463.7
			c0,0.6,0.1,1,0.3,1.3c0.3,0.4,0.6,0.6,1.1,0.6c0.3,0,0.6-0.1,0.9-0.4s0.4-0.7,0.4-1.4c0-0.7-0.1-1.1-0.4-1.4
			c-0.2-0.3-0.6-0.4-0.9-0.4c-0.4,0-0.7,0.1-0.9,0.4S337.6,463.1,337.6,463.7z"/>
		<path fill="#383836" d="M348,460.4c-0.4,0-0.7,0.2-0.9,0.5h-0.5l-1.4,4.1l-1.4-4.1h-1.7l2.3,5.8c-0.1,0.3-0.2,0.6-0.4,0.8
			c-0.2,0.2-0.4,0.3-0.8,0.3c-0.2,0-0.4,0-0.7-0.1l0.1,1.2c0.3,0.1,0.6,0.1,0.9,0.1c0.3,0,0.6,0,0.8-0.1c0.2-0.1,0.4-0.1,0.6-0.3
			s0.3-0.3,0.4-0.4c0.1-0.2,0.3-0.4,0.4-0.8l0.4-1l1.5-4c0.1,0,0.2,0.1,0.3,0.1C349.4,462.6,349.4,460.4,348,460.4z"/>
	</g>
</g>
<g>
	<path fill="#C4C5C7" d="M346.1,377.1c17.7,4.4,39.5,2.2,51.5-12.9c14.8-18.6,13.9-43.9,8.7-65.8c-2.2-9.4-5.3-18.7-8.3-27.9
		c0.2-1,0.3-2.1,0.3-3.2c0.3-5.8-0.8-11.9-3.7-17c0.9-7.7,0.1-15-2.7-22.2c-0.2-0.6-0.8-0.9-1.4-0.6c-4.4,2.6-9.9,6.2-11.7,11.3
		c-5.4-1.4-11.3-1.7-16.5-1.8c-7.5-0.2-16.5-0.2-24.2,2c-3.5-4.7-7.4-9-12.5-12.1c-0.5-0.3-1.3,0-1.4,0.6c-2.3,10-6.2,21.9-4.3,32.4
		c-0.3,3,0,5.8,0.8,8.5c-1.7,7.4-1.6,15.3-1.3,22.8c0.4,12.5-0.2,24.9-0.4,37.3c-0.1,5.9,0.1,12.1,1,18.1
		c-9.8,9.5-10.1,28.7-8.2,40.8c1.5,9.3,5.3,17.7,12.6,23.8c6.7,5.7,15.5,8.1,24,9.1c9.3,1.1,19.4,0.5,28.6-1
		c5.9-1,17.7-4.1,18.2-11.9c0.4-6.4-9.4-6.7-13.6-6.8c-10.8-0.3-21.6,3.2-32.3,0.9c-13.6-2.9-24.5-20.1-20.8-33.6
		C333.1,372.6,339.8,375.5,346.1,377.1z"/>
	<path fill="#333333" d="M368.4,248.6C368.4,248.5,368.4,248.5,368.4,248.6c-0.1-0.3-0.2-0.5-0.4-0.7c-0.1-0.1-0.2-0.1-0.3-0.2
		c0,0,0-0.1-0.1-0.1c-0.2-0.8-1.2-0.9-1.7-0.3c-0.1,0.1-0.2,0.2-0.3,0.3c-0.1,0.2-0.2,0.4-0.2,0.6c0,0.1,0,0.2,0,0.3
		c0,0.2,0,0.4,0,0.6c0,0,0,0.1,0,0.1c-0.1,0.4-0.1,0.8,0.1,1.1c0.2,0.4,0.7,0.6,1.1,0.7c0.1,0,0.2,0.1,0.3,0.1
		c0.9,0,1.1-0.9,1.3-1.6C368.4,249.2,368.5,248.9,368.4,248.6z"/>
	<path fill="#333333" d="M355.5,248.6C355.5,248.5,355.5,248.5,355.5,248.6c-0.1-0.3-0.2-0.5-0.4-0.7c-0.1-0.1-0.2-0.1-0.3-0.2
		c0,0,0-0.1-0.1-0.1c-0.2-0.8-1.2-0.9-1.7-0.3c-0.1,0.1-0.2,0.2-0.3,0.3c-0.1,0.2-0.2,0.4-0.2,0.6c0,0.1,0,0.2,0,0.3
		c0,0.2,0,0.4,0,0.6c0,0,0,0.1,0,0.1c-0.1,0.4-0.1,0.8,0.1,1.1c0.2,0.4,0.7,0.6,1.1,0.7c0.1,0,0.2,0.1,0.3,0.1
		c0.9,0,1.1-0.9,1.3-1.6C355.5,249.2,355.6,248.9,355.5,248.6z"/>
	<path fill="#333333" d="M366.3,268.5c-1.6,1-2.9,0.9-3.9-0.8c-0.6-1.1-0.9-2.4-1-3.7c0.2-4.9-0.3-10.8-0.1-11.9
		c0.3-1.2-1.6-1.7-1.8-0.5c-0.6,2.7,0.1,5.8,0.2,8.6c0,0.6,0,1.3,0.1,1.9c-0.2,0.2-0.3,0.4-0.3,0.7c0,0.9,0.1,1.7,0.2,2.6
		c0,0.3,0,0.6,0,0.9c-0.1,1.4-0.2,4.1-2,2.5c-0.9-0.8-2.3,0.5-1.4,1.4c2.6,2.3,3.9,1.2,4.6-1.3c0.1,0.2,0.2,0.4,0.4,0.6
		c1.5,2.2,4,2.2,6.1,0.9C368.3,269.5,367.3,267.8,366.3,268.5z"/>
	<path fill="#333333" d="M386.6,256.5c-3.2,0.3-6.4,0.4-9.5,1.3c-1.2,0.4-0.7,2.2,0.5,1.8c2.9-0.9,6-0.9,9-1.2
		C387.8,258.3,387.8,256.4,386.6,256.5z"/>
	<path fill="#333333" d="M384.6,264.8c-2.2-0.6-4.4-1.3-6.5-2.5c-1.1-0.6-2,1.1-1,1.7c2.2,1.2,4.5,2,6.9,2.7
		C385.3,267,385.8,265.2,384.6,264.8z"/>
	<path fill="#333333" d="M383.1,261c-0.6,0-1.2,0.1-1.8-0.2c-0.5-0.2-1-0.1-1.3,0.3c-0.2,0.4-0.1,1.1,0.3,1.3
		c0.9,0.4,1.8,0.5,2.7,0.5C384.3,262.9,384.3,261,383.1,261z"/>
	<path fill="#333333" d="M334.9,266.7c3.2-0.3,6.4-0.4,9.5-1.3c1.2-0.4,0.7-2.2-0.5-1.8c-2.9,0.9-6,0.9-9,1.2
		C333.7,264.9,333.7,266.9,334.9,266.7z"/>
	<path fill="#333333" d="M336.9,258.4c2.2,0.6,4.4,1.3,6.5,2.5c1.1,0.6,2.1-1.1,1-1.7c-2.2-1.2-4.5-2-6.9-2.7
		C336.2,256.2,335.7,258.1,336.9,258.4z"/>
	<path fill="#333333" d="M338.4,262.3c0.6,0,1.2-0.1,1.8,0.2c0.5,0.2,1,0.1,1.3-0.3c0.2-0.4,0.1-1.1-0.3-1.3
		c-0.9-0.4-1.8-0.5-2.7-0.5C337.2,260.3,337.2,262.3,338.4,262.3z"/>
	<path fill="#333333" d="M360,378.5c-0.1-2.4-0.5-4.9-0.9-7.3c-0.9-5.1-0.9-10.5-1.2-15.6c-0.1-1.2-2-1.2-1.9,0
		c0.4,5.4,0.4,10.8,1.3,16.2c0.3,2,0.6,4,0.8,6c0.1,1.5,0.6,4.9-1.4,2.7c-0.3-0.3-1-0.4-1.4,0c-0.4-0.2-0.8-0.4-1.2-0.6
		c0-0.4-0.3-0.8-0.7-0.9c-0.6-0.1,1.3-8.5,1.3-9.8c-0.3-4.7-0.2-9.3-1.6-13.8c-0.4-1.2-2.2-0.7-1.8,0.5c1.5,4.7,2.3,11.7,1.3,16.6
		c-0.4,2-2.6,5.3-1.3,7.4c0.3,0.6,1,0.6,1.1,1.3c0.1,0.9,0.4,1.4,1,2.1c1.2,1.3,2.5-0.9,3.1-0.4C359.4,385.4,360,380.4,360,378.5z"
		/>
	<path fill="#333333" d="M374.7,378.5c-0.1-2.4-0.5-4.9-0.9-7.3c-0.9-5.1-0.9-10.5-1.2-15.6c-0.1-1.2-2-1.2-1.9,0
		c0.4,5.4,0.4,10.8,1.3,16.2c0.3,2,0.6,4,0.8,6c0.1,1.5,0.6,4.9-1.4,2.7c-0.3-0.3-1-0.4-1.4,0c-0.4-0.2-0.8-0.4-1.2-0.6
		c0-0.4-0.3-0.8-0.7-0.9c-0.6-0.1,1.3-8.5,1.3-9.8c-0.3-4.7-0.2-9.3-1.6-13.8c-0.4-1.2-2.2-0.7-1.8,0.5c1.5,4.7,2.3,11.7,1.3,16.6
		c-0.4,2-2.6,5.3-1.3,7.4c0.3,0.6,1,0.6,1.1,1.3c0.1,0.9,0.4,1.4,1,2.1c1.2,1.3,2.5-0.9,3.1-0.4
		C374.2,385.4,374.8,380.4,374.7,378.5z"/>
	<path fill="#333333" d="M338.6,413.1c-12.4-0.4-18.7-14.1-21.8-24.4c-4.3-13.9-2.5-28.4,6-40.3c0.7-1-0.9-2-1.7-1
		c-9.4,13.2-10.5,28.9-5.6,44c3.4,10.6,10.5,23.2,23,23.6C339.9,415,339.9,413.1,338.6,413.1z"/>
	<path fill="#333333" d="M396.3,292.1c-0.5-1.1-2.2-0.2-1.7,1c3.7,8.2,5.8,16.7,5.9,25.7c0,1.2,1.9,1.2,1.9,0
		C402.4,309.5,400.1,300.6,396.3,292.1z"/>
	<path fill="#333333" d="M327.8,306.2c0-7.6-1.2-15.2-1.3-22.8c0-1.2-1.9-1.2-1.9,0c0.1,7.6,1.3,15.2,1.3,22.8
		c0,7.6-0.3,15.2,0.9,22.8c0.2,1.2,2,0.7,1.8-0.5C327.5,321.1,327.8,313.6,327.8,306.2z"/>
	<path fill="#333333" d="M352.8,324.3c-1.2,0-1.2,1.9,0,1.9S354,324.3,352.8,324.3z"/>
	<path fill="#333333" d="M358.8,310.7c-1.2,0-1.2,1.9,0,1.9S360,310.7,358.8,310.7z"/>
	<path fill="#333333" d="M360.4,328.9v0.7c0,1.2,1.9,1.2,1.9,0v-0.7C362.4,327.6,360.4,327.6,360.4,328.9z"/>
	<path fill="#333333" d="M365.2,332.7c-1.2,0-1.2,1.9,0,1.9S366.5,332.7,365.2,332.7z"/>
	<path fill="#333333" d="M372.9,325.6l-0.2-0.2c-0.9-0.9-2.2,0.5-1.4,1.4l0.2,0.2C372.4,327.8,373.7,326.4,372.9,325.6z"/>
	<path fill="#333333" d="M371.5,318.8v0.7c0,1.2,1.9,1.2,1.9,0v-0.7C373.4,317.6,371.5,317.6,371.5,318.8z"/>
	<path fill="#333333" d="M369.3,315.5c-0.4-0.4-1-0.3-1.4,0c-0.2,0.2-0.5,0.3-0.7,0.5c-0.4,0.3-0.3,1,0,1.4c0.4,0.4,1,0.3,1.4,0
		c0.2-0.2,0.5-0.3,0.7-0.5C369.7,316.5,369.6,315.8,369.3,315.5z"/>
	<path fill="#333333" d="M358.5,321.9h-0.2c-1.2,0-1.2,1.9,0,1.9h0.2C359.8,323.8,359.8,321.9,358.5,321.9z"/>
	<path fill="#333333" d="M348.2,316.5C348.2,316.5,348.2,316.5,348.2,316.5c-0.2-1-1.9-1-1.9,0.2c0,0.5,0.2,0.8,0.5,1.2
		C347.7,318.7,349.1,317.3,348.2,316.5z"/>
	<path fill="#333333" d="M348.5,312.3c-1.2,0-1.2,1.9,0,1.9S349.7,312.3,348.5,312.3z"/>
	<path fill="#333333" d="M366,305.2c-1.2,0-1.2,1.9,0,1.9C367.2,307.1,367.2,305.2,366,305.2z"/>
	<path fill="#333333" d="M373.6,301.8c-1.2,0-1.2,1.9,0,1.9S374.9,301.8,373.6,301.8z"/>
	<path fill="#333333" d="M379.8,313.8c-0.8-0.9-2.1,0.4-1.4,1.3c0,0.1,0,0.2,0,0.4c0,1.2,1.9,1.2,1.9,0
		C380.3,314.8,380.2,314.3,379.8,313.8z"/>
	<path fill="#333333" d="M380.6,332l-0.7,0.7c-0.9,0.9,0.5,2.2,1.4,1.4l0.7-0.7C382.8,332.5,381.5,331.2,380.6,332z"/>
	<path fill="#333333" d="M374.2,343c-0.3-0.5-0.8-0.6-1.3-0.3c-0.1,0-0.2,0.1-0.3,0.1c0.2,0-0.1,0-0.2,0c-1.2,0-1.2,1.9,0,1.9
		c0.5,0,1-0.1,1.4-0.4C374.3,344.1,374.5,343.4,374.2,343z"/>
	<path fill="#333333" d="M344.4,337c-1.2,0-1.2,1.9,0,1.9C345.6,338.9,345.6,337,344.4,337z"/>
	<path fill="#333333" d="M348,331c-0.1-0.5-0.4-0.6-0.7-0.9c-0.4-0.3-1-0.4-1.4,0c-0.3,0.3-0.4,1,0,1.4c0.1,0.1,0.2,0.2,0.3,0.3
		c0,0,0,0,0,0c0.2,0.4,0.7,0.6,1.1,0.5C347.8,332,348,331.5,348,331z"/>
	<path fill="#333333" d="M356.8,341.7c-0.2-0.4-0.7-0.7-1.1-0.5c-0.5,0.2-0.8,0.7-0.7,1.2c0.1,0.6,0.6,1.1,1.1,1.1
		c0.5,0.1,1-0.1,1.2-0.7C357.4,342.4,357.2,341.8,356.8,341.7z"/>
	<path fill="#333333" d="M362.3,339.7c-0.2-1-1.9-1-1.9,0.2c0,0.6,0.3,1.3,0.9,1.4c0.5,0.1,1-0.1,1.2-0.7
		C362.7,340.3,362.5,340,362.3,339.7z"/>
	<path fill="#333333" d="M355.5,334c0,0-0.1-0.1-0.1-0.1c-0.1-0.1-0.3-0.1-0.4-0.2c-0.5-0.1-1,0.1-1.2,0.7c-0.1,0.4,0.1,1,0.6,1.1
		c0,0,0.1,0.1,0.1,0.1c0.1,0.1,0.3,0.1,0.4,0.2c0.5,0.1,1-0.1,1.2-0.7C356.2,334.7,356,334.1,355.5,334z"/>
</g>
<g>
	<path fill="#EDD019" d="M643.2,269.1c-2.4-8.3-6.3-16.7-13-22.4c-3.9-3.3-12-7.5-17.2-5c-8.1,3.8,6.7,24.4,9.1,28.4
		c4.2,6.9,6.7,15.2,7.2,23.3c0.3,4.9-0.5,10-3.8,13.8c-3.5,4.1-10.2,5.6-15.3,6.6c-16.7,3.3-34,0.3-50.8,2.1
		c-6.4,0.7-12.7,1.6-19.1,1.9c-5.1,0.3-15.1,1.4-18.4-3.6c-0.1-0.2-0.3-0.3-0.5-0.4c-0.4-1.5-0.9-2.9-1.3-4.3
		c-1.4-4.1-3.5-10.4-7.3-13.9c0,0,0-0.1,0-0.1c-1.4-5.1-4.4-9.5-6.5-14.3c-0.2-0.5-1.1-0.7-1.5-0.2c-2.5,3.3-4.4,6.8-5.3,10.8
		c-5.8-0.1-11.9,0.9-17.3,1.7c-5.4,0.8-11.2,1.7-16.3,3.8c-4.2-2.8-7.7-6.5-11.7-9.5c-0.6-0.4-1.4,0.2-1.4,0.8
		c0,7.5,0.6,14.9,0.6,22.4c0,0.3,0.1,0.5,0.3,0.7c-0.9,5-0.4,10.5,0,15.3c0.5,6.3,1.9,13.6,5,18.9c2.7,6.6,6.8,12.6,10.6,16.7
		c14.6,15.5,37.4,21.2,57.3,25.9c24.9,5.9,51.3,2.8,74.1-8.5c21.4-10.6,36.4-28.2,42.9-51.2C648.9,309.6,648.6,288.1,643.2,269.1z"
		/>
	<path fill="#333333" d="M461.5,297c-1.3-1.5-2.6-2.9-4.3-4c-0.6-0.4-1.4,0.1-1.4,0.8v3.8c0,1.2,1.9,1.2,1.9,0v-1.9
		c0.9,0.8,1.7,1.6,2.4,2.5C461,299.3,462.3,298,461.5,297z"/>
	<path fill="#333333" d="M504.7,286.4c-0.5,1.6-1.1,3-2.1,4.3c-0.8,1,0.9,1.9,1.7,1c1.1-1.4,1.8-3.1,2.3-4.8
		C506.9,285.8,505.1,285.3,504.7,286.4z"/>
	<path fill="#333333" d="M473.3,305.7c-0.1-0.1-0.3-0.2-0.4-0.3c-0.2-0.1-0.3-0.1-0.5-0.1c-0.2,0-0.3-0.1-0.5-0.1c0,0-0.1,0-0.1,0
		c0,0-0.1,0-0.1,0c-0.6-0.1-1.2,0.3-1.2,0.9v0.2c-0.4,0.7-0.5,1.6,0.1,2.3c0.5,0.6,1.6,0.6,2.2,0.3c0.7-0.3,1.6-0.9,1.5-1.8
		C474.2,306.4,473.8,306,473.3,305.7z"/>
	<path fill="#333333" d="M501.5,300.4c-0.1-0.1-0.3-0.2-0.4-0.3c-0.2-0.1-0.3-0.1-0.5-0.1c-0.2,0-0.3-0.1-0.5-0.1c0,0-0.1,0-0.1,0
		c0,0-0.1,0-0.1,0c-0.6-0.1-1.2,0.3-1.2,0.9v0.2c-0.4,0.7-0.5,1.6,0.1,2.3c0.5,0.6,1.6,0.6,2.2,0.3c0.7-0.3,1.6-0.9,1.5-1.8
		C502.4,301.1,502,300.7,501.5,300.4z"/>
	<path fill="#333333" d="M506.6,314.2c-0.4-1.2-2.2-0.7-1.8,0.5c1.3,3.7-6.1,4.5-8.4,4.4c-5-0.1-6.3-5.9-7.1-9.9c0,0,0,0,0,0
		c0.6-1,0.9-2,1.1-3.1c0.1-0.6-0.5-0.9-1-1c-1.7-0.2-3.1,0.1-4.6,1.1c-0.6,0.4-0.7,1.3,0,1.7c0.7,0.4,1.5,0.7,2,1.4
		c1,3.8,2.9,9.3-0.8,11.7c-1.3,0.9-3,1.2-4.6,1.5c-0.3,0.1-3.9,0.1-4,0.2c0.5-1.1-1.1-2.1-1.7-1c-2.1,4.3,7.1,2.5,8.7,2
		c4-1.2,5.2-3.8,5.4-6.9c1.5,2.6,3.9,4.3,7.7,4.3C501.1,321,508.3,319.2,506.6,314.2z"/>
	<path fill="#333333" d="M534.9,289.4c-0.1-2.8,1-8.7-3.1-7.7c-0.4-1.2-0.9-2.3-1.5-3.6c-0.2-0.4-0.7-0.6-1.1-0.4
		c-2.8,0.8-3.2,2.6-3,4.9c-0.9-0.3-1.8-0.4-2.2,0.7c-1.1,2.4,0,4,1.6,5.8c3.2,3.5,2.8,9.6,3.5,14.1c0.7,4.6,1.8,9.8,0.2,14.3
		c-0.4,1.2,1.4,1.7,1.8,0.5c1.8-4.8,0.6-10.4-0.2-15.3c-0.5-3-0.7-5.9-1.3-8.9c-0.2-1.2-0.6-3-1.3-4.1c-0.2-0.4-0.5-0.7-0.7-1.1
		c-1.1-0.9-1.4-2-1-3.5c0.6,0.5,1.8,0.2,1.6-0.7c-0.3-2,0.9-6.7,2-1.2c0.1,0.5,0.7,0.9,1.2,0.7c2.5-1,1.8,2.8,1.7,4.2
		c-0.2,2.2,0.2,4.4,0.6,6.5c1.4,8.1,3.4,16.1,4.1,24.3c0.1,1.2,2,1.2,1.9,0C538.9,309,535.3,299.3,534.9,289.4z"/>
	<path fill="#333333" d="M551.2,296.8c-0.1-2.8,1-8.7-3.1-7.7c-0.4-1.2-0.9-2.3-1.5-3.6c-0.2-0.4-0.7-0.6-1.1-0.4
		c-2.8,0.8-3.2,2.6-3,4.9c-0.9-0.3-1.8-0.4-2.2,0.7c-1.1,2.4,0,4,1.6,5.8c3.2,3.5,2.8,9.6,3.5,14.1c0.7,4.6,1.8,9.8,0.2,14.3
		c-0.4,1.2,1.4,1.7,1.8,0.5c1.8-4.8,0.6-10.4-0.2-15.3c-0.5-3-0.7-5.9-1.3-8.9c-0.2-1.2-0.6-3-1.3-4.1c-0.2-0.4-0.5-0.7-0.7-1.1
		c-1.1-0.9-1.4-2-1-3.5c0.6,0.5,1.8,0.2,1.6-0.7c-0.3-2,0.9-6.7,2-1.2c0.1,0.5,0.7,0.9,1.2,0.7c2.5-1,1.8,2.8,1.7,4.2
		c-0.2,2.2,0.2,4.4,0.6,6.5c1.4,8.1,3.4,16.1,4.1,24.3c0.1,1.2,2,1.2,1.9,0C555.1,316.4,551.6,306.7,551.2,296.8z"/>
	<path fill="#333333" d="M592.1,286.8c-0.1-2.8,1-8.7-3.1-7.7c-0.4-1.2-0.9-2.3-1.5-3.6c-0.2-0.4-0.7-0.6-1.1-0.4
		c-2.8,0.8-3.2,2.6-3,4.9c-0.9-0.3-1.8-0.4-2.2,0.7c-1.1,2.4,0,4,1.6,5.8c3.2,3.5,2.8,9.6,3.5,14.1c0.7,4.6,1.8,9.8,0.2,14.3
		c-0.4,1.2,1.4,1.7,1.8,0.5c1.8-4.8,0.6-10.4-0.2-15.3c-0.5-3-0.7-5.9-1.3-8.9c-0.2-1.2-0.6-3-1.3-4.1c-0.2-0.4-0.5-0.7-0.7-1.1
		c-1.1-0.9-1.4-2-1-3.5c0.6,0.5,1.8,0.2,1.6-0.7c-0.3-2,0.9-6.7,2-1.2c0.1,0.5,0.7,0.9,1.2,0.7c2.5-1,1.8,2.8,1.7,4.2
		c-0.2,2.2,0.2,4.4,0.6,6.5c1.4,8.1,3.4,16.1,4.1,24.3c0.1,1.2,2,1.2,1.9,0C596.1,306.4,592.5,296.8,592.1,286.8z"/>
	<path fill="#333333" d="M608.4,294.2c-0.1-2.8,1-8.7-3.1-7.7c-0.4-1.2-0.9-2.3-1.5-3.6c-0.2-0.4-0.7-0.6-1.1-0.4
		c-2.8,0.8-3.2,2.6-3,4.9c-0.9-0.3-1.8-0.4-2.2,0.7c-1.1,2.4,0,4,1.6,5.8c3.2,3.5,2.8,9.6,3.5,14.1c0.7,4.6,1.8,9.8,0.2,14.3
		c-0.4,1.2,1.4,1.7,1.8,0.5c1.8-4.8,0.6-10.4-0.2-15.3c-0.5-3-0.7-5.9-1.3-8.9c-0.2-1.2-0.6-3-1.3-4.1c-0.2-0.4-0.5-0.7-0.7-1.1
		c-1.1-0.9-1.4-2-1-3.5c0.6,0.5,1.8,0.2,1.6-0.7c-0.3-2,0.9-6.7,2-1.2c0.1,0.5,0.7,0.9,1.2,0.7c2.5-1,1.8,2.8,1.7,4.2
		c-0.2,2.2,0.2,4.4,0.6,6.5c1.4,8.1,3.4,16.1,4.1,24.3c0.1,1.2,2,1.2,1.9,0C612.3,313.8,608.8,304.1,608.4,294.2z"/>
	<path fill="#333333" d="M636.3,254.4c-2.4,2.7-5.6,3.9-8.9,5.3c-1.1,0.4-0.6,2.3,0.5,1.8c3.6-1.4,7.1-2.8,9.8-5.8
		C638.5,254.8,637.1,253.5,636.3,254.4z"/>
	<path fill="#333333" d="M643.1,275.4c-2.1,3-5.5,3.8-8.8,4.8c-1.2,0.4-0.7,2.2,0.5,1.8c3.8-1.2,7.5-2.3,9.9-5.7
		C645.5,275.4,643.8,274.4,643.1,275.4z"/>
	<path fill="#333333" d="M643.7,297.5c-2,1.8-4.9,2.3-7.5,2.1c-1.2-0.1-1.2,1.8,0,1.9c3.1,0.2,6.5-0.5,8.8-2.7
		C646,298,644.6,296.7,643.7,297.5z"/>
	<path fill="#333333" d="M464.9,319.2c-4.1-2.6-10.8-2.4-15.1-0.2c-1.1,0.6-0.1,2.2,1,1.7c3.7-1.9,9.6-2,13.2,0.2
		C465,321.5,466,319.8,464.9,319.2z"/>
	<path fill="#333333" d="M465.9,322.6c-5.4,0.7-8.9,4.9-12.2,8.9c-0.8,1,0.6,2.3,1.4,1.4c2.8-3.5,6-7.7,10.8-8.3
		C467.1,324.4,467.1,322.5,465.9,322.6z"/>
	<path fill="#333333" d="M458.9,321.7c-3,0.6-5.8,1.4-8.1,3.4c-0.9,0.8,0.4,2.1,1.4,1.4c2.1-1.7,4.7-2.4,7.2-2.9
		C460.6,323.3,460.1,321.5,458.9,321.7z"/>
	<path fill="#333333" d="M518.4,303.5c-3.7,0.4-6.9,2.9-9,6c-0.7,1,1,2,1.7,1c1.6-2.4,4.3-4.7,7.3-5
		C519.6,305.3,519.6,303.3,518.4,303.5z"/>
	<path fill="#333333" d="M519.3,314.8c-2-0.7-4.2-1.2-6.2-1.9c-1.2-0.4-1.7,1.5-0.5,1.8c2.1,0.7,4.2,1.2,6.2,1.9
		C520,317,520.5,315.2,519.3,314.8z"/>
	<path fill="#333333" d="M519.8,310.2c-2-0.3-3.9-0.5-5.8,0.3c-1.1,0.5-0.2,2.2,1,1.7c1.3-0.6,2.9-0.3,4.3-0.1
		C520.5,312.2,521,310.4,519.8,310.2z"/>
	<path fill="#333333" d="M540.4,382.3c-9.4-1.9-19-2.9-28.3-5.4c-4.7-1.3-9.3-3.2-13.6-5.4c-4.2-2.1-6.9-5.7-10.8-8.2
		c-1-0.7-2,1-1,1.7c3.9,2.5,6.7,6,10.8,8.2c3.9,2.1,8.2,3.7,12.4,5.1c9.7,3.2,20,3.9,30,5.9C541.1,384.4,541.6,382.6,540.4,382.3z"
		/>
	<path fill="#333333" d="M531.8,359.1c0-1.2-1.9-1.2-1.9,0c0,1.3,0.3,2.6,0.5,3.8c0.2,1.2,2.1,0.7,1.8-0.5
		C532,361.3,531.8,360.2,531.8,359.1z"/>
	<path fill="#333333" d="M539.4,367.4c-0.5-1.9-0.9-3.8-1.2-5.7c-0.1-1.2-2.1-1.2-1.9,0c0.3,2.1,0.7,4.2,1.2,6.2
		C537.9,369.1,539.7,368.6,539.4,367.4z"/>
	<path fill="#333333" d="M541.4,352.6c0-1.2-1.9-1.2-1.9,0c0,1.7,0.5,3.4,0.8,5c0.2,1.2,2.1,0.7,1.8-0.5
		C541.8,355.6,541.4,354.1,541.4,352.6z"/>
	<path fill="#333333" d="M555.2,359.1c-0.5-1.3-0.8-2.7-1.2-4.1c-0.4-1.2-2.2-0.7-1.8,0.5c0.4,1.3,0.7,2.7,1.2,4.1
		C553.8,360.7,555.7,360.2,555.2,359.1z"/>
	<path fill="#333333" d="M547.2,361.5c-0.7-1-2.3-0.1-1.7,1c0.9,1.4,1.3,2.9,1.5,4.5c0.2,1.2,2.1,1.2,1.9,0
		C548.8,365,548.3,363.1,547.2,361.5z"/>
	<path fill="#333333" d="M569.6,357.1l-1.4-6.5c-0.3-1.2-2.1-0.7-1.8,0.5l1.4,6.5C568,358.9,569.9,358.3,569.6,357.1z"/>
	<path fill="#333333" d="M562.6,367.7c-0.7-1.1-1.2-2.3-1.6-3.6c-0.4-1.2-2.2-0.7-1.8,0.5c0.5,1.4,1,2.8,1.8,4.1
		C561.5,369.7,563.2,368.8,562.6,367.7z"/>
	<path fill="#333333" d="M579.6,365.8c-0.3-0.5-0.7-0.9-1-1.4c-0.6-1.1-2.2-0.1-1.7,1c0.3,0.5,0.7,0.9,1,1.4
		C578.5,367.8,580.2,366.9,579.6,365.8z"/>
	<path fill="#333333" d="M587.1,354.5c-0.5-1.7-0.9-3.5-1.2-5.3c-0.2-1.2-2-0.7-1.8,0.5c0.3,1.8,0.7,3.5,1.2,5.3
		C585.6,356.2,587.4,355.7,587.1,354.5z"/>
	<path fill="#333333" d="M595.2,360.3c-0.5-1.1-2.2-0.1-1.7,1c0.4,0.9,0.8,1.9,0.8,2.9c0,1.2,1.9,1.2,1.9,0
		C596.2,362.7,595.8,361.5,595.2,360.3z"/>
	<path fill="#333333" d="M580.4,357.4c-0.2-0.7-0.5-1.5-0.8-2.1c-0.2-0.5-0.9-0.6-1.3-0.3c-0.5,0.3-0.6,0.8-0.3,1.3
		c0.3,0.5,0.4,1.1,0.6,1.7C578.9,359.1,580.8,358.6,580.4,357.4z"/>
	<path fill="#333333" d="M600.8,355.2c-0.5-1.3-0.9-2.6-1.4-3.8c-0.4-1.1-2.3-0.6-1.8,0.5c0.5,1.3,0.9,2.6,1.4,3.8
		C599.4,356.9,601.2,356.4,600.8,355.2z"/>
	<path fill="#333333" d="M612,349.2c-0.2-1.2-2-0.7-1.8,0.5c0.2,1.6,0.5,3.2,0.7,4.8c0.2,1.2,2,0.7,1.8-0.5
		C612.5,352.4,612.3,350.8,612,349.2z"/>
</g>
<g>
	<path fill="#F39DA3" d="M278.7,345.2c-1.6-16.4-7.3-33.6-21.1-43.7c-7.9-5.8-17.4-7-26.9-8c-14.1-1.4-28.3-2.1-42.5-2.2
		c-24.3-0.2-48.5,1.4-72.6,4.4c-0.7-2.8-1.5-5.6-2.3-8.2c-1.3-4.1-3.5-10.4-7.2-13.9c0,0,0-0.1,0-0.1c-1.4-5.1-4.4-9.5-6.5-14.3
		c-0.2-0.5-1.1-0.7-1.5-0.2c-1.8,2.3-4.2,7.4-5.9,11.7c-9.4-2.9-18.9-0.8-28.2,3.1c-1.7,0.5-3.3,1-4.8,1.6
		c-4.2-2.8-7.7-6.5-11.7-9.5c-0.6-0.4-1.4,0.2-1.4,0.8c0,7.5,0.6,14.9,0.6,22.4c0,0.3,0.1,0.5,0.3,0.7c-0.9,5-0.4,10.5,0,15.3
		c1.1,12.4,5.1,28.4,19.7,26.5c2.3,0.4,4.8,0.5,7.2,0.5c1.7,2.1,3.7,3.9,5.9,5.5c8.4,6.4,18.6,10.2,28.9,11.6
		c13.8,1.9,28.1,0.6,42,1c15.1,0.5,30.2,0.9,45.3,0.9c13.5,0,27.2,0.5,40.5-1.8c6-1,12.4-2.3,18.4-0.6c6.8,2,6.6,8.7,5.4,14.3
		c-1.7,8.1-6.4,16.4-5,24.9c1.1,6.6,7.3,10.3,13.2,5.5c6.2-5.1,8.5-14.7,9.8-22.3C279.8,362.7,279.5,353.7,278.7,345.2z"/>
	<path fill="#333333" d="M69.5,285.6c0,0,0-0.1,0-0.1c0,0,0,0,0,0c0,0,0,0,0,0c0-0.1-0.1-0.1-0.1-0.2c-0.1-0.1-0.2-0.2-0.3-0.3
		c-0.6-0.6-1.6-0.2-1.6,0.7c-0.3,0.5-0.5,1-0.2,1.5c0.2,0.2,0.4,0.4,0.6,0.4c0.1,0.1,0.1,0.2,0.2,0.3c0.4,0.4,1.3,0.4,1.5-0.2
		C69.8,287,69.9,286.2,69.5,285.6z"/>
	<path fill="#333333" d="M84.8,283.1c0.2-0.5,0.1-1-0.4-1.3c-0.5-0.3-1.3-0.5-1.8,0c-0.2,0.2-0.3,0.4-0.4,0.7c0,0.1,0,0.1,0,0.2
		c0,0.1,0,0.1,0,0.1c0,0,0,0,0,0c-0.1,0.3-0.2,0.5-0.1,0.8c0,0.2,0.1,0.5,0.3,0.7c0.1,0.3,0.3,0.5,0.6,0.6c0.3,0.1,0.7,0,0.9-0.2
		c0.1-0.1,0.2-0.1,0.3-0.2c0,0,0,0,0,0c0.1,0,0.3-0.1,0.4-0.2c0.1-0.1,0.2-0.2,0.2-0.3C85,283.7,85,283.4,84.8,283.1z"/>
	<path fill="#333333" d="M88.9,306.8c-3.5,1.6-7.2-0.3-8.6-3.4c-0.1-0.9-0.3-1.9-0.5-2.8c0-0.1,0-0.2,0-0.3c0-0.3-0.1-0.5-0.2-0.7
		c-0.7-2.7-1.6-5.4-2.1-7.5c0.3-0.1,0.5-0.4,0.5-0.8c0-1.4,0.1-2.7,0-4.1c0-0.7-0.6-1-1.2-0.9c-1,0.1-2,0.3-2.9,0.6
		c-0.5,0.2-0.8,0.7-0.7,1.2c0.3,1.7,1,2.6,2.3,3.5c0.6,2.3,1.7,5.6,2.5,8.7c0,0,0,0,0,0c-0.1,1.4,0.2,2.7,0.7,3.9
		c0.2,3.1-0.7,5.4-4.2,5c-1.2-0.1-1.2,1.8,0,1.9c4.2,0.4,5.8-1.4,6.1-4.3c2.4,2.2,6.1,3.1,9.4,1.6C91,307.9,90.1,306.3,88.9,306.8z"
		/>
	<path fill="#333333" d="M58.2,305.1c-6.4,1.6-12.7,2.1-16.9,7.8c-0.7,1,0.9,2,1.7,1c3.7-5.2,10-5.5,15.7-6.9
		C59.9,306.7,59.4,304.8,58.2,305.1z"/>
	<path fill="#333333" d="M62.4,316.4c-5.4,4-7.3,10.4-9.1,16.5c-0.3,1.2,1.5,1.7,1.8,0.5c1.6-5.6,3.3-11.8,8.2-15.4
		C64.4,317.3,63.4,315.6,62.4,316.4z"/>
	<path fill="#333333" d="M55.1,313.8c-4.4,2.1-7.3,6-9.1,10.5c-0.5,1.1,1.4,1.6,1.8,0.5c1.6-4,4.3-7.4,8.2-9.3
		C57.2,314.9,56.2,313.3,55.1,313.8z"/>
	<path fill="#333333" d="M116.6,282.7c-7.5,2.6-14.9,5.7-20.6,11.4c-0.9,0.9,0.5,2.2,1.4,1.4c5.4-5.5,12.5-8.4,19.7-10.9
		C118.3,284.2,117.8,282.3,116.6,282.7z"/>
	<path fill="#333333" d="M114.3,298.4c-5.1-1.2-10.1-0.1-15.2,0.6c-1.2,0.2-0.7,2,0.5,1.8c4.7-0.7,9.4-1.7,14.2-0.6
		C115,300.5,115.5,298.7,114.3,298.4z"/>
	<path fill="#333333" d="M115.1,290.7c-3.6,1-7.2,1.8-10.9,2.2c-1.2,0.1-1.2,2,0,1.9c3.9-0.4,7.7-1.3,11.4-2.3
		C116.8,292.3,116.2,290.4,115.1,290.7z"/>
	<path fill="#333333" d="M101.8,341.1c-5.2,4.9-9.8,10.5-15.3,15.1c-0.8,0.7-3.4,2.8-3.2,4.1c0,0.3,0,0.8,0.2,1.1
		c2.2,3.5-3.3,4.1-2.8,1.4c0.2-1-1.2-1.8-1.8-0.7c-3.9,2.5-5,1.8-3.3-2.4c0.6-0.5,0.2-1.4-0.4-1.6c0.5-1.2,1.2-1.6,2.1-1.2
		c0.3,0.1,0.5,0.2,0.8,0.3c0.1,0.7,1.3,1.1,1.8,0.3c0,0,0,0,0,0c0.2-0.1,0.3-0.3,0.4-0.5c4.7-6.1,9.9-11.9,14.3-18.3
		c0.7-1-1-2-1.7-1c-4.2,6.2-9.3,11.9-13.9,17.8c-2.1-0.8-3.8-1-5.9,0.4c-1.9,1.1-0.9,2.5,0.3,3.3c-2.7,3.8,2.2,8.4,5.7,5.6
		c1.1,2.5,4.7,3,6.8,0.1c0.5-0.6,0.9-1.3,0.7-2.2c-0.2-0.6-0.6-1.2-1-1.7c-1-1.3,2.8-4,3.5-4.6c5.1-4.2,9.3-9.5,14.1-14.1
		C104.1,341.6,102.7,340.3,101.8,341.1z"/>
	<path fill="#333333" d="M116.6,343.4c-3.4,6.3-6,13-9.9,19.1c-0.6,0.9-2.3,3.7-1.8,4.9c0.1,0.3,0.3,0.8,0.5,1
		c3.2,2.6-1.9,4.9-2.2,2.2c-0.1-1-1.7-1.3-1.9-0.2c-2.9,3.6-4.2,3.2-3.9-1.2c0.4-0.7-0.2-1.4-0.9-1.4c0.1-1.3,0.6-1.8,1.7-1.8
		c0.3,0,0.6,0,0.8,0.1c0.3,0.6,1.5,0.6,1.8-0.3c0,0,0,0,0-0.1c0.1-0.2,0.2-0.4,0.2-0.6c2.6-7.3,5.8-14.4,7.9-21.8
		c0.3-1.2-1.5-1.6-1.9-0.4c-2.1,7.3-5.2,14.2-7.7,21.3c-2.2-0.1-3.9,0.3-5.5,2.2c-1.4,1.7-0.1,2.6,1.3,3.1c-1.4,4.5,4.7,7.3,7.1,3.6
		c1.8,2,5.4,1.4,6.4-2c0.2-0.8,0.4-1.5-0.1-2.3c-0.4-0.6-0.9-0.9-1.4-1.3c-1.3-1,1.4-4.6,1.9-5.5c3.5-5.5,5.9-11.9,9-17.7
		C118.9,343.2,117.2,342.3,116.6,343.4z"/>
	<path fill="#333333" d="M226.7,343.1c-4.8,5.3-9,11.2-14.1,16.2c-0.7,0.7-3.1,3-2.9,4.4c0.1,0.3,0.1,0.8,0.3,1.1
		c2.5,3.3-3,4.4-2.7,1.6c0.1-1-1.3-1.7-1.8-0.6c-3.7,2.8-4.8,2.1-3.5-2.1c0.5-0.6,0.1-1.4-0.5-1.6c0.4-1.2,1.1-1.6,2-1.3
		c0.3,0.1,0.5,0.2,0.8,0.3c0.2,0.7,1.3,1,1.8,0.2c0,0,0,0,0,0c0.2-0.1,0.3-0.3,0.3-0.5c4.2-6.5,9-12.6,12.9-19.3
		c0.6-1.1-1.1-1.9-1.7-0.8c-3.8,6.5-8.4,12.5-12.5,18.8c-2.1-0.7-3.8-0.7-5.9,0.8c-1.8,1.3-0.8,2.5,0.5,3.3c-2.4,4,2.8,8.2,6.1,5.2
		c1.3,2.4,4.9,2.6,6.7-0.4c0.4-0.7,0.8-1.4,0.5-2.2c-0.2-0.6-0.7-1.1-1.1-1.6c-1.1-1.3,2.5-4.2,3.2-4.8c4.7-4.5,8.5-10.2,13-15.1
		C229,343.5,227.6,342.2,226.7,343.1z"/>
	<path fill="#333333" d="M241.6,344.3c-2.9,6.5-5,13.5-8.4,19.8c-0.5,0.9-2.1,3.8-1.4,5c0.1,0.3,0.3,0.7,0.6,0.9
		c3.4,2.4-1.5,5.1-2.1,2.4c-0.2-1-1.8-1.2-1.9,0c-2.6,3.8-3.9,3.5-3.9-0.9c0.3-0.7-0.3-1.3-1-1.3c0-1.3,0.5-1.9,1.5-1.9
		c0.3,0,0.6,0,0.9,0c0.4,0.6,1.6,0.5,1.8-0.4c0,0,0,0,0-0.1c0.1-0.2,0.2-0.4,0.2-0.6c2-7.5,4.6-14.8,6.2-22.4
		c0.3-1.2-1.6-1.5-1.9-0.3c-1.5,7.4-4.1,14.5-6.1,21.8c-2.2,0-3.8,0.5-5.3,2.6c-1.3,1.8,0.1,2.6,1.5,3c-1.1,4.6,5.2,7,7.4,3
		c2,1.9,5.5,1,6.3-2.5c0.2-0.8,0.3-1.6-0.2-2.3c-0.4-0.5-1-0.9-1.5-1.2c-1.4-0.9,1-4.7,1.5-5.6c3.1-5.8,5-12.3,7.7-18.3
		C243.8,343.9,242.1,343.2,241.6,344.3z"/>
	<path fill="#333333" d="M270.2,350.8c-0.2-1.2-2.1-0.7-1.8,0.5c0.3,1.4,0.3,2.8,0.3,4.2c0,1.2,1.9,1.2,1.9,0
		C270.6,354,270.5,352.4,270.2,350.8z"/>
	<path fill="#333333" d="M272.5,355.8c-0.3-0.4-1-0.3-1.4,0c-0.4,0.4-0.3,1,0,1.4c0,0.1,0,0.4,0,0.6c0,1.2,1.9,1.2,1.9,0
		C273.1,357.1,273,356.4,272.5,355.8z"/>
	<path fill="#333333" d="M275.4,350.8c0-1.2-1.9-1.2-1.9,0c0,0.9,0.3,1.7,0.3,2.6c0,1.2,1.9,1.2,1.9,0
		C275.7,352.5,275.4,351.6,275.4,350.8z"/>
	<path fill="#333333" d="M264.2,378.6c-0.3-1.2-2.1-0.7-1.8,0.5c0.3,1.4,0.3,2.8,0.3,4.2c0,1.2,1.9,1.2,1.9,0
		C264.5,381.8,264.5,380.2,264.2,378.6z"/>
	<path fill="#333333" d="M267.4,377.7c-0.2-1.2-2.1-0.7-1.8,0.5c0.3,1.5,0.3,3,0.3,4.5c0,1.2,1.9,1.2,1.9,0
		C267.7,381,267.7,379.3,267.4,377.7z"/>
	<path fill="#333333" d="M269.3,377.6c0,0.6,0.1,1.5-0.2,2.1c-0.2,0.5-0.1,1,0.3,1.3c0.4,0.2,1.1,0.1,1.3-0.3c0.4-1,0.5-2,0.5-3
		C271.2,376.4,269.3,376.4,269.3,377.6z"/>
	<path fill="#333333" d="M265.8,373.1c-0.3-0.4-1-0.4-1.4,0c-0.3,0.3-0.3,0.8-0.1,1.2c-0.2,0.4-0.2,0.8,0.1,1.2c0.4,0.4,1,0.4,1.4,0
		C266.5,374.7,266.5,373.8,265.8,373.1z"/>
	<path fill="#333333" d="M135.4,305.7v3.8c0,1.2,1.9,1.2,1.9,0v-3.8C137.4,304.5,135.4,304.5,135.4,305.7z"/>
	<path fill="#333333" d="M140.2,303.8v3.5c0,1.2,1.9,1.2,1.9,0v-3.5C142.1,302.6,140.2,302.6,140.2,303.8z"/>
	<path fill="#333333" d="M150,299.2c-0.2-0.5-0.9-0.6-1.3-0.3c-0.5,0.3-0.6,0.8-0.3,1.3c0.2,0.5,0.2,1.2,0.2,1.8
		c0,1.2,1.9,1.2,1.9,0C150.5,300.9,150.4,300,150,299.2z"/>
	<path fill="#333333" d="M146.9,310.2c-0.3-1.2-2.1-0.7-1.8,0.5c0.3,1.3,0.3,2.6,0.3,3.9c0,1.2,1.9,1.2,1.9,0
		C147.3,313.2,147.2,311.7,146.9,310.2z"/>
	<path fill="#333333" d="M148.4,308.4c-0.2-0.4-0.5-0.9-0.5-1.4c-0.1-1.2-2-1.2-1.9,0c0,0.9,0.4,1.6,0.8,2.4
		C147.3,310.5,149,309.5,148.4,308.4z"/>
	<path fill="#333333" d="M159.1,308.9c0-1.2-1.9-1.2-1.9,0c0,1.6,0.1,3.2,0.4,4.7c0.2,1.2,2.1,0.7,1.8-0.5
		C159.1,311.7,159.1,310.3,159.1,308.9z"/>
	<path fill="#333333" d="M157.2,300c-0.3,1-0.4,2.1-0.6,3.2c-0.3,1.2,1.6,1.7,1.8,0.5c0.3-1.1,0.3-2.2,0.6-3.2
		C159.4,299.4,157.6,298.8,157.2,300z"/>
	<path fill="#333333" d="M153.8,311c-0.2-0.5-0.2-1.2-0.2-1.8c0-1.2-1.9-1.2-1.9,0c0,0.9,0.1,1.9,0.5,2.7c0.2,0.5,0.9,0.6,1.3,0.3
		C154,312,154.1,311.5,153.8,311z"/>
	<path fill="#333333" d="M167.4,307.3c-0.3-0.3-0.3-0.8-0.2-1.1c0.2-0.5,0.1-1-0.3-1.3c-0.4-0.2-1.1-0.1-1.3,0.3
		c-0.5,1.2-0.4,2.4,0.5,3.4C166.9,309.5,168.3,308.2,167.4,307.3z"/>
	<path fill="#333333" d="M207.6,309.6c-0.3-1.4-0.3-2.8-0.6-4.2c-0.3-1.2-2.1-0.7-1.8,0.5c0.3,1.4,0.3,2.8,0.6,4.2
		C206,311.3,207.9,310.8,207.6,309.6z"/>
	<path fill="#333333" d="M213,305.5c-0.3-1.5-0.7-3-1-4.5c-0.2-1.2-2.1-0.7-1.8,0.5c0.3,1.5,0.7,3,1,4.5
		C211.4,307.2,213.3,306.7,213,305.5z"/>
	<path fill="#333333" d="M218.8,304.2c-0.3-0.8-0.4-1.7-0.6-2.6c-0.4-1.2-2.2-0.7-1.8,0.5c0.3,0.8,0.4,1.7,0.6,2.6
		C217.3,305.9,219.2,305.4,218.8,304.2z"/>
	<path fill="#333333" d="M225.8,304.5c-0.4-1.2-2.2-0.7-1.8,0.5c0.3,1.1,0.3,2.2,0.3,3.3c0,1.2,1.9,1.2,1.9,0
		C226.2,307,226.2,305.7,225.8,304.5z"/>
	<path fill="#333333" d="M213.9,311c-0.7-1-2.3-0.1-1.7,1c0.5,0.8,0.5,1.8,0.5,2.7c0,1.2,1.9,1.2,1.9,0
		C214.7,313.4,214.6,312.1,213.9,311z"/>
	<path fill="#333333" d="M218.8,312.1v1.6c0,1.2,1.9,1.2,1.9,0v-1.6C220.7,310.9,218.8,310.9,218.8,312.1z"/>
	<path fill="#333333" d="M206.2,316.4c-0.2-0.5-0.9-0.6-1.3-0.3c-0.5,0.3-0.6,0.8-0.3,1.3c0.2,0.4,0.2,0.7,0.2,1.1
		c0,1.2,1.9,1.2,1.9,0C206.7,317.7,206.6,317.1,206.2,316.4z"/>
	<path fill="#333333" d="M227.3,316.7c-0.1-0.3-0.2-0.7-0.3-1c-0.1-0.4-0.2-0.8-0.4-1.2c-0.2-0.5-0.9-0.6-1.3-0.3
		c-0.5,0.3-0.6,0.8-0.3,1.3c0.1,0.3,0.2,0.7,0.3,1c0.1,0.4,0.2,0.8,0.4,1.2c0.2,0.5,0.9,0.6,1.3,0.3
		C227.5,317.8,227.5,317.2,227.3,316.7z"/>
	<path fill="#333333" d="M237.1,310.9c-0.2,0.7-0.2,1.6-0.5,2.3c-0.2,0.5-0.1,1,0.3,1.3c0.4,0.2,1.1,0.1,1.3-0.3
		c0.4-0.9,0.4-1.9,0.7-2.8C239.3,310.2,237.4,309.7,237.1,310.9z"/>
	<path fill="#333333" d="M192.4,342.8c-8.4,1.2-16.8,0.2-25.2,0.3c-7.6,0.1-15.4,1.5-22.9-0.6c-1.2-0.3-1.7,1.5-0.5,1.8
		c7.6,2.1,15.6,0.9,23.4,0.7c8.6-0.3,17.1,0.9,25.7-0.4C194.1,344.5,193.6,342.6,192.4,342.8z"/>
	<path fill="#333333" d="M68,277c-0.2-0.8-0.3-1.5-0.3-2.3c0-1.2-1.9-1.2-1.9,0c0,1,0.1,1.9,0.4,2.8C66.5,278.7,68.4,278.2,68,277z"
		/>
	<path fill="#333333" d="M73.6,274.2c-0.2-0.4-0.2-0.7-0.2-1.1c0-1.2-1.9-1.2-1.9,0c0,0.8,0.1,1.4,0.5,2.1c0.2,0.5,0.9,0.6,1.3,0.3
		C73.8,275.3,73.9,274.7,73.6,274.2z"/>
	<path fill="#333333" d="M82.4,273.8c-0.2-0.8-0.3-1.5-0.3-2.3c0-1.2-1.9-1.2-1.9,0c0,1,0.1,1.9,0.4,2.8
		C80.9,275.5,82.7,275,82.4,273.8z"/>
</g>
<g>
	<path fill="#C4C5C7" d="M215.5,94c-1.3-4.1-3.5-10.4-7.2-13.9c0,0,0-0.1,0-0.1c-1.4-5.1-4.4-9.5-6.5-14.3c-0.2-0.5-1.1-0.7-1.5-0.2
		c-2.5,3.3-4.4,6.8-5.3,10.8c-5.8-0.1-11.9,0.9-17.3,1.7c-5.4,0.8-11.2,1.7-16.3,3.8c-4.2-2.8-7.7-6.5-11.7-9.5
		c-0.6-0.4-1.4,0.2-1.4,0.8c0,7.5,0.6,14.9,0.6,22.4c0,0.3,0.1,0.5,0.3,0.7c-0.3,1.8-0.5,3.7-0.5,5.6c-2.5,0-5,0.2-7.4,0.4
		c-27.2,2.7-59.5,16.5-69.2,44.2c-5,14.3,1.5,28.5,13,37.3c5.7,4.4,12.6,7.2,19.8,8.6c8.8,6.3,24.7,4.2,33.9,2.8
		c17.6-2.7,33.6-9.2,45.9-22.6c9.5-10.3,14-23.7,12.1-36.6c4.9-1.1,9.7-2.5,14.2-4.6c5.4-2.6,8.1-6,8.6-12
		C220.2,111,218.1,102,215.5,94z"/>
	<path fill="#333333" d="M180.7,90.8c0,0,0-0.1,0-0.1c0-1.1-1.5-1.2-1.8-0.3c0,0-0.1,0-0.1,0c-0.9-0.3-1.4,0.6-1.4,1.4
		c0,0.4,0.2,0.7,0.5,0.8c0,0,0,0.1,0,0.1c0,0.5,0.4,1,1,1c0,1.1,1.6,1.3,1.9,0.3c0.2-0.6,0.3-1.3,0.5-1.9
		C181.3,91.5,181.1,91,180.7,90.8z"/>
	<path fill="#333333" d="M201.9,86.3c-0.1,0-0.1-0.1-0.2-0.1c-0.3-0.4-0.8-0.6-1.2-0.4c-0.2,0-0.4,0-0.6,0.2
		c-0.2,0.1-0.4,0.4-0.6,0.6c0,0,0,0.1,0,0.1c0,0,0,0,0,0c0,0-0.1,0-0.1,0.1c0,0-0.1,0.1-0.1,0.1c-0.9,0.5-0.4,1.8,0.5,1.8
		c0.1,0.4,0.4,0.8,0.7,1.2c0.6,0.6,1.6,0.1,1.6-0.7c0-0.1,0-0.3,0-0.4c0,0,0-0.1,0-0.1c0-0.2,0-0.3,0-0.5c0,0,0-0.1,0-0.1
		c0,0,0,0,0-0.1C202.4,87.5,202.5,86.7,201.9,86.3z"/>
	<path fill="#333333" d="M209,119.2c-2.7,2.1-5.3-1.4-6.6-3.5c-1.2-4.1-3.3-8.6-4.8-11.7c0.2-0.1,0.4-0.3,0.5-0.6
		c0.5-1.7,0.5-3.6,0-5.3c-0.1-0.3-0.3-0.6-0.7-0.7c-2.7-0.4-4.8,0.5-7,2c-0.5,0.4-0.7,1-0.2,1.5c0.4,0.4,0.8,0.7,1.2,1
		c-0.1,0.5,0,1,0.6,1.2c0.9,0.2,1.8,0.5,2.6,0.9c0.2,0.1,0.5,0.1,0.7,0c1.3,2.8,2.6,5.5,3.8,8.4c0.3,0.7,0.8,2,1.3,3.5
		c0,0.2,0,0.4,0.1,0.7c0.1,0.1,0.1,0.2,0.2,0.3c1.1,3.6,1.6,7.6-2,6.9c-1.2-0.2-1.7,1.6-0.5,1.8c4.4,0.8,5.5-1.9,5-5.7
		c2,1.8,4.4,2.7,7,0.7C211.4,119.8,210,118.5,209,119.2z"/>
	<path fill="#333333" d="M226.3,99.8c-6.6-1.8-11.8,3.9-16.3,7.9c-0.9,0.8,0.4,2.2,1.4,1.4c3.9-3.5,8.6-9,14.4-7.4
		C227,102,227.5,100.1,226.3,99.8z"/>
	<path fill="#333333" d="M228.3,121.8c-3.4-5.6-9.9-7.6-16.2-7.7c-1.2,0-1.2,1.9,0,1.9c5.5,0.1,11.5,1.7,14.5,6.7
		C227.3,123.9,228.9,122.9,228.3,121.8z"/>
	<path fill="#333333" d="M226.5,112.9c-3.7-2.5-8.1-2.5-12.5-2.5c-1.2,0-1.2,1.9,0,1.9c4,0,8,0,11.5,2.3
		C226.6,115.2,227.5,113.5,226.5,112.9z"/>
	<path fill="#333333" d="M185.8,115.6c-5.7-0.6-12.5,0.4-15.7,5.7c-0.6,1.1,1,2,1.7,1c2.8-4.7,9-5.3,14-4.8
		C187,117.6,187,115.7,185.8,115.6z"/>
	<path fill="#333333" d="M182.9,110.5c-2.1-1-4.3-1.5-6.7-1.6c-1.2,0-1.2,1.9,0,1.9c2,0,3.9,0.4,5.7,1.3
		C183,112.7,184,111,182.9,110.5z"/>
	<path fill="#333333" d="M189.6,120.9c-2.7,0.3-5.3,0.8-7.5,2.4c-2.3,1.7-3.3,4.4-3.5,7.2c-0.1,1.2,1.8,1.2,1.9,0
		c0.5-5.2,4.3-7.2,9.1-7.7C190.8,122.7,190.8,120.8,189.6,120.9z"/>
	<path fill="#333333" d="M170.5,178.2c-1.7-5-13.6,0.8-16.2,1.7c-5,1.6-10.5,1.9-15.7,2.3c-4.2,0.3-32.3,3.5-32.6-3.1
		c-0.1-1.2-2-1.2-1.9,0c0.3,6,11.7,5.8,16.8,5.8c0,0.1,0,0.2,0,0.2c0.2,0.6-0.5,1.4-0.8,1.9c-0.5,0.7-1.2,1.4-1.9,1.9
		c-1,0.7,0,2.4,1,1.7c1.5-1.1,4-3.5,3.6-5.6c2.8,0,5.7,0,8.5-0.1c-0.6,0.9-1.3,1.8-2.3,2.4c-1,0.7-0.1,2.3,1,1.7
		c1.4-0.9,2.4-2.1,3.2-3.5c0.2-0.2,0.2-0.5,0.1-0.7c1.9-0.1,3.9-0.2,5.8-0.4c-0.7,1.1-1.3,2.2-2,3.2c-0.7,1,1,2,1.7,1
		c1-1.5,1.8-3,2.8-4.4c2.4-0.2,4.8-0.5,7.2-0.9c0.4-0.1,0.8-0.1,1.2-0.2c0,0.9-0.6,1.6-1.2,2.2c-0.9,0.8,0.4,2.1,1.4,1.4
		c1.2-1,1.8-2.4,1.7-4c2.3-0.6,4.6-1.3,6.8-2.1c-0.2,0.9-0.7,1.7-1.3,2.5c-0.8,1,0.6,2.3,1.4,1.4c1.1-1.3,1.9-2.8,2-4.5c0,0,0,0,0,0
		c0.9-0.3,1.8-0.6,2.7-0.8c0,0,0,0.1,0,0.1c0,1.4-0.4,2.7-1.3,3.8c-0.8,1,0.9,1.9,1.7,1c1.1-1.4,1.5-3.1,1.6-4.8
		c0-0.2-0.1-0.4-0.2-0.5c0.7-0.1,1.4-0.3,2.1-0.3c4.1-0.3-0.1,5.4-0.7,6.2c-5.1,6-15.8,6.6-23,7.1c-10.1,0.7-20.3,2.7-30.4,0.7
		c-9.6-1.8-18.7-6.7-26-13.2c-0.9-0.8-2.3,0.5-1.4,1.4c6.9,6.1,14.9,10.4,23.8,12.9c9.9,2.9,20.3,1.4,30.4,0.4
		c7.8-0.8,15.7-1.1,22.9-4.5C166.4,187.7,172.1,182.9,170.5,178.2z"/>
	<path fill="#333333" d="M86.7,138.6c-0.4-0.9-0.6-1.9-0.6-2.9c0-1.2-1.9-1.2-1.9,0c0,1.3,0.3,2.6,0.8,3.8
		C85.5,140.7,87.2,139.7,86.7,138.6z"/>
	<path fill="#333333" d="M91.3,131.9c-0.2-0.7-0.2-1.4-0.2-2.1c0-1.2-1.9-1.2-1.9,0c0,0.9,0,1.8,0.3,2.7
		C89.8,133.6,91.7,133.1,91.3,131.9z"/>
	<path fill="#333333" d="M95,125c-0.2-0.4-0.7-0.6-1.1-0.5c-0.5,0.1-0.8,0.7-0.7,1.2c0.1,0.6,0.6,0.9,1.2,0.9
		C95.4,126.7,95.6,125.5,95,125z"/>
	<path fill="#333333" d="M93.7,140.7c-0.2-1.1-0.5-2.3-1-3.4c-0.4-1.1-2.3-0.6-1.8,0.5c0.4,1.1,0.7,2.2,1,3.4
		C92.1,142.5,93.9,142,93.7,140.7z"/>
	<path fill="#333333" d="M97,135.2c-0.4-0.8-0.6-1.7-0.9-2.6c-0.3-1.2-2.1-0.7-1.8,0.5c0.3,1.1,0.6,2.1,1.1,3.1
		C95.8,137.3,97.5,136.4,97,135.2z"/>
	<path fill="#333333" d="M102.7,132.6c-0.4-0.6-0.6-1.2-0.9-1.9c-0.4-1.2-2.2-0.7-1.8,0.5c0.3,0.8,0.6,1.6,1.1,2.4
		C101.7,134.6,103.4,133.7,102.7,132.6z"/>
	<path fill="#333333" d="M101.6,124c-0.3-0.9-0.5-1.8-1.1-2.6c-0.7-1-2.3-0.1-1.7,1c0.4,0.7,0.6,1.4,0.9,2.2
		C100.1,125.7,102,125.2,101.6,124z"/>
	<path fill="#333333" d="M114.6,120.4c-0.3-1.1-0.9-2.2-1.7-3.1c-0.9-0.9-2.2,0.5-1.4,1.4c0.6,0.6,1,1.4,1.2,2.2
		C113,122.1,114.9,121.6,114.6,120.4z"/>
	<path fill="#333333" d="M109.8,129c-0.3-1.3-0.7-2.4-1.3-3.6c-0.5-1.1-2.2-0.1-1.7,1c0.5,1,0.9,2,1.1,3.1
		C108.2,130.7,110,130.2,109.8,129z"/>
	<path fill="#333333" d="M108.8,121.4l-0.2-0.2c-0.9-0.9-2.2,0.5-1.4,1.4l0.2,0.2C108.3,123.6,109.7,122.3,108.8,121.4z"/>
	<path fill="#333333" d="M120.1,128.5c-0.5-1.2-1.2-2.4-1.8-3.6c-0.6-1.1-2.2-0.1-1.7,1c0.5,1,1.1,2,1.6,3.1
		c0.2,0.5,0.6,0.8,1.2,0.7C119.9,129.6,120.3,129,120.1,128.5z"/>
	<path fill="#333333" d="M122.8,117.3c-0.8-1.1-1.5-2.2-2.2-3.4c-0.6-1.1-2.3-0.1-1.7,1c0.7,1.1,1.4,2.3,2.2,3.4
		c0.3,0.4,0.8,0.6,1.3,0.3C122.9,118.3,123.2,117.7,122.8,117.3z"/>
	<path fill="#333333" d="M133.1,116.6c-0.5-0.9-1.2-1.7-1.7-2.6c-0.6-1.1-2.2-0.1-1.7,1c0.5,0.9,1.2,1.7,1.7,2.6
		C132.1,118.6,133.7,117.7,133.1,116.6z"/>
	<path fill="#333333" d="M140.7,115.3c-0.2-1.2-0.5-2.3-1.1-3.3c-0.5-1.1-2.2-0.1-1.7,1c0.4,0.9,0.7,1.9,0.9,2.9
		C139.1,117.1,140.9,116.6,140.7,115.3z"/>
	<path fill="#333333" d="M130.5,127.6c-1-1.5-1.7-3.1-2.6-4.6c-0.7-1-2.3-0.1-1.7,1c1,1.5,1.7,3.1,2.6,4.6
		C129.5,129.6,131.2,128.6,130.5,127.6z"/>
	<path fill="#333333" d="M137.9,123.7c-0.3-0.5-0.5-1.1-0.7-1.7c-0.2-0.5-0.9-0.6-1.3-0.3c-0.5,0.3-0.6,0.8-0.3,1.3
		c0.3,0.5,0.5,1.1,0.7,1.7c0.2,0.5,0.9,0.6,1.3,0.3C138.1,124.8,138.2,124.2,137.9,123.7z"/>
	<path fill="#333333" d="M140.2,123v0.2c0,1.2,1.9,1.2,1.9,0V123C142.1,121.8,140.2,121.8,140.2,123z"/>
	<path fill="#333333" d="M84.8,147.7c-0.3-1-0.7-1.8-1.3-2.6c-0.7-1-2.3-0.1-1.7,1c0.5,0.7,0.9,1.4,1.1,2.2
		C83.3,149.4,85.2,148.9,84.8,147.7z"/>
	<path fill="#333333" d="M84.2,154.3c-0.8-0.6-1.5-1.3-2.2-2c-0.9-0.9-2.2,0.5-1.4,1.4c0.8,0.8,1.7,1.6,2.6,2.3
		c0.4,0.3,1.1,0.1,1.3-0.3C84.8,155.1,84.6,154.6,84.2,154.3z"/>
	<path fill="#333333" d="M123.8,138.4c-0.3-0.5-0.7-0.9-1-1.4c-0.6-1.1-2.2-0.1-1.7,1c0.3,0.5,0.7,0.9,1,1.4
		C122.7,140.4,124.4,139.4,123.8,138.4z"/>
	<path fill="#333333" d="M132.2,134l-0.7-1.4c-0.6-1.1-2.2-0.1-1.7,1l0.7,1.4C131.1,136.1,132.7,135.2,132.2,134z"/>
	<path fill="#333333" d="M193.6,134.6c-6.4,1.9-12.3,1.5-18.4-1.3c-1.1-0.5-2.1,1.1-1,1.7c6.1,2.8,12,3.5,18.3,1.9
		c-2.6,10.5-3.6,24-15,28.7c-1.1,0.5-0.6,2.3,0.5,1.8c12.8-5.2,13.6-20,16.7-31.6C195,135.1,194.4,134.4,193.6,134.6z"/>
	<path fill="#333333" d="M156.3,83.3c-1.3-0.5-2.2-1.5-2.8-2.7c-0.3-0.7-1.1-0.6-1.5-0.2c-0.5-0.1-1.1,0.2-1,0.9
		c0.2,1.7,0.3,3.4,0.5,5c0.2,1.2,2.1,1.2,1.9,0c0-0.1,0-0.1,0-0.2c0.3,0.2,0.6,0.3,1,0.1l1.4-0.7c0.2-0.1,0.3-0.2,0.4-0.3
		C157,85.1,157.3,83.7,156.3,83.3z M153.4,84.6c-0.1,0-0.1,0.1-0.2,0.1c0-0.4-0.1-0.9-0.1-1.3c0.3,0.3,0.6,0.6,1,0.9
		C153.9,84.3,153.6,84.5,153.4,84.6z"/>
	<path fill="#333333" d="M204.7,77.2c-0.6-1.8-1.5-3.5-2.3-5.3c-0.2-0.6-1.1-0.6-1.5-0.2c-1.1,1.1-1.9,2.4-2.5,3.8
		c-0.3,0.6,0.1,1.2,0.6,1.4c0.1,0.1,0.1,0.1,0.2,0.2c1,0.5,2.1,0.9,3.1,1.4c0.4,0.2,0.9,0.1,1.1-0.2
		C204.1,78.6,204.9,78.1,204.7,77.2z M200.5,75.6c0.3-0.5,0.6-0.9,0.9-1.4c0.3,0.7,0.7,1.5,1,2.2C201.7,76.2,201.1,75.9,200.5,75.6z
		"/>
</g>
<g>
	<path fill="#EDD019" d="M477.3,80.7c-0.6-6.1-5.2-16.6-13.2-13.7c-11.5,4.1-7.6,18.2-5.3,26.9c1.9,7.4,2.2,16.2,0.6,23.6
		c-0.8,3.8-2.8,7.6-6.8,8.6c-5.4,1.4-10-2.7-12.9-6.7c-2.3-3.2-4.1-6.5-7.1-9.1c-3.5-3.1-8.2-3.3-12.7-3.8
		c-26.9-3.2-53.9,0.3-80.8,0.8c-0.2-7.9-2.4-16-7.2-21.8c-0.7-1.3-1.5-2.4-2.4-3.4c0,0,0-0.1,0-0.1c-1.1-5.2-3.8-9.7-5.7-14.6
		c-0.2-0.5-1.1-0.7-1.5-0.3c-2.7,3.1-4.7,6.6-5.8,10.5c-5.8-0.4-11.9,0.2-17.4,0.8c-5.4,0.6-11.3,1.1-16.5,3c-4-3-7.3-6.9-11.2-10.1
		c-0.6-0.5-1.5,0.1-1.5,0.7c-0.3,7.5-0.2,14.9-0.5,22.4c0,0.3,0.1,0.5,0.3,0.7c-1.2,5-1,10.5-0.8,15.2c0.3,10.9,2.9,24.7,13.4,27.1
		c5.6,5,14.4,6.2,23,5.5c8,8.5,18.3,10.8,30.3,11.6c18.5,1.2,37.2,0.1,55.7,0.1c12,0,24.6,0.6,36.5-2.2c0.1,0,0.2,0.1,0.3,0.1
		c6.3-0.4,12.3-3.9,15.7-9.2c6.9,0.8,13.6,1.1,19.8-2.9c9.6-6.2,12.6-18.1,13.4-28.7C477.4,101.6,478.3,90.8,477.3,80.7z"/>
	<path fill="#333333" d="M292.6,95.4c-0.1-0.1-0.3-0.2-0.5-0.3c-0.1-0.3-0.4-0.4-0.7-0.5c-0.5,0-1,0.4-1,0.9c0,0,0,0,0,0.1
		c0,0.1,0,0.3,0,0.4c0,0,0,0,0,0c0,0,0,0.1,0,0.1c0,0,0,0,0,0c0,0.2,0,0.3,0,0.5c0.1,0.4,0.3,0.7,0.6,1c0,0,0,0,0,0
		c0.1,0.1,0.2,0.2,0.3,0.2c0.5,0.2,1.2-0.1,1.3-0.6C292.9,96.7,293.1,96,292.6,95.4z"/>
	<path fill="#333333" d="M287.8,91.9c-0.4,0.4-0.3,0.9-0.1,1.2c-1.8,2-2.5,4.8-1.6,7.5c1.4,4.1,7,4.8,10,2.1
		C301.4,97.8,294,85.5,287.8,91.9z M295.2,100.6c-1.5,2.6-5.9,2.2-7.2-0.4c-1.5-2.9,0.6-6.7,3.5-7.6c0.3-0.1,0.5-0.3,0.6-0.6
		C295,92.7,296.9,97.9,295.2,100.6z"/>
	<path fill="#333333" d="M312,94.3c-0.1-0.1-0.1-0.1-0.2-0.2c0,0,0,0,0,0c0,0,0,0,0,0c-0.1-0.4-0.4-0.7-0.7-0.8
		c-0.6-0.6-1.7-0.1-1.6,0.7c-0.3,0.4-0.3,1,0.1,1.4c0.2,0.3,0.6,0.5,1,0.4c0.4,0.2,0.7,0.2,1.3,0c0.4-0.1,0.5-0.5,0.5-0.8
		C312.3,94.8,312.3,94.5,312,94.3z"/>
	<path fill="#333333" d="M314.4,119.6c-1.4,5.2-8.1-2.9-7.9-5.9c0-0.2-0.1-0.4-0.2-0.6c-0.1-1.5-0.2-2.9-0.3-4.3
		c-0.1-1.2-0.2-2.5-0.4-3.7c0.2-0.1,0.4-0.3,0.4-0.5c0.3-1.4,0.3-2.7,0.2-4.1c0-0.4-0.5-0.7-0.9-0.8c-1.5-0.2-2.6-0.1-4.1,0.3
		c-0.7,0.2-1,1-0.5,1.6c0.9,1.1,1.8,2,2.7,3c0.1,0.1,0.1,0.1,0.2,0.1c0.7,2.4,0.6,5.2,0.7,7.4c0,1.3,0.1,2.7,0.1,4
		c0,0.6,0.1,1.3,0.1,1.9c0.2,2.8-3.7,6.5-5.7,3.4c-0.7-1-2.4-0.2-1.7,0.9c3.1,4.7,9,1.9,9.4-3c0-0.2,0-0.5,0-0.7
		c2.9,4.1,8.2,7.3,9.7,1.6C316.5,119,314.7,118.4,314.4,119.6z"/>
	<path fill="#333333" d="M330.5,103.7c-4.3,0.9-8.4,2.9-11.5,5.9c-0.9,0.8,0.4,2.3,1.3,1.4c3-2.8,6.7-4.6,10.7-5.4
		C332.1,105.3,331.7,103.5,330.5,103.7z"/>
	<path fill="#333333" d="M328.6,121.6c-1.9-2.6-5.1-5.3-8.3-6.2c-1.2-0.3-1.8,1.5-0.6,1.8c2.8,0.8,5.8,3.3,7.4,5.7
		C327.9,123.9,329.3,122.6,328.6,121.6z"/>
	<path fill="#333333" d="M326.5,111.9c-0.9,0.2-1.7,0.3-2.6,0.3c-1.2,0-1.3,1.9-0.1,1.9c1.1,0,2.1-0.1,3.2-0.3
		C328.1,113.5,327.7,111.7,326.5,111.9z"/>
	<path fill="#333333" d="M277.4,109.9c4.4,0.2,8.7,1.4,12.4,3.8c1,0.7,0,2.3-1,1.6c-3.4-2.2-7.4-3.4-11.4-3.5
		C276.1,111.7,276.2,109.8,277.4,109.9z"/>
	<path fill="#333333" d="M282.4,127.2c1.4-2.9,4.2-6.1,7.1-7.5c1.1-0.5,2,1.1,0.9,1.7c-2.6,1.3-5.1,4.2-6.4,6.9
		C283.5,129.3,281.8,128.3,282.4,127.2z"/>
	<path fill="#333333" d="M282.8,117.2c0.9,0,1.8,0,2.7-0.2c1.2-0.3,1.6,1.6,0.4,1.9c-1,0.2-2.1,0.2-3.2,0.2
		C281.5,119.1,281.5,117.2,282.8,117.2z"/>
	<path fill="#333333" d="M339,165.9c-0.3-5.6-0.2-11.2-0.9-16.7c-0.2-1.2-2-0.8-1.9,0.4c0.8,6.5,0.5,13.1,1.1,19.6
		c0.3,3.1,1.8,12.2-3.7,11c0.1-0.6,0.1-1.3,0.2-1.9c0.6-9.9-2.2-20.5,0.1-30.1c0.3-1.2-1.5-1.8-1.8-0.6c-1.8,7.4-0.3,15.6-0.2,23.2
		c0,3.4,1.3,16.2-4.3,15.2c0-0.1,0-0.2,0-0.2c0.1-0.7-0.8-1.2-1.4-0.9c-0.6-0.4-1.2-0.9-1.8-1.3c1-0.4,0.5-1.7-0.4-1.8
		c-1-0.1,0.7-1.2,1.6-1.5c0.6,0.3,1.4,0,1.4-0.8c0.4-10.3-0.9-20.6-0.3-31c0.1-1.2-1.8-1.3-1.9-0.1c-0.6,9.9,0.6,19.9,0.3,29.8
		c-1.6,0-3.6,0.3-4,2.2c-0.3,1.3,0,2.1,0.7,2.6c-1.7,2,0.8,4.5,3.7,4.1c0.1,0.2,0.3,0.4,0.5,0.5c4.7,1.8,6.5-1.7,7.3-5.5
		c4.6,0.9,6.1-2.7,6.3-6.9C339.7,172.1,339.2,169,339,165.9z"/>
	<path fill="#333333" d="M426.3,168.4c-0.3-5.6-0.2-11.2-0.9-16.7c-0.2-1.2-2-0.8-1.9,0.4c0.8,6.5,0.5,13.1,1.1,19.6
		c0.3,3.1,1.8,12.2-3.7,11c0.1-0.6,0.1-1.3,0.2-1.9c0.6-9.9-2.2-20.5,0.1-30.1c0.3-1.2-1.5-1.8-1.8-0.6c-1.8,7.4-0.3,15.6-0.2,23.2
		c0,3.4,1.3,16.2-4.3,15.2c0-0.1,0-0.2,0-0.2c0.1-0.7-0.8-1.2-1.4-0.9c-0.6-0.4-1.2-0.9-1.8-1.3c1-0.4,0.5-1.7-0.4-1.8
		c-1-0.1,0.7-1.2,1.6-1.5c0.6,0.3,1.4,0,1.4-0.8c0.4-10.3-0.9-20.6-0.3-31c0.1-1.2-1.8-1.3-1.9-0.1c-0.6,9.9,0.6,19.9,0.3,29.8
		c-1.6,0-3.6,0.3-4,2.2c-0.3,1.3,0,2.1,0.7,2.6c-1.7,2,0.8,4.5,3.7,4.1c0.1,0.2,0.3,0.4,0.5,0.5c4.7,1.8,6.5-1.7,7.3-5.5
		c4.6,0.9,6.1-2.7,6.3-6.9C426.9,174.5,426.4,171.4,426.3,168.4z"/>
	<path fill="#333333" d="M463.9,113c-0.9-0.5-1.7-1.1-2.6-1.6c-1.1-0.6-2.1,1-1.1,1.6c0.9,0.5,1.7,1.1,2.6,1.6
		C464,115.3,465,113.7,463.9,113z"/>
	<path fill="#333333" d="M464.5,103.1c-1-0.3-2.1-0.6-3.1-0.9c-1.2-0.4-1.8,1.5-0.6,1.8c1,0.3,2.1,0.6,3.1,0.9
		C465,105.3,465.7,103.5,464.5,103.1z"/>
	<path fill="#333333" d="M462.1,93.5c-0.9-0.5-1.9-0.8-2.8-1.3c-1.1-0.6-2.1,1-1.1,1.6c0.9,0.5,1.9,0.8,2.8,1.3
		C462.1,95.7,463.2,94.1,462.1,93.5z"/>
	<path fill="#333333" d="M462.3,80.5c-1.6-0.5-3.3-0.7-5-0.8c-1.2-0.1-1.3,1.8-0.1,1.9c1.5,0.1,3,0.2,4.5,0.7
		C462.9,82.7,463.5,80.8,462.3,80.5z"/>
	<path fill="#333333" d="M351.7,107.9c-0.2,3.8-0.4,7.5-0.8,11.2c-0.1,1.2,1.8,1.3,1.9,0.1c0.4-3.7,0.6-7.5,0.8-11.2
		C353.6,106.8,351.7,106.7,351.7,107.9z"/>
	<path fill="#333333" d="M367.5,107.3c0.3-1.2-1.5-1.8-1.8-0.6c-0.9,3.7-0.7,7.5-0.9,11.2c-0.1,1.2,1.9,1.3,1.9,0.1
		C366.9,114.5,366.7,110.9,367.5,107.3z"/>
	<path fill="#333333" d="M384.6,106.3c-0.2-1.2-2-0.8-1.9,0.4c0.5,3.7,0.3,7.5,0.6,11.3c0.1,1.2,2,1.3,1.9,0.1
		C384.9,114.2,385.1,110.2,384.6,106.3z"/>
	<path fill="#333333" d="M405.1,111.1c0-1.5,0.2-3.9-0.8-5.2c-0.8-0.9-2.2,0.3-1.4,1.3c0.8,1,0.3,4.2,0.3,5.3c0,1.8-0.1,3.7-0.2,5.5
		c-0.1,1.2,1.8,1.3,1.9,0.1C405,115.8,405.1,113.5,405.1,111.1z"/>
	<path fill="#333333" d="M293.6,82c-0.2-0.6-0.4-1.2-0.6-1.7c-0.2-0.5-0.9-0.6-1.3-0.4c-0.5,0.3-0.6,0.8-0.4,1.3
		c0.2,0.6,0.4,1.2,0.6,1.7c0.2,0.5,0.9,0.6,1.3,0.4C293.7,83.1,293.8,82.5,293.6,82z"/>
	<path fill="#333333" d="M300.4,82.2l-0.6-2.9c-0.2-1.2-2.1-0.8-1.9,0.4l0.6,2.9C298.8,83.8,300.7,83.4,300.4,82.2z"/>
	<path fill="#333333" d="M306.1,78.4c-0.6-1.1-2.3-0.2-1.7,0.9c0.4,0.7,0.5,1.6,0.5,2.4c0,1.2,1.9,1.3,1.9,0.1
		C306.8,80.6,306.6,79.4,306.1,78.4z"/>
</g>
<g>
	<path fill="#F39DA3" d="M604.9,152.9c-0.6-11.6-2.7-24.8-9-34.8c-6-9.7-15.4-15.9-19-27.2c-3.2-10.3-4.1-21.1-10-30.5
		c-0.4-0.6-1-0.6-1.5-0.2c-3.5,2.8-6.7,4.4-11.2,4.3c-3.5-0.1-7-0.8-10.5-0.8c-6.8,0.1-16.9,4.6-20.8-3.3c-0.4-0.8-1.5-0.5-1.8,0.2
		c-2.5,9.4-4.7,18.7-4.6,28.5c0.1,7.7,4.7,13.2,8,19.7c0,0-0.1,0.1-0.1,0.1c-8.2,11.7-9.2,27.6-8.1,41.4c1,12.8,4.4,27.4,13.2,37.4
		c0.1,0.2,0.2,0.4,0.4,0.5c0,0,0,0,0,0c0.5,0.6,1.1,1.2,1.7,1.8c0.5,0.5,1.2,0.2,1.5-0.3c9.3,3.8,18.9,2.9,28.9,0.9
		c4.5-0.9,8.9-2,13.5-2c5.1,0,3.9,5.3,1.5,8.1c-2,2.4-4.9,3.6-7.5,5.2c-11,6.9-25.6,4.4-37.4,9.3c-3.8,1.6-11.7,6.4-7.1,11.3
		c4.7,5,13.1,6.2,19.5,7c8.9,1.1,18-1.5,25.9-5.5c17.4-8.7,27.8-26.9,32.2-45.3C604.7,170.5,605.3,161.6,604.9,152.9z"/>
	<path fill="#333333" d="M525.2,67.2c-0.7-0.9-1.2-1.9-1.9-2.9c-0.5-0.7-1.8-0.5-1.8,0.5c0,1-0.2,2.1-0.2,3.1c0,0.7,0.7,1,1.2,0.9
		c0.1,0.1,0.1,0.1,0.2,0.2c0.7,0.4,1.6-0.1,2.2-0.5C525.3,68.3,525.5,67.6,525.2,67.2z"/>
	<path fill="#333333" d="M567.7,67.4c-0.1-1.6-0.7-3.1-1.2-4.6c-0.3-0.7-1-0.9-1.6-0.4c-0.9,0.7-1.7,1.6-2.4,2.6
		c-0.3,0.1-0.7,0.4-0.7,0.7c-0.2,0.6,0.2,1,0.7,1.2c1.2,0.5,2.4,1.2,3.6,1.8c0.6,0.3,1.2-0.1,1.4-0.6
		C567.6,68,567.7,67.7,567.7,67.4z"/>
	<path fill="#333333" d="M535.8,66.2c-0.4-1.2-2.2-0.7-1.8,0.5c0.2,0.6,0.2,1.1,0.2,1.7c0,1.2,1.9,1.2,1.9,0
		C536.1,67.7,536,66.9,535.8,66.2z"/>
	<path fill="#333333" d="M539.5,65v2.6c0,1.2,1.9,1.2,1.9,0V65C541.4,63.8,539.5,63.8,539.5,65z"/>
	<path fill="#333333" d="M545.9,67.4c-0.2-0.9-0.2-1.7-0.2-2.6c0-1.2-1.9-1.2-1.9,0c0,1.1,0,2.1,0.3,3.1
		C544.3,69.1,546.2,68.6,545.9,67.4z"/>
	<path fill="#333333" d="M550.9,67.7c-0.2-0.7-0.2-1.4-0.2-2.1c0-1.2-1.9-1.2-1.9,0c0,0.9,0,1.8,0.3,2.7
		C549.4,69.3,551.3,68.8,550.9,67.7z"/>
	<path fill="#333333" d="M552.9,64.8v2.4c0,1.2,1.9,1.2,1.9,0v-2.4C554.8,63.6,552.9,63.6,552.9,64.8z"/>
	<path fill="#333333" d="M519.6,83c-0.7,0-1.3-0.2-1.9-0.4c-1.2-0.4-1.7,1.5-0.5,1.8c0.8,0.3,1.6,0.5,2.4,0.5
		C520.8,85,520.8,83,519.6,83z"/>
	<path fill="#333333" d="M519.1,88.1c-0.2,0.1-0.3,0.1-0.5,0.1c-0.1,0-0.1,0-0.1,0c0,0,0,0,0,0c-0.7-0.9-2.2,0-1.6,1
		c0.6,1,1.8,1,2.8,0.7C520.8,89.6,520.3,87.7,519.1,88.1z"/>
	<path fill="#333333" d="M520.3,92.9c-0.6,0.2-1.2,0.2-1.9,0.2c-1.2,0-1.2,1.9,0,1.9c0.8,0,1.6,0,2.4-0.3
		C522,94.4,521.5,92.5,520.3,92.9z"/>
	<path fill="#333333" d="M572.8,78.1c-1.2,0.7-2.3,1.6-3.6,2.2c-0.5,0.2-0.6,0.9-0.3,1.3c0.3,0.5,0.8,0.5,1.3,0.3
		c1.3-0.5,2.4-1.4,3.6-2.2C574.8,79.1,573.8,77.5,572.8,78.1z"/>
	<path fill="#333333" d="M572.5,82.3l-2.2,0.7c-1.2,0.4-0.7,2.2,0.5,1.8l2.2-0.7C574.2,83.8,573.7,81.9,572.5,82.3z"/>
	<path fill="#333333" d="M573.7,87.1h-2.4c-1.2,0-1.2,1.9,0,1.9h2.4C575,89,575,87.1,573.7,87.1z"/>
	<path fill="#333333" d="M541.1,78c-0.3-0.3-0.7-0.4-1.1-0.2c-0.4,0-0.9,0.2-1,0.6c-0.5,0.3-0.7,0.9-0.5,1.5
		c0.1,0.2,0.3,0.4,0.5,0.6c0,0.4,0.3,0.7,0.7,0.8c0.5,0.1,1-0.2,1.2-0.7c0-0.1,0.1-0.2,0.1-0.2c0.2-0.2,0.3-0.4,0.3-0.7
		C541.4,79.2,541.5,78.4,541.1,78z"/>
	<path fill="#333333" d="M550.8,77.6C550.8,77.6,550.8,77.5,550.8,77.6c-0.5-0.2-1.2-0.2-1.6,0c-0.5,0.3-0.8,1-0.5,1.6
		c0,0.1,0,0.2,0,0.2c0,0.4,0.3,0.9,0.7,1c0.3,0.1,0.6,0,0.9,0c0,0,0,0,0.1,0c0.3,0.1,0.5,0,0.8-0.1c0.5-0.3,0.6-0.9,0.6-1.5
		C551.7,78.2,551.4,77.6,550.8,77.6z"/>
	<path fill="#333333" d="M550.8,95.9c-0.4,1.4-0.9,1.7-2,0.8c-0.8-0.7-1.3-1.6-1.8-2.5c-0.1-0.1-0.1-0.3-0.2-0.4
		c0.1-2.1-0.3-4.3-0.5-6.5c0-0.6,0.1-1.2,0.1-1.7c0.5-0.8,0.8-1.7,1.2-2.6c0.2-0.5-0.2-1.1-0.7-1.2c-1.2-0.3-2.4-0.5-3.6-0.5
		c-0.8,0-1.1,0.8-0.8,1.4c0.5,1,1.1,1.8,1.9,2.5c0,0.9,0,1.7,0.1,2.6c0,2.1,0,4.2,0.5,6.1c0,0.6-0.2,1.2-0.4,1.8
		c-0.2,0.3-2.8,4-3.2,2.4c-0.3-1.2-2.2-0.7-1.8,0.5c0.9,3.3,3.8,1.9,5.5,0c0.6-0.6,1-1.3,1.3-2c0.2,0.3,0.4,0.6,0.7,0.9
		c2.1,2.5,4.8,2.2,5.7-1C552.9,95.3,551.1,94.7,550.8,95.9z"/>
	<path fill="#333333" d="M550,190.3c-1.1-8.1-1.5-16.7-1.7-24.8c0-1.2-1.9-1.2-1.9,0c0.2,5.8,0.9,11.5,1.1,17.3
		c0.1,1.7,0.1,3.5,0.3,5.2c0.3,2.2,2,6-1.5,6.3c-3.4,0.4-2.9-2.5-2.1-4.4c0.6-1.5,0.8-3.1,0.6-4.7c-1-6.6-1.5-13-1.5-19.8
		c0-1.2-1.9-1.2-1.9,0c0,4.6,0.1,9.3,0.5,13.9c0.4,4.1,2.1,7.9-0.2,11.8c-2.2,3.8,1.4,5,4.7,5C550.5,196.2,550.5,193.7,550,190.3z"
		/>
	<path fill="#333333" d="M563.9,190.3c-1.1-8.1-1.5-16.7-1.7-24.8c0-1.2-1.9-1.2-1.9,0c0.2,5.8,0.9,11.5,1.1,17.3
		c0.1,1.7,0.1,3.5,0.3,5.2c0.3,2.2,2,6-1.5,6.3c-3.4,0.4-2.9-2.5-2.1-4.4c0.6-1.5,0.8-3.1,0.6-4.7c-1-6.6-1.5-13-1.5-19.8
		c0-1.2-1.9-1.2-1.9,0c0,4.6,0.1,9.3,0.5,13.9c0.4,4.1,2.1,7.9-0.2,11.8c-2.2,3.8,1.4,5,4.7,5C564.4,196.2,564.3,193.7,563.9,190.3z
		"/>
	<path fill="#333333" d="M597.7,175.8c-0.1-1.2-2-1.2-1.9,0c0.4,4.5-0.3,9.2-1.6,13.8c-1.6-0.3-3.2-0.8-4.9-0.9
		c-1.2,0-1.2,1.9,0,1.9c1.5,0,2.9,0.5,4.4,0.8c-0.9,2.8-1.9,5.6-2.9,8.2c-0.6,1.5-1.3,3-2.1,4.3c-0.1,0-0.1-0.1-0.2-0.1
		c-2-0.7-3.5-2.2-5.1-3.6c-0.9-0.8-2.3,0.5-1.4,1.4c1.8,1.5,3.4,3.1,5.6,3.9c-2.2,3.4-5,6.4-8.2,9c0.2-0.4,0.2-0.9-0.3-1.3
		c-1.7-1.1-3-2.6-4-4.4c-0.6-1.1-2.2-0.1-1.7,1c1.1,2.1,2.7,3.9,4.7,5.1c0.2,0.1,0.4,0.2,0.6,0.1c-2,1.6-4.1,3-6.3,4.3
		c-1.4,0.8-2.9,1.6-4.4,2.3c-0.1,0-0.1-0.1-0.2-0.1c-2.4-0.5-4.6-2.4-5.1-4.8c-0.3-1.2-2.1-0.7-1.8,0.5c0.5,2.4,2.4,4.5,4.6,5.5
		c-4.1,1.7-8.5,3-12.9,3.7c0.7-0.1,1.3-1,0.5-1.6c-2.2-1.7-4-3.9-5-6.5c-0.4-1.1-2.3-0.6-1.8,0.5c1.1,2.9,3.1,5.4,5.5,7.4
		c0.2,0.2,0.5,0.2,0.7,0.2c-2.7,0.4-5.5,0.6-8.2,0.6c-3.7,0-6.5-0.8-9.6-2.6c-3-1.7-8.4-5.5-4.3-9c0.9-0.8-0.4-2.2-1.4-1.4
		c-5.5,4.8,1.1,10.1,5.5,12.5c8.8,4.9,20.7,1.9,29.5-1.3c9.6-3.6,18.7-9.4,24.7-17.9c2.9-4.2,4.6-9.3,6.1-14.2
		C596.7,187.7,598.2,181.6,597.7,175.8z"/>
	<path fill="#333333" d="M525.2,115.8c-6.3,8.9-3.4,21-3.2,31.2c0,1.2,1.9,1.2,1.9,0c-0.1-9.8-3.1-21.6,3-30.2
		C527.6,115.8,525.9,114.8,525.2,115.8z"/>
	<path fill="#333333" d="M576.1,125.2c-0.4-1.2-2.2-0.7-1.8,0.5c0.5,1.3,0.9,2.7,1.2,4.1c0.2,1.2,2.1,0.7,1.8-0.5
		C577,127.8,576.5,126.5,576.1,125.2z"/>
	<path fill="#333333" d="M581.3,128.8l-0.7-1.4c-0.6-1.1-2.2-0.1-1.7,1l0.7,1.4C580.2,130.9,581.8,129.9,581.3,128.8z"/>
	<path fill="#333333" d="M581,118.2c-0.1-0.3-0.3-0.6-0.3-1c-0.1-1.2-2-1.2-1.9,0c0,0.7,0.3,1.3,0.6,1.9
		C579.9,120.3,581.6,119.3,581,118.2z"/>
	<path fill="#333333" d="M590.2,122.3c-0.3-0.9-0.8-1.8-1.3-2.6c-0.7-1-2.3-0.1-1.7,1c0.4,0.7,0.8,1.4,1.1,2.2
		c0.2,0.5,0.7,0.8,1.2,0.7C590,123.3,590.4,122.8,590.2,122.3z"/>
	<path fill="#333333" d="M592.6,126.4c-0.4-1.2-2.2-0.7-1.8,0.5c0.2,0.8,0.2,1.6,0.2,2.4c0,1.2,1.9,1.2,1.9,0
		C592.9,128.3,592.9,127.3,592.6,126.4z"/>
	<path fill="#333333" d="M586.1,130.7c-0.2-0.6-0.3-1.3-0.5-1.9c-0.4-1.2-2.2-0.7-1.8,0.5c0.2,0.6,0.3,1.3,0.5,1.9
		C584.7,132.4,586.5,131.9,586.1,130.7z"/>
	<path fill="#333333" d="M585,124.4c0-0.1,0-0.2,0-0.3c0-0.2,0-0.5-0.1-0.7c-0.4-0.7-1.3-0.5-1.8-0.1c-0.4,0.4-0.3,0.9,0,1.3
		C583.2,125.7,584.9,125.6,585,124.4C585,124.5,585,124.5,585,124.4C585,124.5,585,124.5,585,124.4C585,124.5,585,124.5,585,124.4
		C585,124.4,585,124.4,585,124.4z"/>
	<path fill="#333333" d="M579.7,137.9c-1-0.7-2.3,0.6-1.4,1.4c1.4,1.1,1.2,3.9,1.2,5.6c0,1.2,1.9,1.2,1.9,0
		C581.4,142.7,581.6,139.4,579.7,137.9z"/>
	<path fill="#333333" d="M587.1,151.8c-0.2-0.7-0.3-1.4-0.5-2.2c-0.4-1.2-2.2-0.7-1.8,0.5c0.2,0.7,0.3,1.5,0.5,2.2
		C585.6,153.5,587.5,153,587.1,151.8z"/>
	<path fill="#333333" d="M592.8,148.7c-0.1-0.3-0.3-0.6-0.3-1c-0.1-1.2-2-1.2-1.9,0c0,0.7,0.3,1.3,0.6,1.9
		C591.7,150.7,593.3,149.8,592.8,148.7z"/>
	<path fill="#333333" d="M595.8,139.6v2.6c0,1.2,1.9,1.2,1.9,0v-2.6C597.7,138.3,595.8,138.3,595.8,139.6z"/>
	<path fill="#333333" d="M596,134.3c-0.4-1.2-2.2-0.7-1.8,0.5c0.1,0.3,0.3,0.8,0.1,1.2c-0.2,0.5-0.1,1,0.3,1.3
		c0.4,0.2,1.1,0.1,1.3-0.3C596.3,136.1,596.2,135.2,596,134.3z"/>
	<path fill="#333333" d="M587.8,138.1c0.3-0.4,0.4-1,0-1.4c-0.3-0.3-1-0.4-1.4,0c-0.4,0.5-0.5,1-0.5,1.6c0,1.2,1.9,1.2,1.9,0
		C587.9,138.3,587.9,138.2,587.8,138.1C587.9,138,588,137.9,587.8,138.1z"/>
	<path fill="#333333" d="M587.1,142.7c-0.5-0.5-0.9-0.9-1.6-1c-0.5,0-1,0.5-1,1c0,0.6,0.4,0.9,1,1c-0.2,0-0.1,0,0,0.1
		c0.1,0.1,0.2,0.2,0.3,0.3C586.6,145,587.9,143.6,587.1,142.7z"/>
	<path fill="#333333" d="M592.9,139.8c-0.8-0.9-1.9,0.2-1.5,1.1c0,0,0,0,0,0c-0.2,0.5-0.1,1,0.3,1.3c0.4,0.2,1.1,0.1,1.3-0.3
		C593.4,141.2,593.4,140.5,592.9,139.8z"/>
	<path fill="#333333" d="M597.7,150.8c0,0.9-0.2,1.8-0.4,2.6c-0.3,1.2,1.5,1.7,1.8,0.5c0.3-1,0.5-2.1,0.5-3.1
		C599.6,149.6,597.7,149.6,597.7,150.8z"/>
	<path fill="#333333" d="M589.9,155.4c-0.2-0.5-0.9-0.6-1.3-0.3c-0.5,0.3-0.6,0.8-0.3,1.3c0.2,0.3,0.1,0.8,0.1,1.2
		c0,1.2,1.9,1.2,1.9,0C590.3,156.8,590.2,156.1,589.9,155.4z"/>
	<path fill="#333333" d="M592.7,154.4v1.4c0,1.2,1.9,1.2,1.9,0v-1.4C594.6,153.2,592.7,153.2,592.7,154.4z"/>
	<path fill="#333333" d="M582.5,154.7C582.5,154.6,582.5,154.6,582.5,154.7c0.5-0.4,0.4-1,0.1-1.4c-0.3-0.4-0.6-0.7-1.1-0.7
		c-0.5,0-0.9,0.4-1,0.8c-0.2,0.6,0.1,1.4,0.3,2c0.4,1.2,2.2,0.7,1.8-0.5C582.5,154.8,582.5,154.7,582.5,154.7z"/>
	<path fill="#333333" d="M573,140.3c0,0.7,0,1.3-0.2,1.9c-0.4,1.2,1.5,1.7,1.8,0.5c0.2-0.8,0.3-1.6,0.3-2.4
		C574.9,139,573,139,573,140.3z"/>
	<path fill="#333333" d="M573,133.1c-0.3-0.4-1-0.3-1.4,0c-0.4,0.4-0.3,0.9,0,1.4c-0.2-0.2-0.1-0.1-0.1,0c0,0.1,0,0.2,0,0.3
		c0,1.2,1.9,1.2,1.9,0C573.5,134.1,573.4,133.6,573,133.1z"/>
</g>
</svg>
